<svg xmlns="http://www.w3.org/2000/svg" width="26" height="33" fill="none"><path fill="#000" d="M1.522 33h22.525a1.523 1.523 0 0 0 1.522-1.522V1.522A1.523 1.523 0 0 0 24.047 0H1.522A1.523 1.523 0 0 0 0 1.522v29.956A1.523 1.523 0 0 0 1.522 33M19.26 1.112v1.08a.395.395 0 0 1-.394.394H6.703a.395.395 0 0 1-.394-.394v-1.08zm-18.148.41a.41.41 0 0 1 .41-.41h3.674v1.08A1.51 1.51 0 0 0 6.703 3.7h12.163a1.51 1.51 0 0 0 1.506-1.507v-1.08h3.675a.41.41 0 0 1 .41.41v29.956a.41.41 0 0 1-.41.41H1.522a.41.41 0 0 1-.41-.41z"/><path fill="#000" d="m15.736 21.244-3.467 4.234-2.498-2.21a.556.556 0 0 0-.738.833l2.932 2.593a.556.556 0 0 0 .798-.064l3.834-4.68a.556.556 0 0 0-.86-.706M5.983 8.454h9.705a.556.556 0 0 0 0-1.112H5.983a.556.556 0 0 0 0 1.112m0 2.86h13.603a.556.556 0 0 0 0-1.112H5.983a.556.556 0 0 0 0 1.113m0 2.86h13.603a.556.556 0 0 0 0-1.112H5.983a.556.556 0 0 0 0 1.113"/></svg>