<svg width="38" height="38" viewBox="0 0 38 38" fill="none" xmlns="http://www.w3.org/2000/svg">
<path d="M19 35.4645C16.8492 35.4681 14.7189 35.0468 12.7313 34.2249C10.7437 33.4031 8.93804 32.1967 7.4179 30.6752C1.03127 24.2885 1.03127 13.8975 7.4179 7.51089C10.5116 4.41716 14.6248 2.7124 19 2.7124C23.3753 2.7124 27.4885 4.41585 30.5822 7.51089C36.9688 13.8975 36.9688 24.2885 30.5822 30.6752C29.062 32.1967 27.2563 33.4031 25.2688 34.2249C23.2812 35.0468 21.1508 35.4681 19 35.4645ZM9.27072 28.8223C14.6353 34.1869 23.3648 34.1869 28.7293 28.8223C31.3278 26.2226 32.7587 22.7672 32.7587 19.093C32.7587 15.4188 31.3278 11.9634 28.7293 9.36371C26.1309 6.76399 22.6756 5.33309 19 5.33309C15.3245 5.33309 11.8704 6.7653 9.27072 9.36371C6.671 11.9621 5.24141 15.4175 5.24141 19.093C5.24141 22.7685 6.67231 26.2226 9.27072 28.8223Z" fill="black"/>
<path d="M22.0112 26.4259C21.8391 26.4261 21.6686 26.3923 21.5097 26.3264C21.3507 26.2605 21.2063 26.1639 21.0848 26.042L15.0624 20.0196C14.9406 19.8981 14.844 19.7537 14.7781 19.5947C14.7122 19.4357 14.6782 19.2653 14.6782 19.0932C14.6782 18.9211 14.7122 18.7507 14.7781 18.5918C14.844 18.4328 14.9406 18.2884 15.0624 18.1668L21.0848 12.1445C21.2064 12.0228 21.3509 11.9263 21.5098 11.8605C21.6688 11.7946 21.8391 11.7607 22.0112 11.7607C22.1832 11.7607 22.3536 11.7946 22.5125 11.8605C22.6715 11.9263 22.8159 12.0228 22.9376 12.1445C23.0592 12.2661 23.1558 12.4106 23.2216 12.5695C23.2874 12.7285 23.3213 12.8988 23.3213 13.0709C23.3213 13.2429 23.2874 13.4133 23.2216 13.5723C23.1558 13.7312 23.0592 13.8756 22.9376 13.9973L17.8417 19.0932L22.9376 24.1892C23.1214 24.3722 23.2468 24.6057 23.2977 24.86C23.3486 25.1144 23.3227 25.3781 23.2235 25.6178C23.1242 25.8575 22.956 26.0622 22.7401 26.2061C22.5243 26.35 22.2706 26.4265 22.0112 26.4259Z" fill="black"/>
</svg>
