<svg width="24" height="25" viewBox="0 0 24 25" fill="none" xmlns="http://www.w3.org/2000/svg">
<path d="M22.6666 7.72008L14.6667 1.41562C13.9333 0.825982 12.9839 0.5 12 0.5C11.0161 0.5 10.0668 0.825982 9.33339 1.41562L1.33345 7.72008C0.909944 8.06056 0.571989 8.47824 0.342086 8.94531C0.112184 9.41237 -0.00439005 9.91811 0.000126391 10.4288V20.9043C0.000126391 21.8579 0.421551 22.7725 1.17169 23.4468C1.92183 24.1212 2.93924 24.5 4.0001 24.5H20C21.0608 24.5 22.0783 24.1212 22.8284 23.4468C23.5785 22.7725 24 21.8579 24 20.9043V10.4169C24.0026 9.90814 23.8851 9.40471 23.6552 8.93984C23.4254 8.47496 23.0884 8.05922 22.6666 7.72008ZM14.6667 22.1029H9.33339V16.11C9.33339 15.7922 9.47387 15.4873 9.72392 15.2625C9.97396 15.0378 10.3131 14.9115 10.6667 14.9115H13.3334C13.687 14.9115 14.0261 15.0378 14.2762 15.2625C14.5262 15.4873 14.6667 15.7922 14.6667 16.11V22.1029ZM21.3333 20.9043C21.3333 21.2222 21.1928 21.527 20.9428 21.7518C20.6927 21.9766 20.3536 22.1029 20 22.1029H17.3333V16.11C17.3333 15.1564 16.9119 14.2418 16.1618 13.5675C15.4116 12.8932 14.3942 12.5143 13.3334 12.5143H10.6667C9.60586 12.5143 8.58845 12.8932 7.83831 13.5675C7.08817 14.2418 6.66675 15.1564 6.66675 16.11V22.1029H4.0001C3.64648 22.1029 3.30734 21.9766 3.0573 21.7518C2.80725 21.527 2.66677 21.2222 2.66677 20.9043V10.4169C2.66701 10.2467 2.70756 10.0785 2.78573 9.9235C2.86389 9.7685 2.97788 9.63025 3.1201 9.51793L11.12 3.22546C11.3634 3.0333 11.6762 2.92733 12 2.92733C12.3239 2.92733 12.6367 3.0333 12.88 3.22546L20.88 9.51793C21.0222 9.63025 21.1362 9.7685 21.2143 9.9235C21.2925 10.0785 21.3331 10.2467 21.3333 10.4169V20.9043Z" fill="black"/>
</svg>
