<svg width="38" height="38" viewBox="0 0 38 38" fill="none" xmlns="http://www.w3.org/2000/svg">
<g clip-path="url(#clip0_571_62)">
<path d="M2.09899 -0.010351C2.17047 -0.0106462 2.17047 -0.0106462 2.24339 -0.0109474C2.40416 -0.0115189 2.56492 -0.0115599 2.72569 -0.0116042C2.84168 -0.0119021 2.95768 -0.0122315 3.07367 -0.0125898C3.3933 -0.0134787 3.71292 -0.0138973 4.03255 -0.0142361C4.37694 -0.0146778 4.72133 -0.0155395 5.06573 -0.0163357C5.89793 -0.0181567 6.73013 -0.0192416 7.56234 -0.0201996C7.79736 -0.020475 8.03237 -0.0207699 8.26739 -0.0210718C9.7265 -0.0229449 11.1856 -0.0245818 12.6447 -0.0255048C12.9828 -0.0257222 13.3208 -0.025942 13.6589 -0.0261657C13.7429 -0.0262211 13.827 -0.0262765 13.9135 -0.0263335C15.2746 -0.0272726 16.6357 -0.0297383 17.9967 -0.0328307C19.3938 -0.035979 20.7909 -0.0377283 22.188 -0.0381161C22.9725 -0.0383695 23.757 -0.0392421 24.5416 -0.0416862C25.2097 -0.0437644 25.8779 -0.0445807 26.5461 -0.0437498C26.8869 -0.0433649 27.2278 -0.0435791 27.5686 -0.0454172C27.8809 -0.0470872 28.1932 -0.0470312 28.5055 -0.0456247C28.6182 -0.045417 28.731 -0.045832 28.8437 -0.0469468C29.5031 -0.0530676 30.0138 0.00461902 30.5785 0.370912C30.6459 0.412242 30.7132 0.453573 30.7826 0.496156C31.1841 0.908839 31.4773 1.41741 31.4801 1.99784C31.4809 2.11084 31.4809 2.11084 31.4817 2.22612C31.4819 2.30871 31.4821 2.3913 31.4823 2.4764C31.4828 2.56343 31.4833 2.65045 31.4838 2.74012C31.4852 3.02868 31.4861 3.31724 31.4868 3.60581C31.4871 3.70521 31.4874 3.80461 31.4877 3.90402C31.4892 4.37096 31.4902 4.83789 31.4908 5.30483C31.4916 5.84366 31.4935 6.38246 31.4965 6.92128C31.4987 7.33792 31.4998 7.75455 31.5001 8.1712C31.5003 8.41998 31.5009 8.66874 31.5028 8.91752C31.5046 9.19508 31.5045 9.47257 31.504 9.75012C31.5054 9.87356 31.5054 9.87356 31.5069 9.99949C31.5031 10.5567 31.5031 10.5567 31.3278 10.8479C31.0832 11.0623 30.9075 11.0831 30.5814 11.0802C30.3461 11.0463 30.2208 10.9283 30.059 10.7615C29.9708 10.5852 29.9749 10.4772 29.974 10.2804C29.9735 10.2103 29.973 10.1403 29.9725 10.0682C29.9722 9.95256 29.9722 9.95256 29.9719 9.83462C29.9714 9.75363 29.9709 9.67264 29.9704 9.5892C29.9693 9.41283 29.9685 9.23647 29.9677 9.0601C29.9665 8.78091 29.9648 8.50173 29.9629 8.22255C29.9576 7.42857 29.9532 6.6346 29.9494 5.84061C29.947 5.35536 29.944 4.87012 29.9405 4.38487C29.9393 4.1999 29.9384 4.01493 29.9377 3.82996C29.9368 3.57092 29.935 3.31191 29.933 3.05288C29.933 2.9384 29.933 2.9384 29.9329 2.8216C29.9321 2.24651 29.9321 2.24651 29.7621 1.70685C29.4223 1.58212 29.1184 1.53984 28.7582 1.53973C28.6634 1.53935 28.5686 1.53896 28.4709 1.53856C28.3666 1.53888 28.2623 1.53922 28.158 1.53956C28.0465 1.53939 27.935 1.53916 27.8234 1.53886C27.5176 1.53824 27.2118 1.53855 26.9059 1.53901C26.5758 1.53934 26.2458 1.53882 25.9157 1.53842C25.2693 1.53776 24.623 1.5379 23.9766 1.53833C23.4513 1.53866 22.926 1.53871 22.4007 1.53855C22.2885 1.53851 22.2885 1.53851 22.1741 1.53848C22.0223 1.53843 21.8704 1.53838 21.7185 1.53834C20.2944 1.53791 18.8702 1.5384 17.4461 1.5392C16.224 1.53986 15.002 1.53974 13.7799 1.53906C12.3609 1.53827 10.9418 1.53795 9.5228 1.53841C9.37149 1.53846 9.22018 1.5385 9.06887 1.53855C8.99442 1.53857 8.91998 1.53859 8.84327 1.53862C8.31858 1.53875 7.79388 1.53853 7.26919 1.53818C6.62979 1.53776 5.99038 1.53788 5.35098 1.53867C5.02473 1.53906 4.69849 1.53921 4.37224 1.53872C4.07357 1.53828 3.77491 1.53852 3.47624 1.53931C3.36822 1.53948 3.26019 1.53939 3.15217 1.53903C3.00523 1.53858 2.85828 1.53913 2.71134 1.53973C2.62976 1.53976 2.54817 1.53978 2.46411 1.53981C2.18377 1.5618 1.96594 1.5926 1.70742 1.70685C1.54485 2.0649 1.53773 2.42502 1.54031 2.81277C1.54009 2.86985 1.53988 2.92694 1.53965 2.98575C1.53911 3.17682 1.53963 3.36786 1.54014 3.55893C1.53997 3.69738 1.53973 3.83583 1.53944 3.97429C1.53882 4.3546 1.53912 4.73491 1.53958 5.11522C1.53992 5.52542 1.5394 5.93563 1.53899 6.34584C1.53833 7.14937 1.53847 7.95291 1.53891 8.75645C1.53924 9.40942 1.53929 10.0624 1.53912 10.7154C1.5391 10.8082 1.53908 10.9011 1.53906 10.9968C1.53901 11.1855 1.53896 11.3742 1.53891 11.5629C1.5385 13.2823 1.53893 15.0017 1.5397 16.7211C1.54041 18.2907 1.54035 19.8603 1.53964 21.4298C1.53884 23.1933 1.53853 24.9568 1.53898 26.7203C1.53903 26.9083 1.53908 27.0963 1.53912 27.2843C1.53915 27.3768 1.53917 27.4693 1.53919 27.5646C1.53932 28.2169 1.53911 28.8692 1.53876 29.5215C1.53834 30.3162 1.53845 31.111 1.53924 31.9058C1.53963 32.3114 1.53979 32.717 1.5393 33.1226C1.53885 33.4938 1.5391 33.865 1.53989 34.2362C1.54005 34.3705 1.53997 34.5049 1.53961 34.6393C1.53916 34.8219 1.53962 35.0043 1.54031 35.1869C1.53996 35.2392 1.53961 35.2915 1.53925 35.3454C1.54183 35.6851 1.56621 35.9818 1.70742 36.2928C2.0396 36.4396 2.35144 36.4598 2.71134 36.4599C2.80617 36.4603 2.90099 36.4607 2.99868 36.4611C3.10297 36.4608 3.20726 36.4604 3.31155 36.4601C3.42307 36.4602 3.53458 36.4605 3.64609 36.4608C3.95194 36.4614 4.25778 36.4611 4.56362 36.4606C4.89369 36.4603 5.22376 36.4608 5.55382 36.4612C6.2002 36.4619 6.84657 36.4617 7.49294 36.4613C8.01825 36.461 8.54356 36.4609 9.06887 36.4611C9.18101 36.4611 9.18101 36.4611 9.29541 36.4612C9.44728 36.4612 9.59915 36.4613 9.75101 36.4613C11.1752 36.4617 12.5993 36.4612 14.0235 36.4604C15.2455 36.4598 16.4676 36.4599 17.6896 36.4606C19.1087 36.4614 20.5277 36.4617 21.9467 36.4612C22.098 36.4612 22.2494 36.4611 22.4007 36.4611C22.4751 36.4611 22.5496 36.461 22.6263 36.461C23.151 36.4609 23.6757 36.4611 24.2003 36.4615C24.8398 36.4619 25.4792 36.4618 26.1186 36.461C26.4448 36.4606 26.771 36.4604 27.0973 36.4609C27.396 36.4614 27.6946 36.4611 27.9933 36.4603C28.1013 36.4602 28.2093 36.4602 28.3174 36.4606C28.4643 36.4611 28.6113 36.4605 28.7582 36.4599C28.8398 36.4599 28.9214 36.4599 29.0054 36.4598C29.2767 36.4385 29.5069 36.3875 29.7621 36.2928C29.9243 35.9353 29.9318 35.5759 29.9295 35.1887C29.9298 35.1328 29.93 35.0769 29.9303 35.0192C29.9308 34.8987 29.931 34.7781 29.9309 34.6576C29.9308 34.4666 29.9318 34.2757 29.9331 34.0847C29.9365 33.5422 29.9383 32.9996 29.9388 32.457C29.9392 32.1243 29.941 31.7917 29.9437 31.4591C29.9444 31.3326 29.9446 31.2061 29.9442 31.0797C29.9436 30.9029 29.9449 30.7262 29.9466 30.5495C29.9457 30.4715 29.9457 30.4715 29.9448 30.392C29.9507 30.0394 30.0329 29.8611 30.2816 29.6131C30.5193 29.4943 30.766 29.5018 31.0238 29.5389C31.2324 29.672 31.3585 29.7629 31.4691 29.9842C31.478 30.1818 31.4824 30.3775 31.4835 30.5752C31.4841 30.6363 31.4847 30.6974 31.4853 30.7603C31.4871 30.9631 31.4884 31.166 31.4894 31.3688C31.4898 31.4382 31.4902 31.5075 31.4906 31.579C31.4926 31.9466 31.4941 32.3141 31.4951 32.6817C31.4964 33.0602 31.4997 33.4386 31.5035 33.8171C31.506 34.109 31.5068 34.4008 31.5072 34.6927C31.5077 34.8322 31.5089 34.9716 31.5106 35.111C31.5274 36.4989 31.5274 36.4989 31.098 37.1092C31.0567 37.1765 31.0154 37.2439 30.9728 37.3133C30.5171 37.7567 30.0033 38.0087 29.3705 38.01C29.3229 38.0102 29.2752 38.0104 29.2261 38.0106C29.0654 38.0112 28.9046 38.0112 28.7439 38.0112C28.6279 38.0115 28.5119 38.0119 28.3959 38.0122C28.0762 38.0131 27.7566 38.0135 27.437 38.0139C27.0926 38.0143 26.7482 38.0152 26.4038 38.016C25.5716 38.0178 24.7394 38.0189 23.9072 38.0198C23.6722 38.0201 23.4372 38.0204 23.2021 38.0207C21.743 38.0226 20.2839 38.0242 18.8248 38.0251C18.4867 38.0254 18.1487 38.0256 17.8106 38.0258C17.7266 38.0259 17.6426 38.0259 17.556 38.026C16.1949 38.0269 14.8339 38.0294 13.4728 38.0325C12.0757 38.0356 10.6786 38.0374 9.28155 38.0378C8.49702 38.038 7.7125 38.0389 6.92798 38.0413C6.2598 38.0434 5.59164 38.0442 4.92347 38.0434C4.5826 38.043 4.24177 38.0432 3.90091 38.0451C3.58861 38.0467 3.27635 38.0467 2.96405 38.0453C2.85132 38.0451 2.73858 38.0455 2.62585 38.0466C1.96639 38.0527 1.45572 37.995 0.891019 37.6287C0.823665 37.5874 0.756312 37.5461 0.686917 37.5035C0.20539 37.0086 -0.0108757 36.4791 -0.00977536 35.7992C-0.00997217 35.7405 -0.0101691 35.6819 -0.0103719 35.6214C-0.0109442 35.4231 -0.0109843 35.2249 -0.0110286 35.0266C-0.0113265 34.8836 -0.0116559 34.7407 -0.0120143 34.5978C-0.0129037 34.2037 -0.0133218 33.8096 -0.0136605 33.4155C-0.014102 32.991 -0.0149638 32.5664 -0.0157601 32.1419C-0.0175815 31.116 -0.0186661 30.09 -0.019624 29.0641C-0.0198994 28.7744 -0.0201944 28.4847 -0.0204963 28.195C-0.0223693 26.397 -0.0240075 24.5989 -0.0249292 22.8008C-0.025146 22.3841 -0.0253662 21.9675 -0.0255901 21.5509C-0.0256177 21.4991 -0.0256453 21.4473 -0.0256736 21.394C-0.0265757 19.716 -0.028872 18.038 -0.0319672 16.36C-0.0352334 14.586 -0.0371409 12.8121 -0.0375406 11.0381C-0.0377941 10.071 -0.0386681 9.10401 -0.0411106 8.13696C-0.0431872 7.31342 -0.0440059 6.48989 -0.0431743 5.66635C-0.0427889 5.24612 -0.0430061 4.82592 -0.0448416 4.40569C-0.0465083 4.02088 -0.046458 3.63611 -0.0450491 3.25129C-0.0448409 3.11219 -0.045259 2.97308 -0.0463713 2.83398C-0.0563149 1.50936 -0.0563149 1.50936 0.371487 0.890443C0.412818 0.82309 0.454148 0.755736 0.496731 0.686342C0.952418 0.242971 1.46627 -0.0090662 2.09899 -0.010351Z" fill="white"/>
<path d="M36.847 9.8537C37.4113 10.3119 37.8833 10.9909 38 11.7266C38.0778 13.1788 37.5903 14.1311 36.8542 15.3726C36.7622 15.5291 36.6702 15.6856 36.5782 15.8422C36.5312 15.9223 36.4841 16.0023 36.4356 16.0847C36.2021 16.4832 35.9715 16.8834 35.741 17.2837C35.6717 17.4038 35.6717 17.4038 35.6011 17.5264C35.5074 17.689 35.4137 17.8516 35.32 18.0142C35.0879 18.4171 34.8555 18.8199 34.623 19.2227C34.5303 19.3835 34.4375 19.5443 34.3447 19.7051C33.0459 21.9564 31.7471 24.2077 30.4482 26.459C30.4023 26.5387 30.3563 26.6184 30.3089 26.7005C30.2167 26.8603 30.1245 27.02 30.0322 27.1797C29.8164 27.5534 29.601 27.9273 29.3875 28.3023C29.3121 28.4346 29.2366 28.5667 29.161 28.6989C29.0665 28.8643 28.9722 29.03 28.8783 29.1958C28.4665 29.9152 28.0931 30.4441 27.4099 30.9214C27.2836 31.012 27.1573 31.1027 27.031 31.1933C26.9668 31.239 26.9025 31.2846 26.8363 31.3317C26.5348 31.5471 26.2373 31.7678 25.9395 31.9883C25.8229 32.0741 25.7064 32.1599 25.5898 32.2457C25.3448 32.4262 25.1002 32.6072 24.8557 32.7885C24.7933 32.8347 24.7309 32.8809 24.6666 32.9285C24.5485 33.0159 24.4305 33.1035 24.3126 33.1911C24.1506 33.3109 23.9878 33.4294 23.8242 33.5469C23.7658 33.5889 23.7073 33.6308 23.6471 33.6741C23.589 33.7145 23.5309 33.7549 23.4711 33.7965C23.4191 33.8329 23.3672 33.8693 23.3136 33.9068C23.0444 34.0529 22.7826 34.0703 22.4883 33.9922C22.2838 33.8303 22.1591 33.7048 22.043 33.4727C22.0467 33.2935 22.0552 33.1178 22.0682 32.9393C22.0718 32.8862 22.0755 32.833 22.0792 32.7783C22.1174 32.2408 22.173 31.7054 22.2329 31.1698C22.2441 31.0683 22.2553 30.9668 22.2664 30.8652C22.2896 30.655 22.313 30.4448 22.3366 30.2346C22.3666 29.967 22.3959 29.6993 22.4252 29.4316C22.448 29.223 22.4712 29.0143 22.4945 28.8057C22.5107 28.6596 22.5267 28.5136 22.5426 28.3675C22.6918 27.0484 22.6918 27.0484 23.0203 26.4894C23.0676 26.4078 23.115 26.3261 23.1638 26.2419C23.2154 26.155 23.267 26.0681 23.3186 25.9812C23.3723 25.8893 23.4259 25.7974 23.4793 25.7054C23.5894 25.5165 23.6998 25.3278 23.8107 25.1394C24.0084 24.803 24.2029 24.4647 24.3975 24.1264C24.5348 23.8877 24.6724 23.6492 24.8102 23.4108C25.0414 23.0107 25.2724 22.6105 25.5033 22.2102C25.6424 21.9691 25.7815 21.728 25.9206 21.4869C26.1072 21.1634 26.2937 20.8399 26.4801 20.5163C26.9271 19.7405 27.3753 18.9656 27.8274 18.1929C28.2041 17.5488 28.5759 16.9021 28.9453 16.2539C29.3561 15.5331 29.7707 14.8147 30.1898 14.0987C30.4675 13.6241 30.7428 13.1482 31.0167 12.6714C31.2408 12.2818 31.4658 11.8927 31.6914 11.5039C31.7234 11.4486 31.7553 11.3934 31.7883 11.3364C32.3782 10.3219 32.9795 9.58769 34.1406 9.27734C35.0906 9.06409 36.0609 9.29058 36.847 9.8537ZM33.5901 11.394C33.3066 11.8386 33.0552 12.3019 32.8047 12.7656C33.0743 12.9922 33.3501 13.1723 33.6562 13.346C33.7011 13.3716 33.746 13.3972 33.7922 13.4236C33.9345 13.5045 34.077 13.585 34.2195 13.6655C34.3154 13.7201 34.4113 13.7747 34.5072 13.8293C35.0229 14.1253 35.0229 14.1253 35.5508 14.3984C35.7517 14.0786 35.9488 13.7567 36.1445 13.4336C36.1794 13.3792 36.2142 13.3247 36.2501 13.2686C36.4954 12.8499 36.5041 12.4242 36.4414 11.9492C36.3133 11.5124 36.0779 11.2393 35.6992 10.9844C34.9616 10.6185 34.1153 10.7084 33.5901 11.394ZM31.9883 14.1758C31.3137 15.3293 30.6433 16.4852 29.9763 17.6431C29.7441 18.046 29.5117 18.4488 29.2793 18.8516C29.1865 19.0124 29.0937 19.1732 29.001 19.334C28.4443 20.2988 27.8877 21.2637 27.3311 22.2285C27.2851 22.3082 27.2392 22.3878 27.1918 22.4699C27.0993 22.6302 27.0068 22.7906 26.9142 22.951C26.6786 23.3595 26.4429 23.768 26.2073 24.1765C25.6612 25.1234 25.1145 26.0699 24.5664 27.0156C24.7547 27.2273 24.9674 27.3526 25.2121 27.4931C25.2957 27.5413 25.3794 27.5895 25.4656 27.6391C25.5092 27.6639 25.5528 27.6888 25.5977 27.7144C25.7292 27.7894 25.8604 27.865 25.9915 27.9406C26.4261 28.1899 26.8612 28.4308 27.3125 28.6484C27.6008 28.2409 27.852 27.8193 28.0918 27.3821C28.3855 26.847 28.6878 26.3177 28.9963 25.791C29.3633 25.1644 29.7285 24.5369 30.0911 23.9077C30.1372 23.8276 30.1834 23.7475 30.231 23.6649C30.3247 23.5023 30.4183 23.3398 30.512 23.1772C30.7441 22.7743 30.9766 22.3715 31.209 21.9687C31.3018 21.8079 31.3945 21.6471 31.4873 21.4863C31.7656 21.0039 31.7656 21.0039 32.0439 20.5215C32.0899 20.4418 32.1359 20.3622 32.1832 20.2801C32.2757 20.1198 32.3681 19.9596 32.4606 19.7993C32.6973 19.3891 32.9339 18.9788 33.1703 18.5683C33.2182 18.4851 33.2661 18.4019 33.3155 18.3162C33.4098 18.1525 33.5041 17.9888 33.5982 17.8249C33.8055 17.4649 34.0142 17.1061 34.2296 16.7508C34.2651 16.692 34.3006 16.6333 34.3371 16.5727C34.402 16.4656 34.4675 16.3589 34.5337 16.2527C34.6063 16.1327 34.6712 16.0081 34.7344 15.8828C34.6333 15.5797 34.4951 15.5445 34.2192 15.3891C34.1746 15.3637 34.13 15.3384 34.084 15.3123C33.9409 15.2312 33.7972 15.1512 33.6536 15.071C33.5588 15.0174 33.464 14.9637 33.3693 14.91C32.9148 14.6531 32.4586 14.4029 31.9883 14.1758ZM24.1211 28.6484C23.9864 29.6126 23.8652 30.5698 23.8242 31.543C24.282 31.2574 24.7125 30.937 25.1416 30.6106C25.196 30.5695 25.2504 30.5284 25.3064 30.486C25.3588 30.4459 25.4112 30.4058 25.4651 30.3645C25.5118 30.3288 25.5585 30.2932 25.6066 30.2564C25.7906 30.102 25.957 29.9333 26.125 29.7617C25.8517 29.603 25.5782 29.4444 25.3046 29.2861C25.2115 29.2321 25.1184 29.1781 25.0254 29.1241C24.8919 29.0466 24.7583 28.9692 24.6247 28.892C24.5442 28.8453 24.4638 28.7987 24.3809 28.7506C24.2198 28.6425 24.2198 28.6425 24.1211 28.6484Z" fill="white"/>
<path d="M19.8737 5.29672C21.3365 6.46032 22.2869 8.00506 22.5624 9.87103C22.6872 11.8447 22.3721 13.6446 21.0635 15.1838C20.8983 15.3705 20.7293 15.5527 20.5585 15.7343C20.5184 15.78 20.4783 15.8258 20.437 15.8729C19.403 17.0032 17.7357 17.6205 16.2341 17.6924C14.2493 17.746 12.5185 17.243 11.0367 15.8859C9.86858 14.7763 8.9964 13.2278 8.89299 11.593C8.84679 9.42376 9.26973 7.62738 10.7965 6.02006C13.1907 3.59187 17.1211 3.28179 19.8737 5.29672ZM11.4806 7.62591C10.5656 8.8268 10.3289 10.2502 10.4647 11.7265C10.5921 12.5075 10.9552 13.2053 11.3553 13.8788C11.5989 13.7749 11.7319 13.6567 11.8981 13.4521C12.3634 12.9061 12.897 12.5451 13.5077 12.1718C13.4878 12.1244 13.4679 12.0769 13.4474 12.028C13.4183 11.953 13.3892 11.878 13.3592 11.8007C13.3401 11.7532 13.3209 11.7058 13.3011 11.6569C13.1301 11.1997 13.0964 10.779 13.0995 10.2931C13.0998 10.218 13.1001 10.1428 13.1004 10.0653C13.1137 9.48324 13.1924 9.03545 13.5077 8.53509C13.5353 8.49022 13.563 8.44535 13.5915 8.39912C14.011 7.8217 14.6816 7.53781 15.3632 7.42181C16.1536 7.33412 16.865 7.53635 17.4987 8.01411C17.9547 8.42776 18.2833 9.00401 18.3543 9.62027C18.3644 9.8358 18.3665 10.0496 18.3644 10.2653C18.364 10.3787 18.364 10.3787 18.3637 10.4944C18.3549 10.9675 18.3089 11.37 18.1 11.8016C18.0151 11.9676 18.0151 11.9676 18.035 12.246C18.1931 12.3637 18.3427 12.4598 18.5128 12.5568C19.0429 12.8769 19.4985 13.2405 19.8618 13.7498C19.8958 13.7924 19.9297 13.835 19.9647 13.8788C20.0137 13.8788 20.0627 13.8788 20.1132 13.8788C20.9323 12.4995 21.2743 11.0085 20.8925 9.42571C20.4314 7.97817 19.4802 6.79163 18.1324 6.06731C15.6966 4.93737 13.1905 5.65388 11.4806 7.62591ZM14.7369 9.43035C14.5165 9.88988 14.4892 10.4135 14.6256 10.9008C14.7695 11.2727 15.0069 11.4741 15.3632 11.6523C15.7287 11.6924 16.0214 11.6927 16.3558 11.5317C16.7697 11.1572 16.8943 10.8459 16.9241 10.2978C16.9195 9.89924 16.8625 9.61144 16.6063 9.29119C16.3295 9.07101 16.0963 8.92739 15.7435 8.87371C15.3074 8.93477 15.0124 9.08427 14.7369 9.43035ZM14.3241 13.5077C14.2582 13.5367 14.1923 13.5657 14.1243 13.5956C13.5073 13.8985 12.9992 14.3447 12.6171 14.9179C12.6171 14.9914 12.6171 15.0649 12.6171 15.1406C13.9678 15.9911 15.3619 16.3848 16.9664 16.0422C17.6523 15.8621 18.2557 15.5157 18.8514 15.1406C18.784 14.7515 18.523 14.5259 18.2577 14.2499C18.2194 14.2097 18.1811 14.1696 18.1417 14.1282C17.3643 13.3896 16.415 13.2544 15.3968 13.2694C15.0088 13.2825 14.6791 13.3481 14.3241 13.5077Z" fill="white"/>
<path d="M9.3029 28.3045C9.44524 28.3029 9.44524 28.3029 9.59046 28.3013C9.69508 28.302 9.7997 28.3028 9.90431 28.3036C10.0149 28.3031 10.1255 28.3024 10.2361 28.3016C10.5361 28.2999 10.836 28.3006 11.1359 28.3018C11.4499 28.3027 11.764 28.3018 12.078 28.3012C12.6053 28.3006 13.1326 28.3015 13.66 28.3032C14.2695 28.3052 14.8789 28.3046 15.4884 28.3025C16.0119 28.3009 16.5354 28.3006 17.0589 28.3016C17.3715 28.3022 17.684 28.3022 17.9966 28.301C18.2905 28.3 18.5843 28.3007 18.8782 28.3028C18.986 28.3033 19.0938 28.3032 19.2016 28.3024C19.3488 28.3014 19.4961 28.3029 19.6433 28.3045C19.7257 28.3046 19.8081 28.3048 19.8929 28.3049C20.1855 28.3668 20.2979 28.4948 20.4848 28.7227C20.5341 28.9082 20.5341 28.9082 20.5312 29.0938C20.5322 29.155 20.5331 29.2162 20.5341 29.2793C20.4626 29.5488 20.3258 29.6589 20.1137 29.836C19.8929 29.8827 19.8929 29.8827 19.6433 29.8831C19.501 29.8847 19.501 29.8847 19.3558 29.8863C19.2511 29.8855 19.1465 29.8848 19.0419 29.884C18.9313 29.8845 18.8207 29.8852 18.7101 29.886C18.4102 29.8877 18.1103 29.887 17.8103 29.8858C17.4963 29.8849 17.1823 29.8858 16.8682 29.8863C16.3409 29.887 15.8136 29.8861 15.2863 29.8844C14.6767 29.8823 14.0673 29.883 13.4578 29.885C12.9343 29.8867 12.4108 29.887 11.8873 29.886C11.5748 29.8854 11.2622 29.8853 10.9496 29.8866C10.6557 29.8876 10.3619 29.8869 10.068 29.8847C9.96022 29.8842 9.85242 29.8844 9.74462 29.8852C9.59738 29.8862 9.45013 29.8847 9.3029 29.8831C9.22053 29.883 9.13816 29.8828 9.0533 29.8827C8.76077 29.8208 8.64828 29.6928 8.4614 29.4649C8.41211 29.2793 8.41211 29.2793 8.41501 29.0938C8.41405 29.0326 8.4131 28.9713 8.41211 28.9082C8.53407 28.4491 8.86023 28.3052 9.3029 28.3045Z" fill="white"/>
<path d="M9.3029 24.1482C9.44524 24.1467 9.44524 24.1467 9.59046 24.1451C9.69508 24.1458 9.7997 24.1465 9.90431 24.1473C10.0149 24.1468 10.1255 24.1462 10.2361 24.1454C10.5361 24.1437 10.836 24.1443 11.1359 24.1455C11.4499 24.1464 11.764 24.1456 12.078 24.145C12.6053 24.1443 13.1326 24.1452 13.66 24.147C14.2695 24.149 14.8789 24.1483 15.4884 24.1463C16.0119 24.1446 16.5354 24.1444 17.0589 24.1453C17.3715 24.1459 17.684 24.146 17.9966 24.1448C18.2905 24.1437 18.5843 24.1444 18.8782 24.1466C18.986 24.1471 19.0938 24.1469 19.2016 24.1461C19.3488 24.1451 19.4961 24.1466 19.6433 24.1482C19.7257 24.1484 19.8081 24.1485 19.8929 24.1487C20.1855 24.2105 20.2979 24.3385 20.4848 24.5664C20.5341 24.752 20.5341 24.752 20.5312 24.9375C20.5322 24.9988 20.5331 25.06 20.5341 25.1231C20.4626 25.3925 20.3258 25.5027 20.1137 25.6797C19.8929 25.7264 19.8929 25.7264 19.6433 25.7268C19.501 25.7284 19.501 25.7284 19.3558 25.73C19.2511 25.7293 19.1465 25.7285 19.0419 25.7277C18.9313 25.7282 18.8207 25.7289 18.7101 25.7297C18.4102 25.7314 18.1103 25.7308 17.8103 25.7296C17.4963 25.7286 17.1823 25.7295 16.8682 25.7301C16.3409 25.7308 15.8136 25.7299 15.2863 25.7281C14.6767 25.7261 14.0673 25.7267 13.4578 25.7288C12.9343 25.7305 12.4108 25.7307 11.8873 25.7297C11.5748 25.7292 11.2622 25.7291 10.9496 25.7303C10.6557 25.7314 10.3619 25.7306 10.068 25.7285C9.96022 25.728 9.85242 25.7281 9.74462 25.729C9.59738 25.73 9.45013 25.7285 9.3029 25.7268C9.22053 25.7267 9.13816 25.7266 9.0533 25.7264C8.76077 25.6646 8.64828 25.5366 8.4614 25.3086C8.41211 25.1231 8.41211 25.1231 8.41501 24.9375C8.41405 24.8763 8.4131 24.8151 8.41211 24.752C8.53407 24.2929 8.86023 24.149 9.3029 24.1482Z" fill="white"/>
<path d="M9.3029 19.992C9.44524 19.9904 9.44524 19.9904 9.59046 19.9888C9.69508 19.9895 9.7997 19.9903 9.90431 19.9911C10.0149 19.9906 10.1255 19.9899 10.2361 19.9891C10.5361 19.9874 10.836 19.9881 11.1359 19.9893C11.4499 19.9902 11.764 19.9893 12.078 19.9887C12.6053 19.9881 13.1326 19.989 13.66 19.9907C14.2695 19.9927 14.8789 19.9921 15.4884 19.99C16.0119 19.9884 16.5354 19.9881 17.0589 19.9891C17.3715 19.9897 17.684 19.9897 17.9966 19.9885C18.2905 19.9875 18.5843 19.9882 18.8782 19.9903C18.986 19.9908 19.0938 19.9907 19.2016 19.9899C19.3488 19.9889 19.4961 19.9904 19.6433 19.992C19.7257 19.9921 19.8081 19.9923 19.8929 19.9924C20.1855 20.0543 20.2979 20.1823 20.4848 20.4102C20.5341 20.5957 20.5341 20.5957 20.5312 20.7813C20.5322 20.8425 20.5331 20.9037 20.5341 20.9668C20.4626 21.2363 20.3258 21.3464 20.1137 21.5235C19.8929 21.5702 19.8929 21.5702 19.6433 21.5706C19.501 21.5722 19.501 21.5722 19.3558 21.5738C19.2511 21.573 19.1465 21.5723 19.0419 21.5715C18.9313 21.572 18.8207 21.5727 18.7101 21.5735C18.4102 21.5752 18.1103 21.5745 17.8103 21.5733C17.4963 21.5724 17.1823 21.5733 16.8682 21.5738C16.3409 21.5745 15.8136 21.5736 15.2863 21.5719C14.6767 21.5698 14.0673 21.5705 13.4578 21.5725C12.9343 21.5742 12.4108 21.5745 11.8873 21.5735C11.5748 21.5729 11.2622 21.5728 10.9496 21.5741C10.6557 21.5751 10.3619 21.5744 10.068 21.5722C9.96022 21.5717 9.85242 21.5719 9.74462 21.5727C9.59738 21.5737 9.45013 21.5722 9.3029 21.5706C9.22053 21.5705 9.13816 21.5703 9.0533 21.5702C8.76077 21.5083 8.64828 21.3803 8.4614 21.1524C8.41211 20.9668 8.41211 20.9668 8.41501 20.7813C8.41405 20.7201 8.4131 20.6588 8.41211 20.5957C8.53407 20.1366 8.86023 19.9927 9.3029 19.992Z" fill="white"/>
<path d="M15.836 32.4598C15.9299 32.4587 16.0238 32.4575 16.1205 32.4563C16.2223 32.457 16.3242 32.4577 16.426 32.4586C16.5311 32.4583 16.6361 32.458 16.7412 32.4575C16.9611 32.457 17.1809 32.4577 17.4008 32.4595C17.6821 32.4616 17.9632 32.4604 18.2445 32.4582C18.4614 32.4568 18.6782 32.4572 18.8951 32.4582C18.9988 32.4584 19.1025 32.4581 19.2062 32.4573C19.3513 32.4563 19.4964 32.458 19.6415 32.4598C19.7651 32.4603 19.7651 32.4603 19.8913 32.4607C20.1848 32.5229 20.2973 32.6501 20.4848 32.879C20.5341 33.0645 20.5341 33.0645 20.5312 33.25C20.5327 33.3419 20.5327 33.3419 20.5341 33.4356C20.4625 33.7051 20.3258 33.8152 20.1137 33.9922C19.8913 34.0394 19.8913 34.0394 19.6415 34.0403C19.5007 34.042 19.5007 34.042 19.357 34.0438C19.2552 34.0431 19.1533 34.0424 19.0515 34.0415C18.9464 34.0418 18.8413 34.0421 18.7363 34.0426C18.5164 34.0431 18.2966 34.0424 18.0767 34.0406C17.7954 34.0385 17.5143 34.0397 17.233 34.0419C17.0161 34.0433 16.7992 34.0429 16.5824 34.0419C16.4787 34.0416 16.375 34.0419 16.2713 34.0428C16.1262 34.0438 15.9811 34.0421 15.836 34.0403C15.7124 34.0398 15.7124 34.0398 15.5862 34.0394C15.2927 33.9772 15.1802 33.85 14.9926 33.6211C14.9434 33.4356 14.9434 33.4356 14.9463 33.25C14.9453 33.1888 14.9443 33.1276 14.9434 33.0645C15.0655 32.6045 15.3928 32.4614 15.836 32.4598Z" fill="white"/>
<path d="M6.38298 28.3515C6.65543 28.5388 6.73616 28.661 6.8283 28.9777C6.8283 29.2816 6.77041 29.4344 6.60564 29.6875C6.30739 29.8863 6.06559 29.8876 5.71502 29.8359C5.50199 29.7028 5.38168 29.6145 5.2697 29.3906C5.22657 28.8644 5.22657 28.8644 5.40886 28.5788C5.69827 28.2979 5.99453 28.2932 6.38298 28.3515Z" fill="white"/>
<path d="M6.38298 24.1953C6.65543 24.3826 6.73616 24.5048 6.8283 24.8215C6.8283 25.1253 6.77041 25.2782 6.60564 25.5312C6.30739 25.73 6.06559 25.7313 5.71502 25.6796C5.50199 25.5465 5.38168 25.4583 5.2697 25.2343C5.22657 24.7082 5.22657 24.7082 5.40886 24.4226C5.69827 24.1417 5.99453 24.1369 6.38298 24.1953Z" fill="white"/>
<path d="M6.38298 20.039C6.65543 20.2263 6.73616 20.3485 6.8283 20.6652C6.8283 20.9691 6.77041 21.1219 6.60564 21.375C6.30739 21.5738 6.06559 21.5751 5.71502 21.5234C5.50199 21.3903 5.38168 21.302 5.2697 21.0781C5.22657 20.5519 5.22657 20.5519 5.40886 20.2663C5.69827 19.9854 5.99453 19.9807 6.38298 20.039Z" fill="white"/>
</g>
<defs>
<clipPath id="clip0_571_62">
<rect width="38" height="38" fill="white"/>
</clipPath>
</defs>
</svg>
