<svg width="24" height="25" viewBox="0 0 24 25" fill="none" xmlns="http://www.w3.org/2000/svg">
<path fill-rule="evenodd" clip-rule="evenodd" d="M10.8293 0.5C9.87089 0.500109 8.94786 0.86188 8.24464 1.51301C7.54142 2.16414 7.10982 3.05666 7.0361 4.0122H6.68956C5.63122 4.0122 4.77776 4.0122 4.0882 4.07424C3.37873 4.13863 2.75824 4.27561 2.19512 4.60107C1.52764 4.98614 0.97326 5.54011 0.587707 6.20732C0.263415 6.77044 0.126439 7.39093 0.0620487 8.10039C-2.98023e-08 8.78995 0 9.64341 0 10.7018V10.786C0 11.8444 -2.98023e-08 12.6979 0.0620487 13.3874C0.126439 14.0969 0.263415 14.7174 0.588878 15.2805C0.885073 15.7956 1.28312 16.2428 1.7561 16.5976V16.662C1.7561 18.2623 1.7561 19.5537 1.89307 20.5687C2.03356 21.6223 2.33795 22.5098 3.04156 23.2145C3.74634 23.9193 4.63376 24.2214 5.68741 24.3642C6.70244 24.5 7.99376 24.5 9.59415 24.5H14.4059C16.0062 24.5 17.2976 24.5 18.3126 24.3642C19.3662 24.2214 20.2537 23.9193 20.9584 23.2145C21.6632 22.5098 21.9653 21.6223 22.1081 20.5687C22.2439 19.5537 22.2439 18.2623 22.2439 16.662V16.5976C22.7183 16.2419 23.1158 15.7939 23.4123 15.2805C23.7366 14.7174 23.8736 14.0969 23.938 13.3874C24 12.6979 24 11.8444 24 10.786V10.7018C24 9.64341 24 8.78995 23.938 8.10039C23.8736 7.39093 23.7366 6.77044 23.4111 6.20732C23.0261 5.53983 22.4721 4.98545 21.8049 4.5999C21.2418 4.27561 20.6213 4.13863 19.9118 4.07424C19.2222 4.0122 18.3688 4.0122 17.3104 4.0122H16.9639C16.8902 3.05666 16.4586 2.16414 15.7554 1.51301C15.0521 0.86188 14.1291 0.500109 13.1707 0.5H10.8293ZM10.8293 2.2561C10.3366 2.25611 9.86047 2.43364 9.48806 2.75617C9.11566 3.07869 8.87194 3.5246 8.80156 4.0122H15.1984C15.1281 3.5246 14.8843 3.07869 14.5119 2.75617C14.1395 2.43364 13.6634 2.25611 13.1707 2.2561H10.8293ZM3.63278 20.3345C3.5321 19.5864 3.51571 18.6323 3.51219 17.3398C3.69834 17.3714 3.89034 17.3948 4.0882 17.4136C4.77776 17.4756 5.63122 17.4756 6.68956 17.4756H8.90224C9.09358 18.1499 9.49964 18.7433 10.0588 19.1659C10.618 19.5884 11.2997 19.817 12.0006 19.817C12.7015 19.817 13.3832 19.5884 13.9424 19.1659C14.5015 18.7433 14.9076 18.1499 15.0989 17.4756H17.3104C18.3688 17.4756 19.2222 17.4756 19.9118 17.4136C20.1108 17.3948 20.3017 17.3714 20.4878 17.3398C20.4843 18.6323 20.4679 19.5864 20.3672 20.3345C20.2513 21.1939 20.0394 21.6481 19.7163 21.9724C19.392 22.2967 18.9378 22.5074 18.0773 22.6233C17.1934 22.7416 16.0215 22.7439 14.3415 22.7439H9.65854C7.97854 22.7439 6.80546 22.7416 5.92156 22.6233C5.06224 22.5074 4.608 22.2955 4.28371 21.9724C3.95941 21.6481 3.74868 21.195 3.63278 20.3345ZM15.0989 15.7195H17.2683C18.3781 15.7195 19.1532 15.7195 19.7526 15.6645C20.3415 15.6106 20.6751 15.5123 20.9268 15.3671C21.3272 15.1353 21.6597 14.8028 21.8915 14.4024C22.0367 14.1507 22.135 13.8171 22.1889 13.2282C22.2427 12.6288 22.2439 11.8538 22.2439 10.7439C22.2439 9.63405 22.2439 8.85902 22.1889 8.25961C22.135 7.67073 22.0367 7.33707 21.8915 7.08537C21.6602 6.68467 21.3275 6.35195 20.9268 6.12068C20.6751 5.97551 20.3415 5.87717 19.7526 5.82332C19.1532 5.76946 18.3781 5.76829 17.2683 5.76829H6.73171C5.62185 5.76829 4.84683 5.76829 4.24741 5.82332C3.65854 5.87717 3.32488 5.97551 3.07317 6.12068C2.67247 6.35195 2.33975 6.68467 2.10849 7.08537C1.96332 7.33707 1.86498 7.67073 1.81112 8.25961C1.75727 8.85902 1.7561 9.63405 1.7561 10.7439C1.7561 11.8538 1.7561 12.6288 1.81112 13.2282C1.86498 13.8159 1.96332 14.1507 2.10849 14.4024C2.34029 14.8028 2.67278 15.1353 3.07317 15.3671C3.32488 15.5123 3.65854 15.6106 4.24741 15.6645C4.84683 15.7183 5.62185 15.7195 6.73171 15.7195H8.90224C9.09358 15.0453 9.49964 14.4518 10.0588 14.0293C10.618 13.6067 11.2997 13.3781 12.0006 13.3781C12.7015 13.3781 13.3832 13.6067 13.9424 14.0293C14.5015 14.4518 14.9076 15.0453 15.0989 15.7195ZM10.5366 16.5976C10.5366 16.2094 10.6908 15.8372 10.9652 15.5628C11.2397 15.2883 11.6119 15.1341 12 15.1341C12.3881 15.1341 12.7603 15.2883 13.0348 15.5628C13.3092 15.8372 13.4634 16.2094 13.4634 16.5976C13.4634 16.9857 13.3092 17.3579 13.0348 17.6324C12.7603 17.9068 12.3881 18.061 12 18.061C11.6119 18.061 11.2397 17.9068 10.9652 17.6324C10.6908 17.3579 10.5366 16.9857 10.5366 16.5976Z" fill="black"/>
</svg>
