<svg width="26" height="26" viewBox="0 0 26 26" fill="none" xmlns="http://www.w3.org/2000/svg">
<circle cx="13" cy="13" r="13" fill="#1E1E1E"/>
<path d="M17.8378 10.7343C17.9193 10.2724 17.6093 9.83856 17.146 9.76606L11.2153 8.83809C10.752 8.76559 10.3096 9.08172 10.228 9.54355C10.1465 10.0054 10.4565 10.4392 10.9198 10.5117L14.8288 11.1215L8.14201 15.8993C7.75623 16.175 7.66294 16.7033 7.93324 17.0816C8.20354 17.4599 8.7336 17.5428 9.11937 17.2672L15.804 12.4909L15.1185 16.3835C15.037 16.8453 15.347 17.2792 15.8103 17.3517C16.2737 17.4242 16.7161 17.108 16.7977 16.6462L17.8415 10.7348L17.8378 10.7343Z" fill="#F9FDF2"/>
</svg>
