<svg xmlns="http://www.w3.org/2000/svg" width="35" height="20" fill="none"><mask id="a" width="11" height="11" x="11.925" y="0" fill="#000" maskUnits="userSpaceOnUse"><path fill="#fff" d="M11.925 0h11v11h-11z"/><path d="M20.826 5.567q0 .15-.01.3l-.015.147c-.017.167.022-.137-.004.027-.032.207-.085.41-.15.609l-.047.134c-.01.027-.072.177-.008.027a4 4 0 0 1-.443.774c-.093.129.084-.104-.016.021q-.044.055-.09.108a4 4 0 0 1-.487.474l-.075.055a4 4 0 0 1-.736.415c.149-.065 0-.002-.027.008a4 4 0 0 1-.743.197c-.164.028.14-.015-.027.004a4 4 0 0 1-.943-.005c.167.02.003-.002-.027-.007a4 4 0 0 1-.605-.157q-.068-.023-.134-.05c-.151-.057.123.056-.025-.009a4 4 0 0 1-.768-.451c.128.095.002 0-.02-.018a4 4 0 0 1-.498-.492l-.089-.108c.105.13-.023-.036-.041-.061a4 4 0 0 1-.35-.612c-.012-.026-.073-.174-.011-.024a4 4 0 0 1-.24-.88c.026.166.001.002-.002-.028a4 4 0 0 1 0-.796c.003-.03.026-.195.002-.028q.011-.072.025-.144a4 4 0 0 1 .215-.736c-.06.15 0 .002.011-.024a4 4 0 0 1 .272-.495q.038-.06.078-.117c.018-.025.144-.193.041-.06a4 4 0 0 1 .587-.6c.021-.019.147-.116.02-.019a4 4 0 0 1 .768-.451c.147-.067-.125.05.025-.01a4 4 0 0 1 .596-.178q.072-.015.143-.028c.03-.005.194-.029.027-.007a4 4 0 0 1 .943-.005c.166.017-.137-.022.027.004q.072.012.144.026c.204.04.404.1.6.171.026.01.176.071.026.008q.064.027.129.058a4 4 0 0 1 .607.357c.023.016.15.113.022.014a4 4 0 0 1 .6.587c.019.021.116.147.018.02a4 4 0 0 1 .433.725c.012.026.073.175.011.024a4 4 0 0 1 .232.832c.028.164-.015-.14.004.027q.009.074.014.148.01.15.011.299a.633.633 0 0 0 .627.627c.34 0 .63-.285.627-.627-.01-1.759-1.045-3.426-2.659-4.155a4.64 4.64 0 0 0-5.023.788c-1.322 1.189-1.807 3.152-1.237 4.828.275.812.78 1.551 1.45 2.087.728.581 1.568.913 2.492 1.012 1.274.135 2.558-.345 3.501-1.193s1.469-2.106 1.476-3.367a.633.633 0 0 0-.627-.627.633.633 0 0 0-.627.627"/></mask><path fill="#000" d="M20.826 5.567q0 .15-.01.3l-.015.147c-.017.167.022-.137-.004.027-.032.207-.085.41-.15.609l-.047.134c-.01.027-.072.177-.008.027a4 4 0 0 1-.443.774c-.093.129.084-.104-.016.021q-.044.055-.09.108a4 4 0 0 1-.487.474l-.075.055a4 4 0 0 1-.736.415c.149-.065 0-.002-.027.008a4 4 0 0 1-.743.197c-.164.028.14-.015-.027.004a4 4 0 0 1-.943-.005c.167.02.003-.002-.027-.007a4 4 0 0 1-.605-.157q-.068-.023-.134-.05c-.151-.057.123.056-.025-.009a4 4 0 0 1-.768-.451c.128.095.002 0-.02-.018a4 4 0 0 1-.498-.492l-.089-.108c.105.13-.023-.036-.041-.061a4 4 0 0 1-.35-.612c-.012-.026-.073-.174-.011-.024a4 4 0 0 1-.24-.88c.026.166.001.002-.002-.028a4 4 0 0 1 0-.796c.003-.03.026-.195.002-.028q.011-.072.025-.144a4 4 0 0 1 .215-.736c-.06.15 0 .002.011-.024a4 4 0 0 1 .272-.495q.038-.06.078-.117c.018-.025.144-.193.041-.06a4 4 0 0 1 .587-.6c.021-.019.147-.116.02-.019a4 4 0 0 1 .768-.451c.147-.067-.125.05.025-.01a4 4 0 0 1 .596-.178q.072-.015.143-.028c.03-.005.194-.029.027-.007a4 4 0 0 1 .943-.005c.166.017-.137-.022.027.004q.072.012.144.026c.204.04.404.1.6.171.026.01.176.071.026.008q.064.027.129.058a4 4 0 0 1 .607.357c.023.016.15.113.022.014a4 4 0 0 1 .6.587c.019.021.116.147.018.02a4 4 0 0 1 .433.725c.012.026.073.175.011.024a4 4 0 0 1 .232.832c.028.164-.015-.14.004.027q.009.074.014.148.01.15.011.299a.633.633 0 0 0 .627.627c.34 0 .63-.285.627-.627-.01-1.759-1.045-3.426-2.659-4.155a4.64 4.64 0 0 0-5.023.788c-1.322 1.189-1.807 3.152-1.237 4.828.275.812.78 1.551 1.45 2.087.728.581 1.568.913 2.492 1.012 1.274.135 2.558-.345 3.501-1.193s1.469-2.106 1.476-3.367a.633.633 0 0 0-.627-.627.633.633 0 0 0-.627.627"/><path fill="#000" d="m20.815 5.866.2.014zm-.014.148-.199-.021zm-.004.027-.198-.03zm-.15.609-.19-.062zm-.047.134.187.07zm-.13.283.179.09zm-.32.518-.163-.117zm-.017.021-.156-.125zm-.09.108.152.13zm-.19.204-.143-.14zm-.206.191.132.15zm-.107.09.124.157.003-.002zm.016-.011.123.157-.243-.317zm-.075.055-.117-.163zm-.48.294-.093-.177zm-.256.121-.08-.183.16.366zm-.027.008.072.187zm-.18.062.062.19zm-.563.135.034.197zm-.027.004-.024-.198zm-.148.014-.016-.2zm-.35.011.002-.2zm-.298-.015-.017.2zm-.147-.015.024-.199-.049.397zm-.027-.007.034-.197zm-.605-.157.064-.19zm-.134-.05.071-.186zm-.025-.009-.08.183zm-.255-.124-.093.177zm-.514-.327.12-.161-.239.321zm-.02-.018-.127.154h.001zm-.106-.091.133-.15zm-.202-.194.142-.14zm-.189-.207-.152.13zm-.089-.108.157-.125-.313.25zm-.041-.061-.163.115zm-.288-.484-.179.09zm-.062-.128-.181.085zm-.011-.024-.186.076.37-.152zm-.111-.315.19-.06zm-.129-.565.198-.03-.395.061zm-.002-.028-.199.02v.001zm-.012-.148.2-.012v-.002zm-.006-.35-.2-.004zm.018-.298.2.019zm.002-.028L14 5.112l.396.057zm.025-.144.196.036zm.164-.603-.189-.066zm.05-.133.187.073-.372-.146zm.012-.024-.182-.083zm.127-.253.176.095zm.145-.242-.169-.107zm.078-.117-.165-.113zm.041-.06-.157-.123.315.245zm.377-.415.14.144zm.21-.186-.129-.153zm.02-.018-.121-.159.242.319zm.152-.108.113.164zm.487-.283-.088-.18zm.129-.06.08.183h.002zm.025-.01.073.186zm.316-.107-.057-.192zm.28-.071-.043-.195zm.143-.028.036.197zm.027-.007-.026-.198.052.397zm.646-.028-.006.2zm.297.023.021-.2zm.027.004-.03.198zm.144.026-.038.196zm.6.171.068-.187zm.026.008.078-.184-.156.368zm.129.058-.085.182zm.251.13.097-.174zm.24.147-.11.168zm.116.08.115-.163zm.022.014.123-.157-.246.315zm.415.377-.144.14zm.186.21.153-.129zm.017.02.16-.121-.319.242zm.083.113-.164.116zm.288.484-.178.091zm.061.128-.18.084zm.012.024.185-.076-.37.152zm.097.269-.19.062zm.135.563.197-.034zm.004.027L21 5.097zm.014.148.2-.017zm1.265.299-.2.001zm-2.659-4.155.082-.182zm-5.023.788-.134-.149zM13.16 7.028l-.19.064zm1.45 2.087-.124.157zm2.492 1.012.021-.2zm3.501-1.193-.134-.149zm1.476-3.367-.2-.001zm-1.454-.001q0 .143-.01.287l.399.027a5 5 0 0 0 .011-.312zm-.01.287-.014.14.398.042.015-.155zm-.014.14-.004.046v.009l-.001.01v.025q0 .005.002.011a.2.2 0 0 0 .03.081c.007.01.024.03.035.04a.4.4 0 0 0 .073.042.4.4 0 0 0 .097.005.4.4 0 0 0 .07-.028l.037-.03.029-.038a.2.2 0 0 0 .018-.04l.002-.01.002-.007.001-.007.002-.008.006-.04q0-.015.003-.029l.001-.014.001-.018v-.019l-.002-.01a.2.2 0 0 0-.052-.11.4.4 0 0 0-.044-.036.4.4 0 0 0-.071-.025.4.4 0 0 0-.076.003.4.4 0 0 0-.055.022l-.034.024-.03.035a.2.2 0 0 0-.03.065l-.003.013-.002.008-.008.047.395.062.007-.037v.002l-.002.005a.2.2 0 0 1-.06.098l-.033.024a.4.4 0 0 1-.055.022.4.4 0 0 1-.076.002.4.4 0 0 1-.07-.025.4.4 0 0 1-.046-.036l-.023-.032a.2.2 0 0 1-.03-.087V5.98v.003l-.002.02-.003.02v.005-.003l.001-.005a.2.2 0 0 1 .032-.07l.018-.023.037-.03a.4.4 0 0 1 .07-.028.4.4 0 0 1 .097.006.4.4 0 0 1 .073.04l.035.041.016.03a.2.2 0 0 1 .016.062v.026L21 6.034zm-.003.017q-.047.291-.142.578l.38.124q.104-.31.157-.64zm-.142.578-.045.127.375.138q.025-.067.05-.141zm-.045.127-.03.076-.007.02-.002.005a.2.2 0 0 0-.01.066c0 .008.002.043.02.082.011.02.045.06.068.078a.4.4 0 0 0 .124.034c.066-.003.108-.038.115-.045a.2.2 0 0 0 .038-.04l.012-.02.004-.008.003-.006.03-.068-.37-.156-.017.042-.005.011-.002.004.001-.002.003-.006.012-.019c0-.001.014-.022.038-.041.007-.006.05-.041.115-.045a.4.4 0 0 1 .124.034.4.4 0 0 1 .068.079.194.194 0 0 1 .01.147l-.001.004.002-.004c.006-.017.027-.068.032-.084zm-.004.018a4 4 0 0 1-.115.243l.356.182q.067-.129.127-.27zm-.115.243q-.132.254-.306.492l.324.234c.124-.17.24-.352.338-.544zm-.306.492-.03.043-.007.01-.006.011-.006.013-.01.031-.007.04c0 .007 0 .025.002.035.002.012.009.04.015.054.008.017.031.05.046.066a.4.4 0 0 0 .076.045c.019.005.053.01.068.01l.044-.007.045-.018a.2.2 0 0 0 .037-.027l.008-.007.005-.005.005-.006.014-.016.045-.06.004-.007.003-.005.005-.01.004-.007a.2.2 0 0 0 .015-.051l.003-.027-.004-.043a.4.4 0 0 0-.024-.064.4.4 0 0 0-.063-.066.4.4 0 0 0-.08-.03.4.4 0 0 0-.059 0 .4.4 0 0 0-.057.018l-.04.026a.2.2 0 0 0-.033.032l-.028.035.313.25.022-.028v-.001.001l-.003.003-.008.008-.01.008-.026.019a.2.2 0 0 1-.071.025.4.4 0 0 1-.059 0 .4.4 0 0 1-.08-.03.4.4 0 0 1-.063-.066.4.4 0 0 1-.024-.064l-.003-.043.006-.045a.2.2 0 0 1 .026-.058v-.002h.001l-.002.002-.012.016-.012.015-.002.003.002-.002.005-.005.011-.011a.2.2 0 0 1 .055-.035l.027-.01.044-.006c.015 0 .05.005.068.01.02.007.058.03.076.044a.4.4 0 0 1 .046.066.4.4 0 0 1 .015.055l.002.035a.2.2 0 0 1-.023.082l-.005.01-.002.004-.001.001.021-.03zm-.01.013q-.04.05-.086.102l.304.26q.046-.051.095-.112zm-.086.102q-.085.098-.181.195l.284.281q.103-.102.201-.215zm-.181.195a4 4 0 0 1-.195.181l.264.3q.109-.093.215-.2zm-.195.181-.102.086.254.31.112-.095zm-.1.084-.03.024-.008.006-.003.003-.002.002-.007.006-.01.01-.012.015c-.001.002-.02.025-.03.059a.4.4 0 0 0 .001.127c.026.05.101.114.143.129a.4.4 0 0 0 .084.001l.031-.008c.02-.007.033-.016.033-.016l.012-.008.004-.003c.007-.004.029-.022.059-.045l-.247-.315-.047.037.003-.002.012-.008s.014-.009.033-.016l.031-.009a.4.4 0 0 1 .084.002c.042.015.117.08.143.128.01.04.007.105.002.128-.011.034-.03.057-.031.059l-.022.025-.006.005-.002.002-.002.001h.001l.003-.003.03-.023zm.021-.015-.072.052.233.326.08-.059zm-.073.053a4 4 0 0 1-.455.279l.186.354q.26-.134.504-.31zm-.455.279q-.117.06-.244.115l.16.366q.135-.057.27-.127zm-.083.481.083-.038s.01-.005.021-.013c.002-.002.022-.016.04-.04a.2.2 0 0 0 .04-.105.4.4 0 0 0-.021-.108.4.4 0 0 0-.07-.076.2.2 0 0 0-.175-.02l-.02.007-.076.03.143.375.082-.034q.009-.003.003 0h-.006l-.015.005a.2.2 0 0 1-.152-.027.4.4 0 0 1-.07-.076.4.4 0 0 1-.021-.109.2.2 0 0 1 .04-.104c.018-.024.038-.038.04-.04.01-.008.02-.013.02-.013l.007-.004h.002l.001-.001-.004.002-.01.005-.043.018zm-.178-.362q-.08.03-.171.059l.124.38q.091-.029.19-.065zm-.171.059q-.258.083-.534.128l.067.394q.297-.048.591-.142zm-.534.128-.082.017a.2.2 0 0 0-.063.035l-.02.02-.024.032a.3.3 0 0 0-.023.057.4.4 0 0 0-.002.08c.004.02.019.057.028.074a.4.4 0 0 0 .039.044l.032.022.04.017a.2.2 0 0 0 .095.006l.102-.018a.2.2 0 0 0 .058-.032l.022-.02.029-.038a.4.4 0 0 0 .024-.069.4.4 0 0 0-.007-.092.4.4 0 0 0-.04-.07.4.4 0 0 0-.04-.035.4.4 0 0 0-.049-.024l-.045-.01a.2.2 0 0 0-.045.002q-.015 0-.047.005l.047.397.038-.004h.002-.006a.2.2 0 0 1-.053-.006.2.2 0 0 1-.104-.063.4.4 0 0 1-.039-.07.4.4 0 0 1-.007-.092.4.4 0 0 1 .024-.07l.029-.037.038-.031a.2.2 0 0 1 .042-.02l.015-.005h.006l.002-.001h-.003l-.04.006h-.005.027a.2.2 0 0 1 .156.092.4.4 0 0 1 .029.073c.002.02.001.06-.003.08a.4.4 0 0 1-.022.057l-.025.033a.2.2 0 0 1-.1.059q-.002 0 0 0l.037-.007zm-.018.003-.14.013.033.399.154-.015zm-.14.013a4 4 0 0 1-.332.01l-.003.4c.12 0 .243-.001.368-.011zm-.332.01a4 4 0 0 1-.284-.014l-.032.399q.153.013.313.015zm-.283-.014-.139-.015-.05.397q.078.01.155.016zm-.187.382.075.009h.035c.003 0 .02 0 .04-.006a.2.2 0 0 0 .143-.23c-.013-.074-.063-.113-.072-.12a.2.2 0 0 0-.065-.034l-.016-.005h-.007l-.02-.004-.083-.012-.067.394.091.013q.01.002.004 0h-.005l-.016-.004a.2.2 0 0 1-.064-.034.2.2 0 0 1 .07-.35c.021-.006.038-.007.04-.007h.028-.005q-.005 0-.012-.002l-.047-.005zm.03-.402a4 4 0 0 1-.575-.15l-.128.38c.205.069.417.127.636.164zm-.575-.15-.127-.046-.142.374q.067.025.14.051zm-.127-.046-.043-.016-.008-.003a.2.2 0 0 0-.055-.01.2.2 0 0 0-.14.044.4.4 0 0 0-.046.056.4.4 0 0 0-.025.076.4.4 0 0 0 .004.066c.003.012.01.034.015.044l.028.043a.2.2 0 0 0 .048.041l.007.004.028.014.025.01.026.01.011.005.008.003.007.002q.002 0 .005.002l.01.002a.2.2 0 0 0 .057.004l.026-.003.04-.012a.4.4 0 0 0 .057-.038.4.4 0 0 0 .053-.081.4.4 0 0 0 .01-.091.4.4 0 0 0-.017-.059.4.4 0 0 0-.034-.05l-.034-.03-.021-.012-.01-.005-.007-.004-.041-.018-.16.366.033.015h.002-.002l-.003-.001-.028-.019a.2.2 0 0 1-.058-.073.4.4 0 0 1-.017-.058.4.4 0 0 1 .009-.091.4.4 0 0 1 .053-.081.4.4 0 0 1 .057-.038l.04-.012.043-.004a.2.2 0 0 1 .04.005l.014.003.007.003-.004-.002-.036-.015-.003-.001.004.002.006.003.015.01.02.015a.2.2 0 0 1 .061.105.4.4 0 0 1 .003.067.4.4 0 0 1-.024.076.4.4 0 0 1-.047.055l-.045.028-.033.012a.2.2 0 0 1-.101-.001l-.005-.002h-.002.001l.034.013zm-.016-.006a4 4 0 0 1-.242-.118l-.186.354q.129.069.268.13zm-.242-.118a4 4 0 0 1-.487-.311l-.239.321q.255.19.54.344zm-.726.01.057.042.005.003.015.01c.001 0 .013.007.029.013.001.001.033.014.076.013a.4.4 0 0 0 .133-.055.35.35 0 0 0 .06-.165.4.4 0 0 0-.02-.07.4.4 0 0 0-.03-.044.2.2 0 0 0-.037-.032l-.053-.041-.006-.005-.002-.002-.254.31.07.055.006.004-.002-.002-.018-.018a.2.2 0 0 1-.031-.045.4.4 0 0 1-.02-.07c0-.037.027-.123.06-.164a.4.4 0 0 1 .133-.056c.043 0 .075.013.076.013q.025.01.028.014c.012.006.022.014.015.009l-.051-.038zm.227-.332-.1-.087-.267.3.112.095zm-.102-.088a4 4 0 0 1-.192-.183l-.285.28a4 4 0 0 0 .213.204zm-.192-.183a4 4 0 0 1-.18-.197l-.303.26a4 4 0 0 0 .198.218zm-.18-.197-.083-.103-.313.25q.043.054.093.113zm-.396.146.03.038.025.028.021.019c.004.002.022.017.05.027a.2.2 0 0 0 .264-.24l-.012-.032-.01-.019-.011-.016-.015-.02-.038-.052-.017-.022-.006-.008-.003-.004-.326.231c.01.015.052.07.07.093l.009.013-.006-.008-.01-.018q-.003-.007-.011-.032a.2.2 0 0 1 .264-.24c.027.01.046.025.05.027l.02.018c.007.008.012.014.002.002l-.027-.034zm.278-.3a4 4 0 0 1-.273-.46l-.357.182q.133.261.304.508zm-.273-.46q-.029-.057-.059-.121l-.362.169.064.134zm-.059-.121V6.81l-.004-.007-.008-.02-.018-.042-.005-.012-.003-.006-.003-.006-.004-.009-.007-.011-.025-.03c-.028-.025-.172-.058-.275-.01a.4.4 0 0 0-.067.166l.007.039.004.012.002.005v.002l.002.003.026.065.37-.152-.025-.062.002.005.004.012.007.038c0 .021-.023.11-.067.167-.102.047-.247.014-.275-.01a.4.4 0 0 1-.036-.05l-.003-.006-.001-.004v.003l.003.006.037.086zm-.007-.016a4 4 0 0 1-.106-.298l-.381.12q.05.163.116.33zm-.106-.298a4 4 0 0 1-.121-.537L14 6.024q.043.299.135.594zM14 6.024l.012.078.001.004.003.012a.2.2 0 0 0 .02.05c.006.01.025.032.038.046.027.02.11.05.166.05a.35.35 0 0 0 .142-.097.4.4 0 0 0 .022-.055l.005-.044v-.014l-.001-.008v-.004l-.003-.017-.003-.022-.003-.025-.003-.023-.002-.008v-.003l-.398.042.013.094.001.008v-.01l-.001-.014a.2.2 0 0 1 .005-.044.4.4 0 0 1 .022-.054.35.35 0 0 1 .142-.097c.056-.001.14.03.166.05a.4.4 0 0 1 .037.046.3.3 0 0 1 .021.05l.004.014-.011-.067zm.394-.079-.011-.14-.4.024.013.156zm-.011-.142a4 4 0 0 1-.006-.333l-.4-.007q-.005.18.007.368zm-.006-.333q.003-.138.017-.282l-.398-.038a4 4 0 0 0-.02.313zm.017-.282v-.003l.002-.008.01-.086.002-.009v-.024l-.002-.017-.01-.04a.36.36 0 0 0-.118-.121.34.34 0 0 0-.219.054.4.4 0 0 0-.032.048l-.014.041-.002.01v.003l-.001.004-.01.072.395.057.01-.068-.002.01a.2.2 0 0 1-.014.042.4.4 0 0 1-.032.048.34.34 0 0 1-.219.054.36.36 0 0 1-.118-.12.4.4 0 0 1-.012-.058v-.024l.001-.006v-.001.002l-.001.007-.012.095zm.001-.019.023-.136-.393-.072-.026.151zm.023-.136q.056-.289.156-.572l-.377-.133a4 4 0 0 0-.172.633zm.156-.572q.022-.06.049-.127l-.372-.146-.054.14zm-.323-.273-.026.065-.002.004v.003l-.003.008-.005.018-.004.05a.4.4 0 0 0 .055.13c.068.046.2.054.246.034a.4.4 0 0 0 .052-.044l.022-.032.005-.01.003-.006v-.003l.007-.014.017-.042.008-.02.003-.007.002-.003-.365-.164-.035.084-.003.007v.002-.001l.002-.006.005-.01a.2.2 0 0 1 .022-.032.4.4 0 0 1 .051-.043.34.34 0 0 1 .247.034.4.4 0 0 1 .055.13l-.004.05-.005.017-.003.01.025-.063zm.38.131q.053-.12.12-.24l-.351-.19a4 4 0 0 0-.134.265zm.12-.24q.063-.114.137-.23l-.337-.214q-.079.12-.152.254zm.137-.23.075-.11-.33-.227-.082.123zm.075-.11.002-.003.022-.03.038-.052.014-.02.01-.013.008-.015q.004-.006.011-.026l.01-.037c0-.011.008-.058-.017-.112a.4.4 0 0 0-.077-.087.4.4 0 0 0-.102-.03.2.2 0 0 0-.091.021.188.188 0 0 0-.058.043l-.051.064.315.245.028-.035-.016.015c-.002.001-.018.015-.041.027a.2.2 0 0 1-.092.02.4.4 0 0 1-.101-.03.4.4 0 0 1-.078-.086.2.2 0 0 1-.007-.15l.011-.025.008-.014.004-.006-.01.014-.07.095zm.034-.052a4 4 0 0 1 .358-.393l-.278-.288q-.21.201-.395.436zm.358-.393q.094-.09.199-.176l-.257-.307a4 4 0 0 0-.22.196zm.199-.176.002-.002.006-.005.017-.014.036-.028.021-.017.01-.009a.2.2 0 0 0 .025-.032.4.4 0 0 0 .023-.05.35.35 0 0 0-.033-.178.35.35 0 0 0-.165-.08.4.4 0 0 0-.055.01l-.044.02-.01.007-.003.002-.004.003-.056.042.243.319.051-.04a.196.196 0 0 1-.11.037.35.35 0 0 1-.165-.078.35.35 0 0 1-.033-.178.4.4 0 0 1 .023-.05l.025-.032.01-.01.005-.004.002-.001q0-.001-.007.005c-.015.012-.057.044-.07.056zm.013-.012q.068-.051.144-.104l-.227-.33a4 4 0 0 0-.16.115zm.144-.104q.22-.149.463-.268l-.178-.358a4 4 0 0 0-.512.297zm.462-.267q.06-.03.122-.057l-.163-.366-.135.063zm.123-.058q.028-.012.04-.019.005 0 .008-.003l.037-.023a.2.2 0 0 0 .076-.13.4.4 0 0 0-.01-.095.4.4 0 0 0-.057-.085.4.4 0 0 0-.06-.036l-.04-.01-.042-.002a.2.2 0 0 0-.059.012l-.007.003-.061.026-.013.006-.009.004-.025.016-.008.006a.2.2 0 0 0-.057.075l-.014.044a.4.4 0 0 0-.001.064.4.4 0 0 0 .024.072c.01.016.033.043.046.054l.043.028a.4.4 0 0 0 .058.017l.04.001a.2.2 0 0 0 .043-.007l.013-.004.008-.003.044-.017-.147-.372-.034.013.02-.005a.2.2 0 0 1 .05-.004.2.2 0 0 1 .119.047.4.4 0 0 1 .045.053.4.4 0 0 1 .024.073.2.2 0 0 1-.096.199l-.006.003-.004.002.003-.001.036-.016.003-.001h.001-.002l-.018.006a.2.2 0 0 1-.078.003l-.04-.01a.4.4 0 0 1-.06-.036.4.4 0 0 1-.059-.085.4.4 0 0 1-.009-.096.4.4 0 0 1 .018-.058.4.4 0 0 1 .033-.048.3.3 0 0 1 .042-.035l.013-.007-.002.001-.034.016zm.017-.006q.144-.055.3-.102l-.115-.383q-.166.049-.332.113zm.3-.101q.128-.038.266-.068l-.087-.39a4 4 0 0 0-.294.074zm.265-.068q.065-.014.136-.026l-.072-.394q-.071.013-.15.03zm.136-.026h.004l.008-.002.023-.004.047-.007.04-.008a.2.2 0 0 0 .054-.025c.005-.004.055-.035.078-.101a.4.4 0 0 0-.005-.144.4.4 0 0 0-.068-.084c-.033-.024-.065-.031-.071-.033-.02-.004-.036-.005-.039-.005h-.018l-.013.002q-.014 0-.075.01l.052.396.066-.009c.01 0-.007.002-.025.001-.002 0-.018 0-.038-.005-.006-.001-.038-.008-.072-.032a.4.4 0 0 1-.067-.085.4.4 0 0 1-.005-.143.2.2 0 0 1 .15-.13h-.006l-.091.014zm.017-.005c.201-.027.407-.033.614-.027l.013-.4c-.224-.006-.452 0-.679.03zm.614-.027q.137.005.282.021l.042-.397q-.15-.018-.312-.023zm.282.021.077.006a.2.2 0 0 0 .145-.067.4.4 0 0 0 .041-.072.4.4 0 0 0 .006-.097.4.4 0 0 0-.028-.07l-.03-.038-.038-.029a.2.2 0 0 0-.085-.027l-.095-.01a.2.2 0 0 0-.131.054.4.4 0 0 0-.036.045.4.4 0 0 0-.026.07c-.002.02 0 .058.003.076a.4.4 0 0 0 .021.056c.006.01.018.026.024.033l.036.032a.2.2 0 0 0 .086.034l.047.008.062-.396-.037-.006h.002l.005.002a.2.2 0 0 1 .062.029.2.2 0 0 1 .06.064c.006.012.017.04.022.056a.4.4 0 0 1 .002.076.4.4 0 0 1-.026.07.4.4 0 0 1-.036.045l-.03.023a.2.2 0 0 1-.112.03h-.004.003l.04.005h.005-.003l-.005-.001-.015-.004a.2.2 0 0 1-.108-.084.4.4 0 0 1-.028-.07.4.4 0 0 1 .006-.097.4.4 0 0 1 .04-.072c.011-.011.032-.029.041-.035l.03-.016a.2.2 0 0 1 .087-.016h.002-.002l-.038-.004zm.017.004q.065.01.137.024l.076-.392q-.071-.015-.15-.028zm.137.024q.286.058.568.163l.138-.375a4 4 0 0 0-.63-.18zm.568.163.076.03.019.007a.2.2 0 0 0 .072.011c.008 0 .043 0 .082-.02a.4.4 0 0 0 .08-.07.4.4 0 0 0 .032-.124c-.005-.065-.04-.106-.046-.113-.019-.023-.039-.037-.04-.038l-.02-.012-.007-.003-.006-.003-.068-.03-.156.37.042.017.011.005.004.001h-.002l-.006-.003-.019-.012c-.001 0-.021-.014-.04-.037-.006-.007-.041-.048-.046-.113a.4.4 0 0 1 .032-.125.4.4 0 0 1 .08-.07.201.201 0 0 1 .134-.015l.013.005.005.001-.004-.002c-.017-.006-.068-.027-.084-.032zm.018.004q.06.025.122.056l.17-.363-.136-.061zm.122.056q.119.055.239.123l.194-.35a4 4 0 0 0-.264-.136zm.239.123q.112.064.228.14l.219-.335a4 4 0 0 0-.253-.154zm.228.14.11.075.23-.326-.121-.084zm.11.075v.001l.002.001.006.005.018.013.037.028.014.01.004.003.01.006q.002.002.015.008l.023.01c.003 0 .04.014.086.009a.4.4 0 0 0 .124-.062.35.35 0 0 0 .054-.147c-.003-.056-.03-.095-.031-.097l-.025-.031-.012-.012-.004-.003-.004-.004-.057-.044-.246.315.05.04c.008.005-.005-.004-.015-.015-.001-.001-.013-.013-.025-.031 0-.002-.028-.041-.03-.098a.35.35 0 0 1 .053-.146.4.4 0 0 1 .124-.062c.047-.006.083.008.086.009a.2.2 0 0 1 .05.025l-.005-.004-.072-.053zm.014.01q.207.162.394.357l.287-.277a4 4 0 0 0-.435-.396zm.394.357q.09.095.176.2l.307-.258a4 4 0 0 0-.196-.22zm.176.2q.002 0 .002.002l.018.023.028.035.01.013.002.002.005.006.01.01.03.024a.4.4 0 0 0 .05.023.35.35 0 0 0 .183-.034.35.35 0 0 0 .076-.166.4.4 0 0 0-.01-.054l-.008-.02-.012-.022-.006-.01-.002-.003-.003-.003-.042-.056-.319.242.04.052-.008-.011a.2.2 0 0 1-.03-.097.35.35 0 0 1 .076-.166.35.35 0 0 1 .182-.034.4.4 0 0 1 .05.023l.032.025.008.009.005.005.001.002q.001 0-.005-.007c-.012-.015-.044-.057-.056-.07zm.012.012q.038.051.078.108l.327-.23-.086-.12zm.078.108q.152.216.274.46l.356-.183a4 4 0 0 0-.303-.508zm.274.46q.029.055.058.12l.363-.169-.065-.134zm.058.12.001.003.003.007.009.02.018.042.005.012.002.006.003.005.01.02.024.03c.028.024.177.059.284.006a.4.4 0 0 0 .06-.165l-.007-.036-.004-.011-.002-.005v-.002l-.002-.003-.026-.065-.37.152.026.062-.002-.004-.004-.011-.002-.01-.005-.026a.4.4 0 0 1 .06-.165c.107-.053.256-.018.284.006l.024.03.006.011.004.008.003.006.001.003v-.003q-.002-.002-.004-.006l-.036-.086zm.008.016q.049.122.092.255l.38-.124a4 4 0 0 0-.102-.283zm.092.255q.083.258.128.534l.394-.067a4 4 0 0 0-.142-.591zm.128.534.017.082a.2.2 0 0 0 .054.083l.033.024c.012.007.041.019.057.023.02.004.06.005.08.002a.4.4 0 0 0 .073-.028.4.4 0 0 0 .045-.039l.022-.032.017-.04.007-.037.001-.009V5.12l-.002-.013-.012-.078q0-.002-.002-.007l-.001-.006-.004-.01-.003-.009a.2.2 0 0 0-.016-.034l-.032-.038-.038-.029a.4.4 0 0 0-.07-.024.4.4 0 0 0-.091.007.4.4 0 0 0-.07.04l-.035.04a.4.4 0 0 0-.024.049l-.008.033-.001.012-.001.013v.024l.001.008.006.047.397-.048-.004-.037v-.002.029l-.002.011-.004.019a.2.2 0 0 1-.063.103.4.4 0 0 1-.07.04.4.4 0 0 1-.092.007.4.4 0 0 1-.07-.024l-.037-.029-.032-.038a.2.2 0 0 1-.02-.042l-.004-.015-.001-.006V5.11v.003l.003.02.003.02v.005-.027q0-.006.003-.023a.2.2 0 0 1 .022-.062l.022-.032a.4.4 0 0 1 .045-.04.4.4 0 0 1 .073-.028.4.4 0 0 1 .08.002.4.4 0 0 1 .057.023.197.197 0 0 1 .09.119l.001.005v.002-.001l-.006-.037zm.003.018.013.14.398-.033L21 5.097zm.013.14q.01.137.01.284l.4-.002q0-.154-.012-.315zm.01.284c.003.45.372.826.827.826v-.4a.433.433 0 0 1-.427-.428zm.827.826c.45 0 .83-.374.827-.828l-.4.002a.433.433 0 0 1-.427.426zm.827-.828c-.011-1.834-1.089-3.574-2.777-4.336l-.164.364c1.539.695 2.53 2.29 2.541 3.974zM19.503 1.23a4.84 4.84 0 0 0-5.239.821l.268.298a4.44 4.44 0 0 1 4.807-.755zm-5.239.821c-1.383 1.244-1.887 3.292-1.293 5.041l.379-.128c-.544-1.602-.08-3.481 1.181-4.615zm-1.293 5.041a4.76 4.76 0 0 0 1.516 2.18l.25-.313a4.36 4.36 0 0 1-1.387-1.995zm1.516 2.18a4.9 4.9 0 0 0 2.595 1.054l.042-.398a4.5 4.5 0 0 1-2.388-.969zm2.595 1.054c1.337.142 2.676-.362 3.656-1.243l-.268-.298c-.905.815-2.134 1.272-3.346 1.143zm3.656-1.243c.988-.89 1.534-2.202 1.542-3.515l-.4-.002c-.007 1.208-.511 2.411-1.41 3.22zm1.542-3.515a.833.833 0 0 0-.827-.828v.4c.232 0 .429.197.427.426zm-.827-.828a.833.833 0 0 0-.827.826l.4.002a.433.433 0 0 1 .427-.428z" mask="url(#a)"/><mask id="b" width="24" height="15" x="8.756" y="4.866" fill="#000" maskUnits="userSpaceOnUse"><path fill="#fff" d="M8.756 4.866h24v15h-24z"/><path d="M22.028 9.989q.132.084.259.175c.017.012.154.118.039.027a5 5 0 0 1 .604.568q.105.116.2.238c-.09-.115.016.022.028.039a4.7 4.7 0 0 1 .495.857c.073.16-.047-.119.02.044a5 5 0 0 1 .272.975c.004.021.03.2.01.048q.01.083.017.164.014.165.019.33v3.369c0 .04 0 .06-.002.101-.009.167.026-.133-.003.029a2 2 0 0 1-.035.141c-.008.028-.066.179-.003.03a1.5 1.5 0 0 1-.138.247c-.088.132.085-.099-.018.021q-.061.07-.132.133c-.117.107.108-.074-.022.018q-.058.04-.12.074-.061.035-.127.064c.145-.067 0-.007-.03.003q-.07.02-.14.034c-.162.035.137-.01-.03.003q-.052.004-.104.004H11.911c-.044 0-.056-.001-.1-.004-.167-.008.133.027-.029-.003q-.072-.013-.141-.034l-.091-.03.018.007a1.5 1.5 0 0 1-.243-.146c.128.091.006 0-.017-.022q-.051-.048-.098-.1c-.107-.118.074.107-.018-.022a2 2 0 0 1-.074-.12q-.035-.062-.064-.127c.07.15-.006-.043-.016-.076a2 2 0 0 1-.03-.143c.029.162.005.001.003-.03v-3.138c0-.168 0-.336.01-.504l.014-.165c.002-.02.027-.202.005-.05a4.8 4.8 0 0 1 .253-.984q.028-.075.058-.148a4.829 4.829 0 0 1 .527-.896c.102-.14-.08.098.029-.038q.049-.06.1-.12a5 5 0 0 1 .554-.546c.02-.017.194-.155.076-.064q.146-.11.299-.209c.286-.186.404-.552.225-.858-.166-.284-.571-.412-.858-.225-1.569 1.021-2.547 2.765-2.547 4.645v2.773c0 .525.013 1.006.256 1.494.352.707 1.143 1.137 1.918 1.137h11.153c.911 0 1.705-.575 2.03-1.416.163-.422.133-.88.133-1.324v-2.673c0-.97-.264-1.931-.75-2.77a5.6 5.6 0 0 0-1.835-1.89c-.288-.184-.69-.061-.858.225-.177.304-.062.674.225.858m8.656-.935q0 .149-.017.297c.018-.167-.001-.005-.007.025q-.014.072-.031.141a3 3 0 0 1-.085.273c-.056.152.056-.122-.01.025a2.6 2.6 0 0 1-.234.405c-.09.13.085-.103-.015.021a2.5 2.5 0 0 1-.29.301q-.051.046-.107.09c.13-.105-.035.02-.062.037a2.6 2.6 0 0 1-.371.201c.148-.066.002-.003-.026.007q-.135.047-.275.08-.071.016-.142.029l.022-.002a3 3 0 0 1-.397.015q-.075-.003-.148-.01c-.166-.014.137.023-.027-.003a2.6 2.6 0 0 1-.506-.143l.02.008a2.6 2.6 0 0 1-.366-.207c-.024-.016-.151-.111-.024-.012-.16-.124-.3-.27-.427-.427.101.125.005 0-.012-.024a2.5 2.5 0 0 1-.207-.366c-.069-.145.048.126-.01-.025q-.024-.067-.046-.134a3 3 0 0 1-.079-.327c-.03-.163.014.139-.003-.027a2.5 2.5 0 0 1-.005-.447c.003-.03.024-.195 0-.028q.011-.072.027-.143.034-.164.09-.322c.01-.027.07-.176.007-.026a2.5 2.5 0 0 1 .28-.486c-.093.13-.002.004.017-.019a2.6 2.6 0 0 1 .315-.313 2.6 2.6 0 0 1 .486-.28c-.154.07.04-.011.071-.022.121-.042.246-.07.372-.094.163-.03-.139.014.027-.003a2.6 2.6 0 0 1 .545.005c-.167-.018-.005.001.026.007a2.5 2.5 0 0 1 .458.133l-.02-.007a2.6 2.6 0 0 1 .405.234q.083.06-.015-.015a2.6 2.6 0 0 1 .427.427c-.105-.13.02.035.038.062q.089.138.161.286c.013.026.074.173.013.022a2.6 2.6 0 0 1 .14.484 3 3 0 0 1 .017.297.634.634 0 0 0 .627.627c.34 0 .63-.285.627-.627a3.23 3.23 0 0 0-1.091-2.406c-.75-.649-1.699-.883-2.67-.743-.894.128-1.685.719-2.164 1.467-.496.775-.605 1.79-.324 2.662a3.27 3.27 0 0 0 1.366 1.743c.67.43 1.468.537 2.242.426 1.522-.219 2.627-1.653 2.641-3.15a.63.63 0 0 0-.627-.626.634.634 0 0 0-.627.627"/></mask><path fill="#000" d="M22.028 9.989q.132.084.259.175c.017.012.154.118.039.027a5 5 0 0 1 .604.568q.105.116.2.238c-.09-.115.016.022.028.039a4.7 4.7 0 0 1 .495.857c.073.16-.047-.119.02.044a5 5 0 0 1 .272.975c.004.021.03.2.01.048q.01.083.017.164.014.165.019.33v3.369c0 .04 0 .06-.002.101-.009.167.026-.133-.003.029a2 2 0 0 1-.035.141c-.008.028-.066.179-.003.03a1.5 1.5 0 0 1-.138.247c-.088.132.085-.099-.018.021q-.061.07-.132.133c-.117.107.108-.074-.022.018q-.058.04-.12.074-.061.035-.127.064c.145-.067 0-.007-.03.003q-.07.02-.14.034c-.162.035.137-.01-.03.003q-.052.004-.104.004H11.911c-.044 0-.056-.001-.1-.004-.167-.008.133.027-.029-.003q-.072-.013-.141-.034l-.091-.03.018.007a1.5 1.5 0 0 1-.243-.146c.128.091.006 0-.017-.022q-.051-.048-.098-.1c-.107-.118.074.107-.018-.022a2 2 0 0 1-.074-.12q-.035-.062-.064-.127c.07.15-.006-.043-.016-.076a2 2 0 0 1-.03-.143c.029.162.005.001.003-.03v-3.138c0-.168 0-.336.01-.504l.014-.165c.002-.02.027-.202.005-.05a4.8 4.8 0 0 1 .253-.984q.028-.075.058-.148a4.829 4.829 0 0 1 .527-.896c.102-.14-.08.098.029-.038q.049-.06.1-.12a5 5 0 0 1 .554-.546c.02-.017.194-.155.076-.064q.146-.11.299-.209c.286-.186.404-.552.225-.858-.166-.284-.571-.412-.858-.225-1.569 1.021-2.547 2.765-2.547 4.645v2.773c0 .525.013 1.006.256 1.494.352.707 1.143 1.137 1.918 1.137h11.153c.911 0 1.705-.575 2.03-1.416.163-.422.133-.88.133-1.324v-2.673c0-.97-.264-1.931-.75-2.77a5.6 5.6 0 0 0-1.835-1.89c-.288-.184-.69-.061-.858.225-.177.304-.062.674.225.858m8.656-.935q0 .149-.017.297c.018-.167-.001-.005-.007.025q-.014.072-.031.141a3 3 0 0 1-.085.273c-.056.152.056-.122-.01.025a2.6 2.6 0 0 1-.234.405c-.09.13.085-.103-.015.021a2.5 2.5 0 0 1-.29.301q-.051.046-.107.09c.13-.105-.035.02-.062.037a2.6 2.6 0 0 1-.371.201c.148-.066.002-.003-.026.007q-.135.047-.275.08-.071.016-.142.029l.022-.002a3 3 0 0 1-.397.015q-.075-.003-.148-.01c-.166-.014.137.023-.027-.003a2.6 2.6 0 0 1-.506-.143l.02.008a2.6 2.6 0 0 1-.366-.207c-.024-.016-.151-.111-.024-.012-.16-.124-.3-.27-.427-.427.101.125.005 0-.012-.024a2.5 2.5 0 0 1-.207-.366c-.069-.145.048.126-.01-.025q-.024-.067-.046-.134a3 3 0 0 1-.079-.327c-.03-.163.014.139-.003-.027a2.5 2.5 0 0 1-.005-.447c.003-.03.024-.195 0-.028q.011-.072.027-.143.034-.164.09-.322c.01-.027.07-.176.007-.026a2.5 2.5 0 0 1 .28-.486c-.093.13-.002.004.017-.019a2.6 2.6 0 0 1 .315-.313 2.6 2.6 0 0 1 .486-.28c-.154.07.04-.011.071-.022.121-.042.246-.07.372-.094.163-.03-.139.014.027-.003a2.6 2.6 0 0 1 .545.005c-.167-.018-.005.001.026.007a2.5 2.5 0 0 1 .458.133l-.02-.007a2.6 2.6 0 0 1 .405.234q.083.06-.015-.015a2.6 2.6 0 0 1 .427.427c-.105-.13.02.035.038.062q.089.138.161.286c.013.026.074.173.013.022a2.6 2.6 0 0 1 .14.484 3 3 0 0 1 .017.297.634.634 0 0 0 .627.627c.34 0 .63-.285.627-.627a3.23 3.23 0 0 0-1.091-2.406c-.75-.649-1.699-.883-2.67-.743-.894.128-1.685.719-2.164 1.467-.496.775-.605 1.79-.324 2.662a3.27 3.27 0 0 0 1.366 1.743c.67.43 1.468.537 2.242.426 1.522-.219 2.627-1.653 2.641-3.15a.63.63 0 0 0-.627-.626.634.634 0 0 0-.627.627"/><path fill="#000" d="m22.028 9.989-.107.169zm.259.175-.116.162zm.039.027.123-.157-.247.315zm.12.099-.128.153zm.484.469.148-.135zm.2.238-.156.125.313-.25zm.028.039.162-.117v-.001zm.09.128-.167.111.001.001zm.339.587.18-.088h-.001zm.067.142-.183.082v.001zm.018.044-.185.075zm.108.3-.19.062zm.165.675.197-.034zm.01.048.198-.025-.397.051zm.017.164-.2.019zm.019.33-.2.006zm-.002 3.47-.2-.01zm-.003.029-.197-.035zm-.035.141.192.054zm-.003.03.184.078-.368-.156zm-.138.247-.167-.11zm-.018.021.152.13zm-.132.133.134.148zm-.022.018.116.163zm-.12.074.1.173zm-.127.064-.084-.182.168.363zm-.03.003.06.19zm-.14.034.04.196zm-.03.003.017.2zm-11.38 0-.01.2zm-.029-.003.035-.196zm-.141-.034-.057.191.003.001zm-.091-.03.069-.188-.151.37zm.018.007-.084.181zm-.243-.146.116-.163-.232.326zm-.017-.022.135-.147zm-.098-.1-.148.134zm-.018-.022-.163.116zm-.074-.12.173-.1zm-.064-.127.182-.084-.364.167zm-.016-.076-.192.054zm-.03-.143.197-.036-.394.071zm.003-.03-.2.009zm.01-3.642.2.012zm.014-.165.2.02zm.005-.05-.198-.028.396.056zm.058-.32-.196-.04zm.195-.664.188.068zm.058-.148.185.075-.37-.15zm.02-.043-.181-.083zm.142-.282-.176-.094zm.365-.571.16.118zm.029-.038.156.125zm.1-.12-.152-.13zm.21-.229-.143-.139zm.226-.215-.134-.149zm.118-.102.128.153.001-.001zm.076-.064-.121-.16.242.319zm.299-.209.11.168zm.225-.858-.173.101zm-.858-.225.11.168zm-2.29 8.912-.18.09zm15.1-.279-.187-.072zm-.616-6.768-.173.1zM22.66 8.906l.108-.169zm-.858.225.173.101zm8.864.22-.199-.021.398.041zm-.007.025.197.036zm-.031.141-.195-.047zm-.085.273-.188-.068zm-.01.025.183.082zm-.085.167-.176-.095zm-.149.238.165.114zm-.015.021-.155-.125zm-.09.106-.15-.134zm-.2.195.134.149zm-.107.09-.125-.156.25.311zm-.062.037.11.167zm-.243.14.092.179zm-.128.061-.082-.182.164.365zm-.026.007.068.188zm-.275.08.047.194zm-.142.029.031.197h.005zm.022-.002.028.198-.051-.397zm-.098.01-.016-.2h-.001zm-.299.005-.006.2zm-.148-.01.017-.2zm-.027-.003.032-.198zm-.28-.066.053-.192zm-.137-.043-.067.188h.002zm-.089-.034.074-.186-.153.37zm.02.008-.082.182zm-.248-.132-.102.172zm-.119-.075-.11.166zm-.023-.012-.122.158.245-.317zm-.427-.427.156-.126-.311.251zm-.012-.024.165-.113zm-.075-.118.17-.104zm-.132-.248.18-.086zm-.01-.025.187-.072zm-.046-.134-.19.06zm-.079-.327.197-.036zm-.003-.027L27 9.28zm-.01-.148-.2.01zm.005-.299-.199-.013zm0-.028L26.6 8.8l.396.057zm.027-.143.196.04zm.09-.322-.189-.065zm.007-.026-.184-.079.368.158zm.06-.128-.18-.088zm.14-.243.169.108zm.08-.115.162.117-.324-.234zm.017-.019-.153-.128zm.226-.234.137.146zm.106-.091-.125-.157-.003.003zm-.017.012-.124-.157.243.318zm.076-.054.113.166.001-.001zm.282-.166L27.8 7.12zm.128-.06.082.182-.164-.365zm.071-.022.065.189zm.372-.094-.036-.196zm.027-.003.021.199zm.198-.012-.006-.2zm.347.017-.021.199.042-.398zm.026.007-.036.197zm.187.043-.05.194zm.182.057.067-.188-.002-.001zm.089.033-.074.186.153-.369zm-.02-.007.082-.182zm.288.156.105-.17zm.117.078.118-.161-.004-.004zm-.015-.015.122-.158-.246.315zm.072.06-.13.152h.002zm.234.225-.146.137zm.12.142-.155.125.312-.25zm.039.062.166-.11zm.161.286.18-.09zm.013.022.185-.075-.37.15zm.063.18.19-.062zm.079.326.197-.03v-.006zm-.002-.022.198-.028-.396.051zm.01.098-.2.016v.001zm.17-2.207-.131.152zm-2.67-.743.028.198zm-2.164 1.467.169.107zm-.324 2.662-.19.062zm1.366 1.743.108-.168zm2.242.426-.028-.198zm-7.376-2.045q.127.081.25.168l.232-.325a6 6 0 0 0-.267-.18zm.25.168.007.006.057.044.015.01.004.003.01.007.01.006a.2.2 0 0 0 .04.017l.04.008c.02 0 .072-.007.102-.018.04-.026.099-.1.112-.147a.4.4 0 0 0-.008-.102.198.198 0 0 0-.04-.068l-.016-.014-.004-.004-.051-.04-.247.315.04.03-.004-.002-.004-.004-.022-.025c-.003-.003-.018-.023-.029-.053a.4.4 0 0 1-.008-.103.34.34 0 0 1 .112-.146.4.4 0 0 1 .101-.018l.04.008.03.01.01.007.01.005.009.006-.01-.008-.074-.055zm.032.023q.055.044.115.094l.256-.307q-.059-.05-.125-.102zm.115.094q.246.207.464.45l.296-.269a5 5 0 0 0-.503-.488zm.464.45q.098.11.192.229l.313-.25a5 5 0 0 0-.209-.248zm.505-.021-.043-.053-.005-.005s-.009-.01-.02-.019l-.02-.014a.2.2 0 0 0-.272.062c-.045.067-.032.135-.03.142.005.032.018.055.018.056l.007.013.01.014q0 .003.003.005l.011.015.031.04.02.026.322-.236-.054-.072-.008-.01.009.013.007.014s.013.023.018.055c.001.008.015.075-.03.143a.2.2 0 0 1-.206.087.204.204 0 0 1-.085-.04l-.015-.013-.005-.005-.005-.005.03.037zm-.291.28q.045.062.085.123l.332-.223-.093-.133zm.086.124q.18.268.325.563l.359-.177a5 5 0 0 0-.354-.611zm.325.563.064.136.365-.163q-.033-.075-.07-.149zm.064.137.021.045.008.015.02.032a.3.3 0 0 0 .034.034l.023.016.041.018a.4.4 0 0 0 .072.009.4.4 0 0 0 .091-.03.4.4 0 0 0 .063-.059.4.4 0 0 0 .024-.05.3.3 0 0 0 .01-.056.2.2 0 0 0-.01-.068l-.004-.01-.005-.013-.01-.024-.01-.024-.006-.012-.013-.022-.01-.014a.2.2 0 0 0-.083-.064.4.4 0 0 0-.06-.014.4.4 0 0 0-.085.012.4.4 0 0 0-.075.05.4.4 0 0 0-.037.053l-.013.04a.3.3 0 0 0-.005.056l.002.016q0 .012.003.017l.006.021.006.017.018.045.37-.15-.015-.038v-.001l.001.005.004.012a.2.2 0 0 1 .004.063l-.004.026-.014.04a.4.4 0 0 1-.037.053.4.4 0 0 1-.074.05.2.2 0 0 1-.245-.09l-.003-.007v.002l.008.016.007.017v.002l-.002-.006a.2.2 0 0 1-.01-.066l.003-.022.007-.034a.4.4 0 0 1 .025-.05.4.4 0 0 1 .062-.06.4.4 0 0 1 .092-.029c.02 0 .056.005.072.009l.04.018.024.016a.2.2 0 0 1 .043.047l.006.01.003.005-.001-.002-.018-.037zm.016.036q.055.139.103.287l.38-.125a5 5 0 0 0-.112-.311zm.103.287q.102.315.158.648l.394-.07a5 5 0 0 0-.172-.703zm.158.648v.002l.002.008.011.074.003.02.001.006.003.015a.2.2 0 0 0 .08.113.4.4 0 0 0 .122.036.198.198 0 0 0 .192-.21v-.007l-.01-.07-.396.052.007.05v-.027q0-.006.002-.02c0-.006.004-.027.015-.05.005-.01.05-.112.174-.117a.4.4 0 0 1 .123.036.198.198 0 0 1 .074.098l.004.014.003.015-.002-.013-.014-.094zm.008.04q.01.074.017.156l.398-.038q-.007-.082-.018-.17zm.017.156q.014.155.018.317l.4-.01a5 5 0 0 0-.02-.345zm.018.317v.166h.4v-.177zm0 .166v3.197h.4v-3.197zm0 3.197c0 .035 0 .05-.002.091l.4.02c.001-.04.003-.065.003-.11zm-.002.091a1 1 0 0 0 .002.094l.006.026a.2.2 0 0 0 .338.079.2.2 0 0 0 .03-.041l.007-.016a.2.2 0 0 0 .015-.05l.002-.01a1 1 0 0 0 .009-.087l-.001-.02a.2.2 0 0 0-.012-.056.2.2 0 0 0-.078-.097.2.2 0 0 0-.29.08.2.2 0 0 0-.018.049l-.01.053.393.07.005-.021v-.006l.001-.002v.002l-.001.003-.007.018a.2.2 0 0 1-.07.086.2.2 0 0 1-.312-.148v-.017q0 .005-.002.014l-.002.014.002-.005.003-.014.015-.032a.2.2 0 0 1 .05-.06.2.2 0 0 1 .321.122l.002.018v.004-.008l.001-.022zm0 .004a1 1 0 0 1-.03.122l.384.108q.021-.069.04-.16zm-.03.122-.01.025-.016.046-.009.032s-.005.02-.005.045a.2.2 0 0 0 .048.13.2.2 0 0 0 .266.035.202.202 0 0 0 .065-.075q.012-.024.034-.076l-.368-.156c-.017.04-.022.05-.02.048q0-.003.006-.011l.01-.016c.003-.003.018-.024.045-.043a.2.2 0 0 1 .314.164l-.002.031-.003.012-.002.008c.003-.008.026-.071.031-.09zm.005.006q-.046.104-.12.215l.332.22c.056-.082.112-.176.156-.28zm-.12.215-.016.023-.023.039-.005.012a.2.2 0 0 0-.016.07.2.2 0 0 0 .036.123.2.2 0 0 0 .316.017l.032-.04.018-.026.005-.008.006-.01.004-.007a.2.2 0 0 0 .018-.044.2.2 0 0 0-.288-.23.2.2 0 0 0-.072.06l-.018.022.303.26.015-.017-.015.013a.2.2 0 0 1-.101.038.2.2 0 0 1-.198-.283l.006-.012.003-.004-.016.021.002-.002.02-.019.031-.02a.2.2 0 0 1 .257.062.2.2 0 0 1 .013.207v-.001l.004-.005.012-.018zm-.003.001q-.048.055-.116.115l.27.296c.046-.043.1-.093.149-.15zm-.116.115-.021.02-.027.027-.006.007a.2.2 0 0 0-.035.062.2.2 0 0 0-.01.05.2.2 0 0 0 .053.154.2.2 0 0 0 .24.04l.01-.006.007-.004.01-.006.007-.006a.6.6 0 0 0 .088-.08l.009-.014a.2.2 0 0 0 .03-.104.2.2 0 0 0-.295-.178l-.008.005-.012.006-.042.03.231.326.017-.012.005-.003.002-.002-.003.002a.2.2 0 0 1-.04.017.2.2 0 0 1-.074.007.2.2 0 0 1-.143-.316l.01-.012.008-.01.003-.002-.02.016.003-.002.011-.007a.2.2 0 0 1 .054-.018.2.2 0 0 1 .19.325l-.003.003.005-.005.015-.014zm-.002.003q-.043.029-.105.064l.2.346c.04-.022.089-.05.136-.084zm-.105.064a1 1 0 0 1-.11.055l.167.363c.041-.019.093-.042.143-.072zm.057.418a1 1 0 0 0 .09-.046l.017-.012a.2.2 0 0 0-.117-.354q-.031 0-.04.002-.011 0-.016.003l-.035.01-.047.018-.02.008-.006.002.12.381c.018-.005.083-.03.088-.032l-.012.003a.2.2 0 0 1-.055.004.2.2 0 0 1-.147-.078.2.2 0 0 1-.008-.232.221.221 0 0 1 .065-.061l-.045.021zm-.174-.37a1 1 0 0 1-.123.03l.084.392c.046-.01.102-.022.16-.04zm-.122.03-.03.007-.023.006-.013.004a.203.203 0 0 0-.103.311.2.2 0 0 0 .14.08.2.2 0 0 0 .055 0 1 1 0 0 0 .088-.016l.009-.002.011-.004a.2.2 0 0 0 .06-.035.2.2 0 0 0 .034-.038.201.201 0 0 0-.177-.316h-.025l-.03.003.032.399.022-.002h.008-.005l-.019-.002a.2.2 0 0 1-.166-.162.2.2 0 0 1 .124-.221l.014-.005.005-.001-.024.004h.012a.2.2 0 0 1 .052.008.2.2 0 0 1 .101.072.2.2 0 0 1-.031.272.2.2 0 0 1-.047.029l-.017.007h-.003.002l.005-.001.022-.005zm-.004 0-.088.003v.4q.055.001.12-.004zm-.088.003H11.911v.4h11.176zm-11.176 0c-.038 0-.045-.001-.09-.003l-.02.4c.043.001.06.003.11.003zm-.09-.003-.03-.002h-.039l-.01.001-.015.002-.01.003a.2.2 0 0 0-.04.013.2.2 0 0 0-.04.024.2.2 0 0 0-.057.068.2.2 0 0 0 .149.29h.01a1 1 0 0 0 .087.01l.019-.001.018-.002.015-.004a.2.2 0 0 0 .062-.026.2.2 0 0 0 .091-.183.2.2 0 0 0-.16-.183l-.054-.01-.07.393.021.004.006.002h.002-.002l-.003-.001-.018-.007a.2.2 0 0 1-.086-.07.2.2 0 0 1 .132-.31l.016-.002h.017l-.014-.002-.014-.002.005.001a.2.2 0 0 1 .046.018.2.2 0 0 1 .06.051.2.2 0 0 1-.122.32l-.018.003h-.004.008l.022.001zm-.004 0a1 1 0 0 1-.122-.03l-.108.384q.069.022.16.04zm-.119-.03-.08-.026-.137.375q.05.019.103.034zm-.23.344.066.03.004.001.013.005.011.003q.006.002.034.005c.01 0 .039 0 .056-.003a.35.35 0 0 0 .145-.12.35.35 0 0 0-.014-.179l-.033-.042-.025-.02-.01-.006-.008-.005-.009-.004-.002-.002q-.004 0-.01-.004l-.035-.016-.166.364.034.015.004.002h.001v.001l-.002-.002-.006-.002-.018-.011-.025-.02-.033-.042a.35.35 0 0 1-.014-.178.35.35 0 0 1 .144-.12.4.4 0 0 1 .057-.004.2.2 0 0 1 .058.013l.003.001-.056-.025zm.184-.357a1.3 1.3 0 0 1-.21-.127l-.232.326c.08.058.172.117.274.165zm-.442.2.088.057a.2.2 0 0 0 .201-.345l-.036-.029-.02-.016-.27.295.074.06-.006-.005-.008-.01q-.006-.004-.022-.028a.2.2 0 0 1 .274-.275l-.044-.03zm.233-.333a1 1 0 0 1-.085-.088l-.296.27c.03.033.069.074.111.113zm-.085-.088-.036-.038-.01-.01-.008-.006-.021-.015a.2.2 0 0 0-.061-.026.2.2 0 0 0-.072-.004.2.2 0 0 0-.136.32l.025.032.02.025.007.007.007.008a.2.2 0 0 0 .106.058.2.2 0 0 0 .156-.033.2.2 0 0 0 .083-.145.2.2 0 0 0-.022-.113l-.005-.008-.007-.012-.029-.042-.326.23.012.018.003.005.002.002-.001-.001-.001-.003a.2.2 0 0 1-.017-.039l-.005-.025q-.004-.016-.002-.05a.2.2 0 0 1 .338-.124l.002.003-.008-.01-.006-.008.006.012a.2.2 0 0 1 .02.054.2.2 0 0 1-.02.13.2.2 0 0 1-.096.09.2.2 0 0 1-.195-.019l-.015-.011-.003-.003.005.005.014.015zm-.003-.002a1 1 0 0 1-.064-.105l-.347.2c.023.04.052.089.085.136zm-.064-.105a1 1 0 0 1-.055-.11l-.364.166c.02.042.043.094.073.144zm-.418.056.04.081a.2.2 0 0 0 .083.073.2.2 0 0 0 .28-.238l-.011-.033-.022-.063-.012-.034-.385.109.02.06.02.057.003.007-.002-.008a.2.2 0 0 1 0-.075.2.2 0 0 1 .338-.104c.014.015.022.028.023.03l.005.008v-.002l-.017-.035zm.358-.213a1 1 0 0 1-.026-.125l-.394.071c.008.046.018.104.035.162zm-.42-.054.025.11a.2.2 0 0 0 .382-.032c.003-.016.004-.03.004-.033v-.013l-.002-.032-.006-.049-.003-.027-.4.02.011.1v-.018a.2.2 0 0 1 .02-.077.2.2 0 0 1 .343-.028c.014.02.021.037.022.04l.005.014.003.01-.01-.056zm.4-.076v-.053h-.4v.073zm0-.053v-3.074h-.4v3.074zm0-3.074c0-.168 0-.33.01-.492l-.4-.024c-.01.175-.01.348-.01.516zm.01-.492q.005-.075.014-.157l-.399-.039-.014.172zm.014-.157v-.01l.004-.023.006-.052.004-.046c0-.001 0-.018-.004-.037 0 0-.007-.047-.043-.09a.35.35 0 0 0-.149-.072.4.4 0 0 0-.136.05c-.034.029-.048.063-.05.065l-.013.038v.006l-.002.006-.01.067.396.056.007-.051-.002.01-.004.016-.009.021c0 .002-.016.037-.05.067a.4.4 0 0 1-.136.049.35.35 0 0 1-.149-.072c-.036-.043-.042-.09-.043-.09-.003-.02-.003-.036-.003-.037v-.02.015l-.013.095zm.003-.042q.022-.15.056-.306l-.392-.082a5 5 0 0 0-.06.332zm.056-.306c.045-.215.11-.427.187-.638l-.376-.137a5 5 0 0 0-.203.693zm.187-.638.055-.141-.37-.15q-.031.073-.061.154zm-.316-.291-.025.065-.003.008s-.004.014-.006.03l-.002.028a.2.2 0 0 0 .19.198c.073.004.122-.033.13-.04.027-.02.043-.043.043-.043l.01-.015.008-.015.002-.006.009-.018.02-.047.009-.021q0-.004.003-.007v-.002l-.363-.166-.036.083-.004.008v.002l-.001.001v-.002l.003-.003.005-.01.009-.014s.016-.023.042-.044c.01-.007.058-.044.131-.04a.2.2 0 0 1 .184.247l-.002.009-.002.007.017-.043zm.389.115q.06-.135.135-.27l-.352-.19q-.076.143-.147.294zm.135-.27q.154-.284.35-.548l-.323-.236a5 5 0 0 0-.38.595zm.35-.548.037-.053.004-.005.006-.011.007-.014a.2.2 0 0 0 .017-.063v-.04a.4.4 0 0 0-.019-.063.4.4 0 0 0-.063-.076.4.4 0 0 0-.09-.037.4.4 0 0 0-.065.001.4.4 0 0 0-.058.021.2.2 0 0 0-.054.042l-.007.008-.008.01-.045.062q-.001.003-.007.012l-.007.015a.2.2 0 0 0-.016.067.2.2 0 0 0 .069.163.4.4 0 0 0 .078.042c.018.004.05.007.065.006l.042-.007a.3.3 0 0 0 .053-.023l.027-.02.016-.017.042-.05-.312-.25-.026.031q-.004.004 0 .001l.013-.013.013-.011a.2.2 0 0 1 .04-.024l.026-.009.042-.007c.014 0 .047.003.065.007.02.007.06.027.078.041a.2.2 0 0 1 .053.23l-.007.015-.007.011-.003.006v-.001l.024-.03-.004.004-.008.008-.011.01-.011.009a.2.2 0 0 1-.08.035.4.4 0 0 1-.066.001.4.4 0 0 1-.09-.037.4.4 0 0 1-.063-.076.4.4 0 0 1-.018-.063.4.4 0 0 1 .004-.063.2.2 0 0 1 .012-.04l.007-.013.007-.012-.025.034zm.024-.03q.045-.056.096-.115l-.304-.26q-.052.058-.104.124zm.096-.115q.095-.111.202-.22l-.287-.279a5 5 0 0 0-.22.239zm.202-.22q.103-.105.216-.207l-.268-.296a5 5 0 0 0-.235.224zm.216-.206q.055-.05.112-.098l-.257-.306-.123.106zm.113-.1.003-.001.007-.006.022-.018.054-.043.02-.017.01-.007.007-.006.01-.01a.2.2 0 0 0 .028-.038.2.2 0 0 0-.068-.27c-.064-.04-.127-.029-.136-.028a.2.2 0 0 0-.098.044l-.033.026.242.318.03-.023.003-.002h-.001l-.005.004-.02.011s-.024.013-.057.018c-.01.001-.072.012-.136-.028a.2.2 0 0 1-.092-.2c.005-.037.02-.063.024-.07l.015-.022.026-.027v-.001l-.002.002-.018.014-.094.076zm.068-.056q.137-.104.287-.2l-.218-.336q-.158.102-.311.218zm.287-.2c.362-.236.529-.716.288-1.127l-.345.202c.118.2.048.453-.161.59zm.289-1.127c-.217-.369-.745-.549-1.14-.292l.218.336c.178-.116.46-.041.576.158zm-1.14-.292c-1.624 1.058-2.638 2.863-2.638 4.813h.4c0-1.81.942-3.492 2.456-4.477zm-2.638 4.813v2.773h.4v-2.773zm0 2.773c0 .524.01 1.05.277 1.584l.358-.179c-.22-.441-.235-.88-.235-1.405zm.277 1.584c.39.782 1.256 1.247 2.097 1.247v-.4c-.709 0-1.424-.395-1.739-1.026zm2.097 1.247h11.153v-.4H11.93zm11.153 0c.998 0 1.863-.63 2.216-1.544l-.373-.144a1.98 1.98 0 0 1-1.843 1.288zm2.216-1.544c.18-.466.147-.973.147-1.396h-.4c0 .465.026.874-.12 1.252zm.147-1.396v-2.673h-.4v2.673zm0-2.673a5.76 5.76 0 0 0-.776-2.87l-.346.2c.468.81.722 1.735.722 2.67zm-.776-2.87a5.8 5.8 0 0 0-1.901-1.959l-.215.338a5.4 5.4 0 0 1 1.77 1.82zm-1.901-1.959c-.395-.251-.92-.08-1.138.293l.345.202c.117-.2.395-.274.578-.157zm-1.138.293c-.239.407-.078.893.29 1.128l.215-.338c-.208-.132-.277-.388-.16-.588zm8.853.022q0 .139-.016.278l.398.041q.016-.157.018-.315zm.382.32.008-.077v-.014a.2.2 0 0 0-.005-.05.2.2 0 0 0-.363-.064c-.013.021-.02.04-.02.043l-.007.022-.001.008-.004.022-.006.047-.003.022-.002.01.394.071c.004-.02.011-.079.013-.095q.002-.01 0-.002v.007l-.007.021c-.001.003-.007.022-.02.042a.2.2 0 0 1-.368-.094v-.026.005l-.007.06zm-.403-.032-.029.13.39.094q.017-.07.033-.152zm-.029.13q-.03.123-.078.252l.376.137q.051-.14.091-.295zm-.078.252-.02.055-.001.007-.006.03a.2.2 0 0 0 .003.066.2.2 0 0 0 .067.11c.01.009.033.023.046.03.013.005.04.013.054.016a.2.2 0 0 0 .175-.062l.009-.01.01-.013.005-.008.012-.022.007-.014.027-.068.003-.01.007-.034.001-.012v-.017a.2.2 0 0 0-.015-.073.2.2 0 0 0-.05-.07.4.4 0 0 0-.05-.034.4.4 0 0 0-.058-.017.2.2 0 0 0-.203.103l-.003.006-.004.009-.009.018-.011.025.364.164.014-.03-.005.009a.2.2 0 0 1-.104.083.2.2 0 0 1-.092.01.4.4 0 0 1-.058-.018.2.2 0 0 1-.105-.24q0-.002-.002 0l-.013.034q0 .003 0 0l.013-.022a.2.2 0 0 1 .056-.054.2.2 0 0 1 .136-.03c.014.003.041.011.055.017a.2.2 0 0 1 .11.234l.01-.031zm-.004.01q-.035.074-.079.155l.352.19q.047-.083.091-.18zm-.079.155q-.06.109-.137.219l.329.228q.084-.12.16-.256zm-.137.219-.015.022-.012.018q-.003.003-.005.009l-.004.006-.005.009-.003.007-.012.033a.2.2 0 0 0-.001.097.2.2 0 0 0 .073.113.2.2 0 0 0 .267-.022l.009-.01.01-.011.035-.046.008-.012.01-.018.005-.007.006-.013a.2.2 0 0 0 .014-.1l-.008-.038a.4.4 0 0 0-.024-.05.4.4 0 0 0-.044-.047.4.4 0 0 0-.058-.032.4.4 0 0 0-.053-.01c-.011 0-.03 0-.04.002l-.047.012a.2.2 0 0 0-.038.02l-.015.012-.008.007-.005.005-.017.018-.03.036.312.25.015-.019-.026.022-.014.008a.2.2 0 0 1-.07.025.2.2 0 0 1-.094-.01.4.4 0 0 1-.057-.03.4.4 0 0 1-.045-.049.2.2 0 0 1-.004-.212l.003-.005-.001.002-.022.028q-.002.003 0 0l.005-.005.007-.007.007-.006a.2.2 0 0 1 .068-.038.2.2 0 0 1 .22.07.2.2 0 0 1 .02.21l-.006.01.018-.026zm-.006.01q-.037.046-.085.097l.298.267q.046-.051.099-.114zm-.085.097q-.083.091-.183.18l.267.298a3 3 0 0 0 .214-.21zm-.183.18-.1.083.251.311q.055-.042.116-.096zm.151.394.052-.042s.012-.01.023-.023q.006-.005.023-.032a.2.2 0 0 0-.288-.264l-.024.016-.052.038-.022.016-.01.007.222.333.095-.069.008-.005.003-.002q0 0-.003.002l-.017.008q-.006.004-.034.013a.2.2 0 0 1-.225-.293q.017-.025.022-.03.01-.012.012-.013l.002-.002-.004.004-.033.027zm-.298-.284q-.104.068-.224.13l.184.354q.13-.065.262-.151zm-.224.13-.118.055.164.365q.065-.03.138-.066zm.046.42.07-.032.008-.005.008-.004.022-.015a.2.2 0 0 0-.156-.354q-.02.002-.024.005l-.009.002-.023.009-.043.018-.02.008-.007.003h-.003l.138.377c.017-.007.07-.03.085-.035q.009-.004 0 0l-.008.002-.023.005q-.009.003-.043.003a.2.2 0 0 1-.164-.103.2.2 0 0 1 .017-.22c.015-.019.03-.03.034-.034.01-.008.02-.013.021-.014l.007-.004.004-.002-.003.001-.01.005-.042.019zm-.177-.364q-.119.042-.253.073l.094.39a3 3 0 0 0 .296-.087zm-.253.073q-.06.014-.131.027l.072.393c.046-.008.1-.018.153-.03zm-.126.026-.068.012q-.004 0-.019.006a.2.2 0 0 0-.07.044.2.2 0 0 0 .078.334c.023.007.041.009.045.009h.032c.012 0 .046-.006.083-.011l-.056-.396-.057.008h.031a.201.201 0 0 1 .182.22.2.2 0 0 1-.098.153q-.024.012-.031.014l-.019.006-.006.002h-.005.003l.037-.006zm.03-.003-.09.009.03.399.105-.01zm-.092.01q-.133.01-.276.004l-.012.4q.156.006.322-.006zm-.276.004-.137-.01-.034.4q.073.006.16.01zm-.137-.01-.028-.001-.032-.002h-.024a.2.2 0 0 0-.11.044.2.2 0 0 0-.07.115.2.2 0 0 0 .115.225l.015.005a.2.2 0 0 0 .049.011 1 1 0 0 0 .1.01l.036-.006a.2.2 0 0 0 .042-.014.2.2 0 0 0 .09-.086l.018-.05a.2.2 0 0 0-.164-.244l-.049-.008-.064.395.034.006h-.001l-.012-.004a.2.2 0 0 1-.08-.048.2.2 0 0 1-.058-.131.4.4 0 0 1 .005-.056.197.197 0 0 1 .161-.152q.017-.002.024-.002h.016-.002l-.036-.005h-.002l.007.001.01.003.008.002a.2.2 0 0 1 .043.022.2.2 0 0 1 .06.06.2.2 0 0 1 .03.09.4.4 0 0 1-.004.058.2.2 0 0 1-.185.158h-.01q-.003 0 0 0l.034.003zm-.012 0a2 2 0 0 1-.259-.061l-.108.385c.096.027.197.053.303.07zm-.259-.061-.125-.04-.13.378q.068.024.147.047zm-.123-.04-.082-.03-.147.371q.047.02.096.036zm-.235.339.07.03.006.002.016.005.035.006c.005 0 .036.003.074-.008a.4.4 0 0 0 .093-.061.35.35 0 0 0 .048-.149.4.4 0 0 0-.028-.085l-.024-.032q-.018-.018-.025-.023l-.018-.012-.012-.007-.004-.002-.004-.002-.01-.005-.037-.016-.162.366.033.015.005.002-.003-.002-.004-.002-.01-.006-.02-.013a.2.2 0 0 1-.048-.055.4.4 0 0 1-.028-.084.35.35 0 0 1 .048-.149.4.4 0 0 1 .093-.06.2.2 0 0 1 .125.002l.004.001-.054-.023zm.181-.358a2 2 0 0 1-.229-.122l-.203.344q.125.077.268.142zm-.229-.122-.109-.07-.221.333q.057.039.127.081zm-.109-.07-.007-.005-.018-.013-.038-.027-.02-.014-.028-.014a.2.2 0 0 0-.207.03.2.2 0 0 0-.03.275l.018.021.007.007.007.006.06.047.245-.317-.036-.027-.01-.008-.002-.002.004.004.024.025a.2.2 0 0 1 .041.125.2.2 0 0 1-.242.193q-.029-.007-.036-.012l-.027-.014q-.008-.005 0 0l.074.053zm-.011-.004a2.4 2.4 0 0 1-.394-.394l-.311.251c.133.166.285.324.46.46zm-.705-.143.048.06q.003.001.007.007l.007.007q.003.004.023.019a.2.2 0 0 0 .046.024.2.2 0 0 0 .256-.261l-.012-.025-.006-.009-.014-.021-.029-.038-.012-.017-.005-.006-.001-.002-.33.227.054.072c.005.007.002.004-.001-.002l-.005-.008-.012-.024q-.005-.01-.012-.046a.2.2 0 0 1 .067-.178c.091-.08.194-.04.201-.037q.038.016.046.024l.022.018.007.007.003.004-.009-.011-.028-.035zm.308-.262-.07-.11-.34.21q.035.061.08.127zm-.07-.11a2 2 0 0 1-.121-.229l-.362.171c.042.088.088.18.142.268zm-.121-.229-.037-.07a.2.2 0 0 0-.072-.065l-.027-.012a.2.2 0 0 0-.094-.01.4.4 0 0 0-.062.02.4.4 0 0 0-.051.036l-.032.04-.016.034-.011.046a.2.2 0 0 0 .006.076q0 .006.003.01l.009.024.036.079a.2.2 0 0 0 .073.073.2.2 0 0 0 .135.024.4.4 0 0 0 .052-.016l.044-.029a.2.2 0 0 0 .06-.215q0-.006-.003-.01l-.007-.02-.01-.026-.373.144.011.031-.006-.03a.2.2 0 0 1 .068-.178l.044-.028a.2.2 0 0 1 .257.078l.004.006q0 .003 0 0l-.007-.016-.007-.017-.001-.002.002.005.002.008q.001.005.004.021a.2.2 0 0 1 .002.053.2.2 0 0 1-.06.12.4.4 0 0 1-.05.037.4.4 0 0 1-.062.019.2.2 0 0 1-.186-.077l-.01-.014-.004-.008.014.03zm-.004-.01-.043-.125-.38.123c.014.044.03.095.05.145zm-.043-.125a2 2 0 0 1-.072-.301l-.393.072q.029.173.085.352zm-.072-.301-.016-.075-.003-.008a.2.2 0 0 0-.045-.07l-.017-.017-.026-.018a.2.2 0 0 0-.3.163v.02l.002.028.009.059.003.016a.3.3 0 0 0 .016.049l.017.029a.2.2 0 0 0 .151.084.4.4 0 0 0 .056-.004.2.2 0 0 0 .156-.182v-.009l.001-.01v-.017l-.003-.022-.002-.028-.398.042.003.034v-.011a.2.2 0 0 1 .106-.17.4.4 0 0 1 .05-.018.2.2 0 0 1 .23.123l.003.01.003.009.002.007v-.001l-.003-.019-.003-.018v-.002.015l-.001.023a.2.2 0 0 1-.037.092.2.2 0 0 1-.112.075.2.2 0 0 1-.232-.113l-.007-.017-.003-.011.007.034zm-.001-.012c-.005-.043-.007-.086-.01-.137l-.399.02q.003.073.01.159zm-.01-.137q-.005-.132.006-.276l-.399-.026a3 3 0 0 0-.006.321zm.006-.275.001-.01.002-.022.006-.047.002-.021v-.023a.2.2 0 0 0-.013-.066c-.004-.009-.024-.062-.082-.097a.4.4 0 0 0-.125-.029.4.4 0 0 0-.095.036.2.2 0 0 0-.056.06.205.205 0 0 0-.024.059v.007l-.002.007-.012.076.396.057.007-.048.002-.012v-.004l.001-.001v.002l-.002.006-.005.019c-.001.002-.007.02-.018.039a.2.2 0 0 1-.056.06.4.4 0 0 1-.095.035.4.4 0 0 1-.125-.028c-.058-.035-.078-.088-.082-.098a.2.2 0 0 1-.013-.065V8.74v.005c-.002.017-.01.076-.011.097zm-.002-.013q.01-.062.025-.132l-.392-.08q-.015.072-.029.155zm.025-.132q.031-.146.083-.297l-.378-.13a3 3 0 0 0-.098.348zm.083-.297.004-.008.007-.02.018-.044.014-.047.004-.033q.001-.013-.005-.046a.2.2 0 0 0-.325-.111c-.02.016-.03.032-.033.035l-.013.02-.007.015-.03.07.368.157q.011-.028.018-.042l.005-.012.001-.003-.001.003-.004.006-.012.02a.2.2 0 0 1-.362-.122q.001-.026.003-.033l.005-.018.002-.006q.001-.007-.001.002l-.034.087zm.002-.012q.023-.055.055-.118l-.358-.177q-.032.062-.065.137zm.055-.118q.056-.11.13-.224l-.337-.216a3 3 0 0 0-.151.263zm.13-.224q.033-.05.073-.106l-.324-.234q-.042.058-.086.124zm-.251-.34-.046.065-.006.009a.2.2 0 0 0-.02.047l-.007.046c0 .024.017.09.04.127.04.04.133.08.177.08a.4.4 0 0 0 .076-.022c.021-.011.036-.024.038-.026q.015-.013.017-.016l.01-.012.01-.013.026-.036.013-.016.005-.007-.307-.256-.057.075-.005.005q.001 0 .002-.002l.007-.008.017-.016c.002-.002.016-.015.038-.026a.4.4 0 0 1 .076-.022c.044 0 .137.04.178.08a.4.4 0 0 1 .039.127l-.008.046-.01.03-.01.017-.006.01.037-.052zm.333.226a2 2 0 0 1 .209-.216l-.273-.293a3 3 0 0 0-.243.253zm.209-.216q.042-.04.097-.084l-.256-.307q-.054.045-.114.099zm.094-.081q.02-.017.03-.024l.007-.006.003-.002.002-.002.005-.005.009-.008.012-.015.014-.02a.4.4 0 0 0 .026-.067.34.34 0 0 0-.102-.213.4.4 0 0 0-.136-.02.2.2 0 0 0-.077.035l-.002.002-.057.044.249.314.037-.03.011-.009-.002.002-.007.005-.018.01s-.022.012-.05.019a.4.4 0 0 1-.138-.02.34.34 0 0 1-.101-.212.4.4 0 0 1 .026-.068l.014-.02.012-.014.009-.009.005-.004.002-.002h-.001l-.004.003-.028.023zm-.023.017.07-.05-.225-.33-.082.058zm.071-.05a2 2 0 0 1 .26-.153L27.8 7.12c-.1.053-.204.111-.303.18zm.26-.153c.037-.02.075-.036.118-.056l-.164-.365q-.064.029-.138.065zm-.046-.42-.046.02c-.002.001-.025.011-.042.024-.003.002-.016.01-.03.023a.2.2 0 0 0 .148.343q.029-.002.035-.005c.015-.003.029-.008.029-.008l.026-.01.06-.023.038-.015-.13-.378-.112.043-.01.004.017-.004c.003 0 .016-.004.034-.004a.2.2 0 0 1 .147.341q-.021.021-.028.024c-.015.01-.028.015-.011.007l.04-.018zm.218.349q.162-.054.343-.086l-.072-.393a3 3 0 0 0-.4.1zm.343-.086.075-.016.038-.017a.2.2 0 0 0 .074-.074.2.2 0 0 0 .027-.09.4.4 0 0 0-.006-.06.2.2 0 0 0-.215-.15l-.045.006-.07.014-.037.017a.2.2 0 0 0-.075.075.2.2 0 0 0 .16.299h.036l.05-.005-.042-.398-.034.003h.011a.2.2 0 0 1 .08.02.2.2 0 0 1 .09.086.4.4 0 0 1 .018.05.2.2 0 0 1-.142.236l-.007.002h.001l.037-.006h.002-.006a.2.2 0 0 1-.084-.015.2.2 0 0 1-.094-.082.4.4 0 0 1-.021-.053.4.4 0 0 1-.006-.059.2.2 0 0 1 .147-.183l-.034.007zm.012-.001q.086-.009.183-.01l-.012-.4q-.1 0-.213.012zm.183-.01q.155-.004.32.015l.042-.398a3 3 0 0 0-.374-.017zm.362-.383-.076-.008h-.008a.2.2 0 0 0-.096.019.2.2 0 0 0-.023.35c.02.012.039.018.042.02l.022.006.007.001.022.004.047.006.022.003.01.002.072-.394c-.021-.004-.08-.011-.096-.013h-.002l.028.007a.2.2 0 0 1-.052.388h-.026.005l.06.007zm-.031.403q.08.015.172.04l.102-.387a3 3 0 0 0-.203-.047zm.172.04q.08.022.168.052l.13-.378a3 3 0 0 0-.196-.061zm.166.052.082.03.147-.371-.095-.036zm.235-.339-.071-.03-.006-.002-.016-.005c-.002 0-.017-.005-.037-.006-.006 0-.038-.003-.077.01a.4.4 0 0 0-.091.064.35.35 0 0 0-.044.143.199.199 0 0 0 .075.14l.02.013.011.006.005.003.004.002.047.02.162-.365-.037-.017.002.002.035.022.025.023c.003.003.044.046.05.116a.35.35 0 0 1-.044.143.4.4 0 0 1-.09.064c-.04.013-.072.01-.078.01-.02-.001-.035-.005-.037-.006l-.016-.005-.005-.001.054.023zm-.181.358q.132.061.266.145l.21-.341c-.098-.06-.201-.119-.312-.168zm.266.145q.05.03.107.071l.228-.329a3 3 0 0 0-.126-.083zm.103.068.032.024.014.01.018.01.026.011a.2.2 0 0 0 .043.01c.01.001.079.01.144-.039a.2.2 0 0 0 .05-.265c-.01-.017-.021-.028-.023-.03l-.01-.01c-.01-.01-.026-.022-.03-.025l-.039-.03-.244.317.037.028c.014.011.008.007 0-.001l-.01-.009c-.001-.002-.012-.013-.022-.03a.2.2 0 0 1 .05-.265.2.2 0 0 1 .186-.029q.022.008.026.012l.01.005.006.004q.005.003 0 0l-.028-.02zm-.02-.019.066.055.259-.305-.078-.064zm.067.056a2 2 0 0 1 .216.209l.293-.273a3 3 0 0 0-.253-.243zm.216.209q.054.06.11.13l.313-.25a3 3 0 0 0-.13-.153zm.423-.12-.032-.039-.011-.013s-.01-.012-.023-.023a.2.2 0 0 0-.325.203q.01.029.013.035l.016.028.016.023.061.084.333-.222c-.01-.016-.054-.075-.069-.095l-.005-.008-.002-.003.002.004.009.016a.2.2 0 0 1 .02.093.2.2 0 0 1-.344.132l-.002-.002.004.004.027.033zm-.285.298q.08.122.149.263l.358-.177a3 3 0 0 0-.174-.307zm.149.263.003.008.009.02.018.04.007.017.002.004.005.01.013.02c.003.004.013.018.03.032a.4.4 0 0 0 .054.035.35.35 0 0 0 .159-.002.35.35 0 0 0 .105-.112.4.4 0 0 0 .013-.06.2.2 0 0 0-.002-.042l-.005-.023-.005-.016-.002-.005-.027-.067-.37.15.024.061-.005-.015-.005-.022a.2.2 0 0 1-.002-.042.4.4 0 0 1 .013-.06.35.35 0 0 1 .105-.113.35.35 0 0 1 .159-.001.4.4 0 0 1 .055.034c.016.014.026.028.029.032q.011.016.012.02l.006.01.001.003-.002-.006-.039-.087zm.006.01q.031.076.059.165l.38-.123a3 3 0 0 0-.068-.193zm.059.165q.044.142.072.301l.394-.072a3 3 0 0 0-.086-.352zm.071.296.01.054v.007l.002.007.006.019q.002.007.015.031a.2.2 0 0 0 .154.099.2.2 0 0 0 .21-.138c.007-.023.008-.041.008-.045v-.032c0-.012-.006-.046-.01-.083l-.397.056.008.057v-.03c0-.004.002-.023.01-.046a.2.2 0 0 1 .363-.039q.012.024.014.031l.006.019.002.006v.005-.003q0-.011-.006-.037zm-.002-.03.008.09.399-.03-.01-.105zm.008.092a3 3 0 0 1 .007.184l.4-.004q0-.102-.008-.214zm.007.184c.004.448.37.825.827.825v-.4a.434.434 0 0 1-.427-.429zm.827.825a.83.83 0 0 0 .827-.829l-.4.004a.43.43 0 0 1-.427.425zm.827-.829a3.43 3.43 0 0 0-1.16-2.555l-.262.303a3.03 3.03 0 0 1 1.022 2.256zm-1.16-2.555c-.799-.691-1.807-.937-2.83-.79l.057.396c.92-.132 1.81.09 2.511.697zm-2.83-.79c-.96.138-1.799.769-2.303 1.557l.337.215c.453-.708 1.197-1.257 2.023-1.376zm-2.303 1.557c-.53.829-.644 1.907-.346 2.832l.38-.123c-.263-.818-.16-1.771.303-2.494zm-.346 2.832c.25.773.772 1.417 1.448 1.85l.216-.337a3.07 3.07 0 0 1-1.283-1.636zm1.448 1.85c.72.46 1.569.571 2.379.455l-.057-.396c-.74.106-1.485.002-2.106-.396zm2.379.455c1.63-.235 2.797-1.762 2.812-3.345l-.4-.004c-.013 1.41-1.057 2.75-2.47 2.953zm2.812-3.345a.83.83 0 0 0-.827-.83v.4c.231 0 .43.198.427.426zm-.827-.83a.833.833 0 0 0-.827.826l.4.004a.434.434 0 0 1 .427-.43z" mask="url(#b)"/><mask id="c" width="35" height="14" x="0" y="4.866" fill="#000" maskUnits="userSpaceOnUse"><path fill="#fff" d="M0 4.866h35v14H0z"/><path d="M31.575 12.123q.066.041.13.085c.017.012.153.117.038.026a3 3 0 0 1 .441.431c.014.017.118.153.03.035a3.3 3.3 0 0 1 .34.58c-.063-.134.008.024.016.045q.056.148.095.301.02.078.037.156c.006.027.041.255.02.099.06.454.024.933.024 1.39v1.114q0 .05-.005.099.02-.13-.002-.024c-.007.03-.065.176 0 .028a1 1 0 0 1-.068.122c-.081.132.087-.095-.017.019-.021.023-.14.119-.013.023a1 1 0 0 1-.118.073c-.137.076.125-.04-.025.008-.031.01-.186.036-.022.015a1 1 0 0 1-.1.005H26.8a.633.633 0 0 0-.627.627c0 .342.285.627.627.627h5.26c.442 0 .88-.018 1.252-.3.423-.319.689-.787.689-1.325v-2.013c0-.79-.198-1.56-.643-2.218a4 4 0 0 0-1.149-1.111c-.288-.185-.69-.06-.858.225-.178.304-.062.673.225.857M8.212 9.053q-.002.15-.017.298c.017-.167-.002-.005-.007.025q-.014.072-.031.141a3 3 0 0 1-.086.273c-.055.152.057-.122-.01.025a2.6 2.6 0 0 1-.233.405c-.09.13.085-.103-.015.021q-.044.054-.091.106-.094.103-.199.195-.053.046-.107.09c.13-.105-.035.02-.062.037a2.6 2.6 0 0 1-.371.201c.148-.066.001-.003-.026.007q-.136.047-.275.08-.071.016-.142.029l.022-.002a3 3 0 0 1-.397.015q-.075-.003-.148-.01c-.166-.014.137.023-.027-.003a2.6 2.6 0 0 1-.506-.143l.02.008a2.6 2.6 0 0 1-.367-.207c-.023-.016-.15-.111-.023-.012a2.6 2.6 0 0 1-.427-.427c.1.125.005 0-.012-.024q-.04-.058-.075-.118a3 3 0 0 1-.132-.248c-.069-.145.048.126-.01-.025q-.024-.067-.046-.134a3 3 0 0 1-.079-.327c-.03-.163.014.139-.003-.027a2.6 2.6 0 0 1-.005-.447c.002-.03.024-.195 0-.028a2.5 2.5 0 0 1 .117-.465c.01-.027.07-.176.006-.026q.03-.064.06-.128.064-.125.141-.243.038-.058.08-.115c-.093.13-.002.004.017-.019a2.6 2.6 0 0 1 .315-.313 2.6 2.6 0 0 1 .486-.28c-.154.07.04-.011.07-.022.122-.042.247-.07.373-.094.163-.03-.139.014.027-.003a2.6 2.6 0 0 1 .545.005c-.167-.018-.005.001.025.007a2.6 2.6 0 0 1 .458.133l-.02-.007a2.6 2.6 0 0 1 .406.234q.082.06-.015-.015a2.6 2.6 0 0 1 .427.427c-.105-.13.02.035.038.062q.089.138.16.286c.014.026.075.173.013.022a2.6 2.6 0 0 1 .141.484 3 3 0 0 1 .017.297.633.633 0 0 0 .627.627c.34 0 .63-.285.627-.627a3.23 3.23 0 0 0-1.091-2.406c-.75-.649-1.699-.883-2.67-.743-.894.128-1.685.719-2.164 1.467-.496.775-.605 1.79-.324 2.662a3.27 3.27 0 0 0 1.366 1.743c.67.43 1.467.537 2.242.426 1.521-.219 2.627-1.653 2.641-3.15a.63.63 0 0 0-.627-.626.633.633 0 0 0-.627.627m-.009 7.7H2.65c-.053 0-.206-.023-.053.003a1 1 0 0 1-.137-.038c.145.048.013.003-.02-.015-.03-.017-.145-.11-.024-.01-.028-.024-.157-.176-.058-.044a1 1 0 0 1-.073-.12c-.076-.135.041.126-.008-.023-.01-.032-.035-.187-.015-.022a1 1 0 0 1-.005-.1v-2.12q.001-.167.017-.332c.018-.18-.022.13.008-.049a3 3 0 0 1 .118-.466q.026-.075.055-.15c-.054.14.031-.065.043-.09q.07-.14.153-.273.041-.067.086-.13c.012-.018.116-.156.026-.04.139-.178.3-.336.473-.48.133-.11-.102.074.038-.028q.063-.046.13-.088c.284-.187.404-.552.224-.858-.166-.283-.572-.412-.858-.225a3.87 3.87 0 0 0-1.666 2.336c-.126.536-.1 1.087-.1 1.633v1.354c0 .9.746 1.63 1.64 1.63h5.56a.633.633 0 0 0 .627-.628.633.633 0 0 0-.627-.627"/></mask><path fill="#000" d="M31.575 12.123q.066.041.13.085c.017.012.153.117.038.026a3 3 0 0 1 .441.431c.014.017.118.153.03.035a3.3 3.3 0 0 1 .34.58c-.063-.134.008.024.016.045q.056.148.095.301.02.078.037.156c.006.027.041.255.02.099.06.454.024.933.024 1.39v1.114q0 .05-.005.099.02-.13-.002-.024c-.007.03-.065.176 0 .028a1 1 0 0 1-.068.122c-.081.132.087-.095-.017.019-.021.023-.14.119-.013.023a1 1 0 0 1-.118.073c-.137.076.125-.04-.025.008-.031.01-.186.036-.022.015a1 1 0 0 1-.1.005H26.8a.633.633 0 0 0-.627.627c0 .342.285.627.627.627h5.26c.442 0 .88-.018 1.252-.3.423-.319.689-.787.689-1.325v-2.013c0-.79-.198-1.56-.643-2.218a4 4 0 0 0-1.149-1.111c-.288-.185-.69-.06-.858.225-.178.304-.062.673.225.857M8.212 9.053q-.002.15-.017.298c.017-.167-.002-.005-.007.025q-.014.072-.031.141a3 3 0 0 1-.086.273c-.055.152.057-.122-.01.025a2.6 2.6 0 0 1-.233.405c-.09.13.085-.103-.015.021q-.044.054-.091.106-.094.103-.199.195-.053.046-.107.09c.13-.105-.035.02-.062.037a2.6 2.6 0 0 1-.371.201c.148-.066.001-.003-.026.007q-.136.047-.275.08-.071.016-.142.029l.022-.002a3 3 0 0 1-.397.015q-.075-.003-.148-.01c-.166-.014.137.023-.027-.003a2.6 2.6 0 0 1-.506-.143l.02.008a2.6 2.6 0 0 1-.367-.207c-.023-.016-.15-.111-.023-.012a2.6 2.6 0 0 1-.427-.427c.1.125.005 0-.012-.024q-.04-.058-.075-.118a3 3 0 0 1-.132-.248c-.069-.145.048.126-.01-.025q-.024-.067-.046-.134a3 3 0 0 1-.079-.327c-.03-.163.014.139-.003-.027a2.6 2.6 0 0 1-.005-.447c.002-.03.024-.195 0-.028a2.5 2.5 0 0 1 .117-.465c.01-.027.07-.176.006-.026q.03-.064.06-.128.064-.125.141-.243.038-.058.08-.115c-.093.13-.002.004.017-.019a2.6 2.6 0 0 1 .315-.313 2.6 2.6 0 0 1 .486-.28c-.154.07.04-.011.07-.022.122-.042.247-.07.373-.094.163-.03-.139.014.027-.003a2.6 2.6 0 0 1 .545.005c-.167-.018-.005.001.025.007a2.6 2.6 0 0 1 .458.133l-.02-.007a2.6 2.6 0 0 1 .406.234q.082.06-.015-.015a2.6 2.6 0 0 1 .427.427c-.105-.13.02.035.038.062q.089.138.16.286c.014.026.075.173.013.022a2.6 2.6 0 0 1 .141.484 3 3 0 0 1 .017.297.633.633 0 0 0 .627.627c.34 0 .63-.285.627-.627a3.23 3.23 0 0 0-1.091-2.406c-.75-.649-1.699-.883-2.67-.743-.894.128-1.685.719-2.164 1.467-.496.775-.605 1.79-.324 2.662a3.27 3.27 0 0 0 1.366 1.743c.67.43 1.467.537 2.242.426 1.521-.219 2.627-1.653 2.641-3.15a.63.63 0 0 0-.627-.626.633.633 0 0 0-.627.627m-.009 7.7H2.65c-.053 0-.206-.023-.053.003a1 1 0 0 1-.137-.038c.145.048.013.003-.02-.015-.03-.017-.145-.11-.024-.01-.028-.024-.157-.176-.058-.044a1 1 0 0 1-.073-.12c-.076-.135.041.126-.008-.023-.01-.032-.035-.187-.015-.022a1 1 0 0 1-.005-.1v-2.12q.001-.167.017-.332c.018-.18-.022.13.008-.049a3 3 0 0 1 .118-.466q.026-.075.055-.15c-.054.14.031-.065.043-.09q.07-.14.153-.273.041-.067.086-.13c.012-.018.116-.156.026-.04.139-.178.3-.336.473-.48.133-.11-.102.074.038-.028q.063-.046.13-.088c.284-.187.404-.552.224-.858-.166-.283-.572-.412-.858-.225a3.87 3.87 0 0 0-1.666 2.336c-.126.536-.1 1.087-.1 1.633v1.354c0 .9.746 1.63 1.64 1.63h5.56a.633.633 0 0 0 .627-.628.633.633 0 0 0-.627-.627"/><path fill="#000" d="m31.575 12.123-.108.168zm.13.085.113-.164zm.038.026.123-.157-.247.314zm.441.431.152-.13zm.03.035.16-.12-.32.24zm.117.17.167-.11zm.155.27-.177.092zm.068.14-.182.084.363-.167zm.016.045.187-.072zm.095.301.193-.052zm.037.156.195-.043zm.02.099.2-.026-.397.051zm.019 2.603-.2-.02.398.048zm-.002-.024.195.043V16.5zm0 .028.183.08-.366-.16zm-.068.122-.17-.105zm-.017.019-.148-.135zm-.013.023.12.16-.24-.32zm-.118.073.097.175zm-.025.008-.062-.19zm-.022.015.025.199-.05-.397zm.835.96-.12-.16zm.046-5.557.166-.112zm-1.149-1.111-.108.168zm-.858.225.173.1zM8.195 9.35l-.199-.021.398.042zm-.007.025L7.99 9.34zm-.031.141.194.047zm-.086.273.188.069zm-.01.025.183.082zm-.084.167L7.8 9.887zm-.149.238-.164-.114zm-.015.021-.156-.125zm-.091.106-.149-.134zm-.199.195.133.149zm-.107.09-.126-.156.251.311zm-.062.037.11.167zm-.244.14.092.179zm-.127.061-.082-.182.164.365zm-.026.007.068.188zm-.275.08.046.194zm-.142.029.03.197h.005zm.022-.002.028.198-.051-.397zm-.098.01-.016-.2h-.001zm-.3.005-.005.2zm-.147-.01.017-.2zm-.027-.003.032-.198zm-.281-.066.054-.192zm-.136-.043-.067.188h.002zm-.089-.034.074-.186-.153.37zm.02.008-.082.182zm-.249-.132-.101.172zm-.118-.075-.11.166zm-.023-.012-.123.158.245-.317zm-.427-.427.156-.126-.312.251zm-.012-.024.165-.113zm-.075-.118.17-.104zm-.132-.248.18-.086zm-.01-.025.187-.072zm-.046-.134-.19.06zm-.079-.327.197-.036zm-.003-.027-.2.02zm-.01-.148.2-.01zm.005-.299-.2-.013zm0-.028L4.127 8.8l.396.057zm.026-.143.196.04zm.091-.322-.19-.065zm.006-.026-.183-.079.367.158zm.06-.128L4.33 8.12zm.141-.243-.168-.108zm.08-.115.162.117-.324-.234zm.017-.019.154.128zm.226-.234.136.146zm.106-.091-.125-.157-.003.003zm-.017.012-.124-.157.242.318zm.076-.054.113.166.001-.001zm.282-.166-.092-.178zm.128-.06.082.182-.164-.365zm.07-.022-.064-.19zm.373-.094-.036-.196zm.027-.003.02.199zm.198-.012-.006-.2zm.347.017-.021.199.041-.398zm.025.007-.036.197zm.188.043.05-.193zm.182.057.066-.188-.001-.001zm.088.033-.073.186.153-.369zm-.02-.007.083-.182zm.29.156-.106.17zm.116.078.118-.161-.004-.004zm-.015-.015.122-.158-.246.315zm.072.06-.13.152h.002zm.234.225-.146.137zm.12.142-.155.125.311-.25zm.039.062.166-.11zm.16.286-.178.088zm.013.022.186-.075-.37.15zm.064.18-.19.06zm.079.326.197-.03v-.006zm-.002-.022.198-.028-.397.051zm.01.098-.2.015v.002zm1.261.199-.2.002zM8.375 6.648l.13-.15zm-2.67-.743.028.198zM3.54 7.372l.169.107zm-.324 2.662-.19.062zm1.366 1.743.107-.168zm2.242.426-.028-.198zm2.641-3.15-.2-.001zm-6.87 7.703-.034.197.069-.394zm-.137-.038.062-.19-.125.38zm-.02-.015-.097.175zm-.024-.01-.128.153.256-.307zm-.058-.044-.16.12.32-.24zm-.073-.12.175-.096zm-.008-.023-.19.062zm-.015-.022-.198.024.397-.049zm.012-2.552.2.02zm.008-.049.197.033zm.032-.158-.196-.043zm.086-.308.19.062zm.055-.15.187.072-.374-.143zm.043-.09-.18-.087zm.153-.273-.17-.105zm.086-.13.165.112zm.026-.04-.157-.124.315.247zm.473-.48.128.154zm.038-.028-.118-.162zm.13-.088-.11-.167zm.224-.858.173-.1zm-.858-.225.11.168zm-1.666 2.336.195.046zm30.364-1.1.124.082.227-.33-.135-.089zm.124.082.023.017.04.03.015.011.01.007.011.007a.2.2 0 0 0 .048.02c.006.001.044.012.092.002a.4.4 0 0 0 .104-.059.4.4 0 0 0 .054-.121c.005-.06-.019-.102-.022-.108a.185.185 0 0 0-.042-.055l-.005-.004-.053-.043-.247.314.038.03-.005-.003-.014-.015s-.015-.016-.027-.04c-.003-.005-.026-.048-.022-.107a.4.4 0 0 1 .054-.122.4.4 0 0 1 .105-.059c.047-.01.085.001.092.003a.2.2 0 0 1 .058.026q.003.001.003.002l.002.001-.003-.002-.006-.005-.076-.056zm.028.018q.109.088.216.192l.277-.288a3 3 0 0 0-.246-.218zm.216.192q.1.098.197.212l.304-.26a3 3 0 0 0-.224-.24zm.197.212.018.022.03.04.011.013.003.004.003.004.02.02.019.014c.001.001.034.026.084.033a.35.35 0 0 0 .148-.037.35.35 0 0 0 .08-.134c.006-.05-.01-.09-.01-.092a.2.2 0 0 0-.023-.045l-.002-.005-.04-.052-.32.24.031.041q0 0-.002-.003l-.007-.013s-.009-.014-.015-.032c0-.001-.016-.04-.01-.092a.35.35 0 0 1 .08-.134.35.35 0 0 1 .148-.037c.05.007.083.032.084.033q.015.01.02.015l.012.012.009.01-.008-.01-.059-.075zm.022.025q.054.075.11.16l.334-.22a4 4 0 0 0-.124-.18zm.11.16q.075.118.145.252l.354-.185a3 3 0 0 0-.164-.286zm.145.252.063.132.363-.167q-.032-.07-.072-.15zm.426-.035-.029-.062-.003-.006-.01-.017c-.002-.002-.013-.018-.03-.034-.006-.005-.036-.033-.085-.045a.4.4 0 0 0-.121.007.4.4 0 0 0-.1.082c-.029.048-.029.095-.029.102a.2.2 0 0 0 .016.081l.008.018.02.046.008.02.003.007.374-.143-.038-.088-.003-.007-.001-.003v.001l.002.004.004.013.005.023.002.033c0 .008 0 .054-.03.102a.4.4 0 0 1-.098.082.4.4 0 0 1-.121.007c-.05-.012-.08-.04-.085-.045-.018-.016-.029-.032-.03-.034l-.01-.016-.003-.005.02.044zm-.352.199q.05.134.09.282l.385-.104a3 3 0 0 0-.101-.32zm.09.282q.017.068.033.146l.391-.085c-.01-.05-.023-.108-.039-.165zm.033.146.002.01.005.03.012.07.005.029.003.015.005.018c.001.002.005.015.013.03a.2.2 0 0 0 .25.095.2.2 0 0 0 .127-.16l.001-.026v-.017l-.002-.018-.006-.045-.396.051.004.04v-.012l.002-.027q0-.01.01-.042c.003-.006.029-.084.117-.117a.2.2 0 0 1 .248.095c.008.015.012.028.013.03l.004.014q0 .004 0 0l-.004-.021-.022-.127zm.019.082c.056.438.02.887.02 1.365h.4c0-.436.037-.944-.024-1.416zm.02 1.365v1.114h.4v-1.114zm0 1.114-.003.08.398.038q.006-.059.006-.118zm.394.127.01-.086v-.032s-.002-.035-.021-.073a.2.2 0 0 0-.368.026l-.008.029-.01.045.393.078.006-.031-.003.012a.2.2 0 0 1-.022.044.2.2 0 0 1-.365-.092l-.001-.019v-.011.007l-.007.046zm-.395-.096c0-.005 0-.002-.006.017l-.016.045s-.007.02-.01.038a.2.2 0 0 0 0 .077.2.2 0 0 0 .367.066l.008-.014.035-.077-.366-.16-.022.048.006-.01.01-.013a.2.2 0 0 1 .355.155c-.002.015-.007.026-.003.016l.014-.041c.004-.012.013-.039.018-.06zm.012-.008a1 1 0 0 1-.055.097l.34.21c.023-.037.056-.089.081-.147zm-.055.097-.035.063a.3.3 0 0 0-.017.064.2.2 0 0 0 .01.088.2.2 0 0 0 .32.085l.01-.009.006-.006a.3.3 0 0 0 .038-.046 1 1 0 0 0 .039-.065.3.3 0 0 0 .016-.06.2.2 0 0 0-.091-.192.2.2 0 0 0-.222.004l-.027.02-.042.043.296.27q.008-.01.012-.013.004-.004.001-.002l-.008.007a.2.2 0 0 1-.064.032.2.2 0 0 1-.162-.024.2.2 0 0 1-.069-.26l.002-.002-.005.007-.004.005v.002h-.001v-.001l.005-.005a.2.2 0 0 1 .03-.024.2.2 0 0 1 .084-.032.2.2 0 0 1 .218.251l-.009.024-.003.006.012-.02zm.005-.011-.014.012-.034.031a.3.3 0 0 0-.041.046c-.003.005-.018.027-.026.059a.2.2 0 0 0 .241.246.205.205 0 0 0 .063-.027q.022-.015.067-.05l-.241-.319-.042.032.01-.006.012-.006a.2.2 0 0 1 .183.009.2.2 0 0 1 .093.225.205.205 0 0 1-.038.074c-.01.012-.02.02-.012.013l.031-.028c.01-.008.03-.026.044-.041zm.015-.002a1 1 0 0 1-.095.059l.194.35c.038-.022.092-.051.142-.09zm-.095.059-.063.038-.01.008a.2.2 0 0 0-.055.075.2.2 0 0 0 .235.274l.01-.003a.3.3 0 0 0 .056-.022.4.4 0 0 0 .057-.031l.01-.007a.2.2 0 0 0 .06-.075.2.2 0 0 0-.01-.19.2.2 0 0 0-.189-.096l-.014.001a.3.3 0 0 0-.047.011l-.03.01.125.38.017-.006h.002l-.01.001a.2.2 0 0 1-.069-.003.2.2 0 0 1-.077-.036.2.2 0 0 1-.058-.244.2.2 0 0 1 .063-.075l.007-.005.003-.002-.007.004-.006.002-.002.001h.001l.024-.006a.2.2 0 0 1 .064 0 .2.2 0 0 1 .103.048.2.2 0 0 1 .01.286l-.02.018-.006.005q-.004 0 .02-.012zm.01-.008-.019.004-.047.01-.013.003-.03.01-.023.011c-.005.003-.037.02-.063.056a.2.2 0 0 0 .013.254c.043.047.095.058.099.059.025.006.045.006.047.006h.015q.028-.002.086-.01l-.05-.396-.054.006h.01s.02 0 .044.006c.004.001.056.012.099.059a.2.2 0 0 1 .013.253c-.027.036-.058.053-.063.056l-.023.01c-.017.008-.032.01-.02.008l.043-.01c.013-.002.04-.008.06-.014zm.016.007a1 1 0 0 1-.076.003v.4c.033 0 .083-.001.125-.006zm-.076.003H26.8v.4h5.577zm-5.577 0a.833.833 0 0 0-.827.827h.4c0-.231.196-.427.427-.427zm-.827.827c0 .453.375.827.827.827v-.4a.433.433 0 0 1-.427-.427zm.827.827h5.26v-.4h-5.26zm5.26 0c.439 0 .94-.014 1.373-.34l-.241-.32c-.314.238-.688.26-1.133.26zm1.373-.34c.466-.352.768-.876.768-1.485h-.4c0 .468-.23.88-.609 1.165zm.768-1.485v-2.013h-.4v2.013zm0-2.013c0-.822-.206-1.633-.678-2.33l-.33.225c.419.62.608 1.35.608 2.105zm-.678-2.33a4.15 4.15 0 0 0-1.206-1.168l-.216.337c.434.278.804.63 1.091 1.056zm-1.206-1.168c-.394-.253-.92-.08-1.138.293l.345.202c.117-.2.396-.274.577-.158zm-1.138.293c-.24.408-.077.892.29 1.127l.215-.337c-.208-.133-.277-.388-.16-.588zM8.012 9.052q-.001.139-.016.278l.398.041q.016-.157.018-.315zm.382.32.008-.091a.2.2 0 0 0-.019-.09.2.2 0 0 0-.35-.023c-.012.021-.019.04-.02.043a.235.235 0 0 0-.008.03l-.003.021-.006.047-.003.022-.002.01.394.071.013-.095v-.002l-.001.006-.006.022a.2.2 0 0 1-.388-.052v-.026.001L8 9.283l-.005.047zM7.99 9.34q-.01.06-.029.13l.389.094q.018-.07.034-.152zm-.029.13q-.03.123-.079.252l.376.137q.053-.14.092-.295zm-.079.252-.023.072a.2.2 0 0 0 0 .086.2.2 0 0 0 .384.027 1 1 0 0 0 .036-.098.2.2 0 0 0-.062-.187.4.4 0 0 0-.05-.033.4.4 0 0 0-.058-.017.2.2 0 0 0-.21.117l-.02.044.364.164.014-.03q0-.001 0 0l-.005.009a.2.2 0 0 1-.058.06.2.2 0 0 1-.302-.226v.002l-.014.033q-.001.003 0 0l.013-.022a.2.2 0 0 1 .293-.038.2.2 0 0 1 .066.194l-.003.01v.001l.011-.031zm-.004.01q-.033.074-.078.155l.352.19a3 3 0 0 0 .091-.18zm-.078.155q-.06.109-.137.219l.328.228c.055-.08.111-.165.16-.256zm-.137.219-.016.022-.011.018-.023.043a.2.2 0 0 0-.007.118.2.2 0 0 0 .324.106l.007-.006a.2.2 0 0 0 .028-.03l.043-.058.005-.009a.2.2 0 0 0 .024-.054.2.2 0 0 0-.07-.21.4.4 0 0 0-.058-.031.4.4 0 0 0-.053-.011c-.011 0-.031 0-.04.002l-.048.012a.2.2 0 0 0-.072.05l-.004.005-.019.022-.017.02.312.252.022-.027-.007.007-.012.01a.2.2 0 0 1-.052.032.2.2 0 0 1-.274-.163.2.2 0 0 1 .03-.13v.002l-.022.028.005-.005.014-.013a.2.2 0 0 1 .202-.033.4.4 0 0 1 .047.027.2.2 0 0 1 .052.258l.018-.026zm-.007.01-.084.097.298.267q.047-.051.098-.114zm-.084.097q-.083.091-.184.18l.268.298q.108-.096.214-.21zm-.184.18q-.044.04-.099.083l.251.311q.055-.042.115-.096zm.152.394.052-.042s.012-.01.023-.024a.2.2 0 0 0 .044-.088.2.2 0 0 0-.247-.236q-.029.009-.035.013a.875.875 0 0 0-.05.032q-.026.017-.053.038l-.022.016-.01.007.221.333.096-.069.008-.005.002-.002-.003.002-.016.008a.2.2 0 0 1-.093.02.2.2 0 0 1-.166-.3l.021-.03.013-.013.002-.002-.005.004-.033.027zm-.298-.284q-.104.068-.225.13l.184.354q.131-.065.262-.151zm-.225.13-.117.055.164.365q.065-.03.137-.066zm.047.42.07-.032.007-.005.009-.004.021-.015a.2.2 0 0 0 .067-.098.2.2 0 0 0-.223-.256q-.019.002-.024.005l-.008.002-.023.009-.044.018-.02.008-.007.003h-.002l.137.377.085-.035c.008-.003.005-.002 0 0l-.007.002-.024.005q-.007.003-.042.003a.2.2 0 0 1-.164-.103.2.2 0 0 1 .017-.219c.015-.02.03-.031.033-.034l.022-.015.007-.004.004-.002-.003.001-.011.005-.041.019zm-.177-.364q-.12.042-.253.073l.094.39q.145-.035.296-.087zm-.253.073q-.06.014-.131.027l.072.393c.046-.008.1-.018.153-.03zm-.127.026-.054.009-.006.001-.007.002-.02.006q-.006.001-.03.015a.2.2 0 0 0-.099.154.2.2 0 0 0 .138.209c.022.007.041.009.045.009h.031c.013 0 .047-.006.084-.011l-.057-.396-.056.008h.03c.004 0 .023.002.045.01a.2.2 0 0 1 .079.332.2.2 0 0 1-.09.051l-.006.002h-.004.003l.037-.006zm.03-.003-.09.009.031.399.105-.01zm-.091.01q-.133.01-.276.004l-.012.4q.155.006.322-.006zm-.276.004-.137-.01-.034.4q.073.006.16.01zm-.137-.01-.028-.001-.032-.002H5.95a.2.2 0 0 0-.11.044.2.2 0 0 0-.07.115.2.2 0 0 0 .115.225l.015.005.033.009a1 1 0 0 0 .125.01.2.2 0 0 0 .044-.008.2.2 0 0 0 .064-.035.2.2 0 0 0-.095-.354l-.049-.009-.064.395.034.006H5.99l-.012-.004a.2.2 0 0 1-.113-.092.2.2 0 0 1 .14-.295l.024-.002h.016q.002 0 0 0l-.038-.005q-.003 0 0 0l.006.001.009.003.009.002a.2.2 0 0 1 .042.022.2.2 0 0 1 .06.06.2.2 0 0 1-.158.307h-.011l.035.002zm-.012 0a2 2 0 0 1-.259-.061l-.108.385c.095.027.197.053.303.07zm-.259-.061-.125-.04-.13.378q.067.024.147.047zm-.123-.04-.082-.03-.147.371q.047.02.095.036zm-.235.339.092.037q.005.001.035.006c.005 0 .036.003.073-.008a.4.4 0 0 0 .092-.06.35.35 0 0 0 .05-.146.4.4 0 0 0-.027-.087l-.024-.033a.2.2 0 0 0-.044-.036l-.012-.007-.004-.002-.004-.002-.011-.005-.036-.016-.162.366.033.015.004.002-.002-.002-.004-.002-.011-.006-.019-.013a.2.2 0 0 1-.05-.056.4.4 0 0 1-.026-.087c0-.038.025-.113.05-.147a.4.4 0 0 1 .091-.059.2.2 0 0 1 .074-.008q.03.005.035.006l.015.005.005.001-.054-.023zm.181-.358a2 2 0 0 1-.23-.122l-.202.344q.125.077.268.142zm-.229-.122-.109-.07-.221.333q.057.039.127.081zm-.109-.07-.008-.005-.017-.013-.038-.027-.048-.029a.2.2 0 0 0-.264.26c.01.025.023.042.026.046l.019.021.007.007.007.006.06.047.244-.317-.035-.027-.008-.006.006.005.018.02c.003.005.016.021.026.047a.2.2 0 0 1-.227.27c-.018-.003-.032-.009-.036-.01l-.027-.015q-.008-.005 0 0c.012.009.058.043.074.053zm-.012-.004a2.4 2.4 0 0 1-.393-.394l-.312.251c.134.166.286.324.46.46zm-.705-.143.063.074.023.02a.2.2 0 0 0 .046.023c.008.003.11.042.2-.036a.2.2 0 0 0 .056-.224l-.013-.026-.005-.009c-.005-.009-.013-.018-.015-.021l-.028-.038-.013-.017-.004-.006-.001-.002-.33.227.054.072-.001-.002-.005-.008q-.003-.004-.012-.025a.2.2 0 0 1 .056-.224c.09-.078.192-.039.2-.036.024.009.04.02.045.024l.023.018.01.011-.009-.011-.028-.035zm.308-.262-.069-.11-.34.21q.035.061.08.127zm-.07-.11a2 2 0 0 1-.12-.229l-.362.171c.041.088.088.18.142.268zm-.12-.229-.037-.07a.2.2 0 0 0-.054-.054l-.045-.023a.2.2 0 0 0-.095-.01.4.4 0 0 0-.061.02.4.4 0 0 0-.051.036l-.032.04-.016.034-.011.046q-.002.017-.001.027a.2.2 0 0 0 .019.083 1 1 0 0 0 .043.09.2.2 0 0 0 .2.086.4.4 0 0 0 .052-.016.2.2 0 0 0 .101-.254l-.016-.046-.373.144.011.031-.006-.03a.2.2 0 0 1 .019-.114.2.2 0 0 1 .354-.008q0 .003 0 0l-.015-.033v-.002l.004.013a.2.2 0 0 1-.006.12.2.2 0 0 1-.047.074.4.4 0 0 1-.052.037.4.4 0 0 1-.061.019.2.2 0 0 1-.196-.09l-.005-.01.015.031zm-.004-.01-.043-.125-.38.123c.014.044.03.095.05.145zm-.043-.125a2 2 0 0 1-.072-.301l-.394.072q.03.173.086.352zm-.072-.301-.017-.075a.2.2 0 0 0-.064-.095l-.026-.017a.2.2 0 0 0-.298.21 1 1 0 0 0 .018.099.2.2 0 0 0 .027.054.2.2 0 0 0 .363-.139l-.005-.05-.397.043.003.034v-.011a.2.2 0 0 1 .02-.08.2.2 0 0 1 .374.04q0 .003 0 0l-.006-.037v-.002.015a.2.2 0 0 1-.038.114.2.2 0 0 1-.351-.054l-.003-.01V9.33l.006.034zm-.002-.012-.009-.137-.4.02q.004.074.012.159zm-.009-.137a2 2 0 0 1 .006-.276l-.4-.026a3 3 0 0 0-.005.321zm.006-.276V8.86l.003-.022.006-.047.002-.02v-.023a.2.2 0 0 0-.013-.066c-.003-.009-.023-.062-.081-.098a.4.4 0 0 0-.127-.028.4.4 0 0 0-.095.036c-.034.024-.051.053-.055.06-.012.019-.017.036-.018.038l-.008.034-.012.076.396.057.01-.064V8.79l-.002.008-.005.019c-.001.002-.006.019-.018.038-.004.007-.021.036-.055.06a.4.4 0 0 1-.095.036.4.4 0 0 1-.127-.029.2.2 0 0 1-.092-.136q-.002-.021-.002-.027v-.02.005c-.003.017-.01.076-.011.097zm-.002-.012q.01-.062.024-.132l-.392-.08q-.015.072-.028.155zm.024-.132q.031-.146.084-.297l-.378-.13q-.059.165-.098.348zm.084-.297.003-.008.008-.02.017-.044.015-.048a.2.2 0 0 0-.326-.19c-.019.017-.03.033-.033.036l-.013.02-.007.015-.03.07.367.157.023-.053.002-.004-.002.003-.003.006q0 .004-.013.02c-.002.003-.013.02-.032.036a.2.2 0 0 1-.326-.19l.004-.019.002-.006q.003-.007 0 .002l-.034.087zm.001-.012q.024-.055.056-.118L4.33 8.12q-.032.062-.065.137zm.056-.118q.056-.11.13-.224l-.337-.215a3 3 0 0 0-.151.262zm.13-.224q.031-.05.073-.106l-.324-.234q-.042.057-.086.124zm-.252-.34-.045.065-.006.009a.2.2 0 0 0-.027.094c0 .024.018.09.04.127.04.04.133.078.176.08a.4.4 0 0 0 .077-.023c.021-.011.035-.024.038-.026l.016-.016.008-.009.012-.016.027-.036.013-.016.005-.007-.307-.256-.058.075-.004.005.002-.002.007-.008.017-.016c.002-.002.016-.015.038-.026a.4.4 0 0 1 .076-.022c.044 0 .136.039.177.079.022.037.039.103.04.127l-.008.046-.01.031-.01.017-.006.01.037-.052zm.334.226q.093-.11.208-.216l-.272-.293q-.126.114-.243.253zm.208-.216q.044-.04.098-.084l-.256-.307q-.055.045-.114.099zm.095-.081q.02-.017.03-.024l.007-.006.01-.009.009-.008a.2.2 0 0 0 .026-.035.4.4 0 0 0 .026-.067.34.34 0 0 0-.102-.213.4.4 0 0 0-.136-.02c-.03.007-.051.019-.051.019l-.018.01-.008.006-.002.002-.057.044.248.314.038-.03.011-.009-.002.002-.007.005-.018.01s-.022.012-.051.019a.4.4 0 0 1-.137-.02.34.34 0 0 1-.101-.212.4.4 0 0 1 .025-.068l.027-.034.009-.009.005-.004.001-.002h.001-.001l-.032.026zm-.024.017.07-.05-.224-.33-.082.058zm.072-.05q.12-.083.26-.153l-.184-.356q-.152.078-.304.18zm.26-.153c.036-.02.074-.036.118-.056l-.164-.365q-.065.029-.138.065zm-.046-.42-.046.02c-.002.001-.025.011-.043.024q-.006.003-.029.024a.2.2 0 0 0 .148.342q.028-.002.035-.005c.015-.003.028-.008.029-.008l.026-.01.06-.023.027-.01.01-.005-.13-.378-.111.043-.01.004-.003.001h.003l.017-.005c.003 0 .016-.004.034-.004a.2.2 0 0 1 .185.111.2.2 0 0 1-.038.23c-.013.014-.026.022-.028.024-.015.01-.028.015-.011.007l.039-.018zm.218.349q.162-.054.343-.086l-.072-.393a3 3 0 0 0-.401.1zm.343-.086.075-.016a.2.2 0 0 0 .055-.028.2.2 0 0 0 .084-.154.4.4 0 0 0-.006-.06.2.2 0 0 0-.215-.15 1 1 0 0 0-.075.012l-.05.013a.2.2 0 0 0-.103.088.2.2 0 0 0 .197.298l.05-.004-.042-.398-.035.003h.012a.2.2 0 0 1 .08.02.2.2 0 0 1-.04.374q-.003 0 0 0l.037-.006h.001-.006a.2.2 0 0 1-.083-.015.2.2 0 0 1-.038-.347.2.2 0 0 1 .053-.027l.01-.003h.001l-.034.007zm.012-.001q.085-.009.183-.01l-.012-.4c-.066.001-.14.004-.213.012zm.182-.01q.155-.004.32.015l.042-.398a3 3 0 0 0-.373-.017zm.362-.383-.109-.008a.2.2 0 0 0-.094.368c.021.013.04.02.043.02l.022.007.007.001.022.004.047.006.022.003.01.002.071-.394c-.02-.004-.079-.011-.095-.013h-.002.006l.022.007a.2.2 0 0 1-.07.389h-.008.018l.047.006zm-.03.403q.08.015.172.04l.101-.387a3 3 0 0 0-.202-.047zm.172.04q.08.022.168.052l.13-.378a3 3 0 0 0-.197-.061zm.166.052.082.03.147-.371-.096-.036zm.235-.339-.093-.037c-.002-.001-.018-.005-.037-.006-.006 0-.038-.003-.076.01a.4.4 0 0 0-.09.062.35.35 0 0 0-.046.142.2.2 0 0 0 .075.142l.02.013.01.007.005.003.005.002.046.02.163-.365-.033-.015-.004-.002.002.002.004.002.012.006a.2.2 0 0 1 .044.038c.003.003.045.047.05.118a.35.35 0 0 1-.046.142.4.4 0 0 1-.09.062c-.038.013-.07.01-.076.01-.02-.001-.035-.005-.037-.006l-.016-.005-.005-.001.054.023zm-.181.358q.133.061.265.145l.21-.341c-.097-.06-.2-.119-.311-.168zm.266.145q.05.03.107.071l.228-.329q-.057-.04-.126-.083zm.102.068.065.044a.2.2 0 0 0 .069.02c.01.002.078.01.143-.037a.2.2 0 0 0 .05-.265q-.017-.027-.022-.03l-.01-.01c-.01-.01-.027-.023-.03-.026l-.04-.03-.243.317.036.028c.015.011.008.007 0-.001l-.009-.009c-.001-.002-.012-.013-.022-.03a.2.2 0 0 1 .05-.265.2.2 0 0 1 .185-.029q.022.008.027.012l.01.005.006.004q.005.003 0 0l-.028-.02zm-.02-.019q.034.027.066.055l.26-.305-.078-.064zm.068.056q.11.093.216.209l.292-.273a3 3 0 0 0-.252-.243zm.216.209q.054.06.11.13l.312-.25a3 3 0 0 0-.13-.153zm.422-.12-.042-.052s-.01-.012-.023-.023q-.006-.006-.032-.023a.2.2 0 0 0-.293.226q.009.029.013.035a.2.2 0 0 0 .032.05c.01.016.026.036.038.053l.016.022.007.01.333-.222-.069-.095-.005-.008-.002-.003.002.004.009.016q.003.006.012.034a.2.2 0 0 1-.292.225c-.017-.01-.028-.02-.031-.022q-.013-.01-.013-.012l-.002-.002.004.004.027.033zm-.284.298q.08.122.149.263l.358-.177a3 3 0 0 0-.174-.307zm.149.263.003.008.008.02.018.04.007.017.002.004.006.01.013.02c.002.003.012.017.028.032.01.008.037.026.055.034.032.01.114.013.16-.002a.35.35 0 0 0 .106-.113.4.4 0 0 0 .012-.06c.001-.02-.002-.037-.002-.041l-.005-.022-.004-.012-.001-.004-.002-.005-.027-.067-.37.15.024.061-.005-.014-.005-.022q-.002-.008-.002-.041c0-.012.006-.043.012-.06a.35.35 0 0 1 .105-.114.35.35 0 0 1 .16-.002.4.4 0 0 1 .055.035c.016.014.026.028.029.031q.011.016.012.02l.006.01.001.003-.002-.006-.039-.087zm.006.01q.031.076.058.165l.381-.123a3 3 0 0 0-.068-.193zm.058.165q.046.142.073.301l.393-.072a3 3 0 0 0-.085-.352zM8 8.81l.012.067.006.02a.2.2 0 0 0 .378-.01c.007-.022.009-.04.01-.044v-.031l-.012-.083-.396.056.008.057v-.03a.2.2 0 0 1 .373-.084q.013.024.014.031l.008.025v.004-.003l-.006-.037zm-.003-.03.009.09.399-.03-.01-.105zm.01.092q.005.086.006.184l.4-.004q0-.102-.008-.214zm.006.184c.004.448.37.825.827.825v-.4a.434.434 0 0 1-.427-.429zm.827.825a.83.83 0 0 0 .827-.829l-.4.004a.43.43 0 0 1-.427.425zm.827-.829a3.43 3.43 0 0 0-1.16-2.555l-.262.303a3.03 3.03 0 0 1 1.022 2.256zm-1.16-2.555c-.8-.691-1.807-.937-2.83-.79l.057.396c.92-.132 1.81.09 2.51.697zm-2.83-.79c-.961.138-1.8.769-2.303 1.557l.337.215c.453-.708 1.197-1.257 2.023-1.376zM3.373 7.264c-.53.829-.644 1.907-.346 2.832l.38-.123c-.263-.818-.16-1.771.303-2.494zm-.346 2.832c.25.773.772 1.417 1.448 1.85l.215-.337a3.07 3.07 0 0 1-1.282-1.636zm1.448 1.85c.72.46 1.568.571 2.378.455l-.056-.396c-.74.106-1.486.002-2.107-.396zm2.378.455c1.631-.235 2.798-1.762 2.813-3.345l-.4-.004c-.013 1.41-1.057 2.75-2.47 2.953zm2.813-3.345a.83.83 0 0 0-.827-.83v.4c.231 0 .43.198.427.426zm-.827-.83a.833.833 0 0 0-.827.826l.4.004a.434.434 0 0 1 .427-.43zm-.636 8.327H2.65v.4h5.554zm-5.554 0h-.011l-.023-.002-.05-.005-.028-.002h-.028c-.002.001-.03.003-.061.017a.2.2 0 0 0-.003.364l.023.01.017.004q.024.006.077.014l.069-.394-.051-.009.013.004a.2.2 0 0 1 .107.085.2.2 0 0 1-.088.287c-.031.014-.059.016-.06.017h-.026c-.006 0-.009 0 0 0 .016.002.084.01.123.01zm-.018.006a1 1 0 0 1-.11-.03l-.125.38c.043.014.103.034.166.044zm-.235.35.07.022.007.002.02.004c.001 0 .022.004.047.002.005 0 .058-.002.108-.04a.2.2 0 0 0 .059-.245c-.02-.04-.047-.063-.052-.067a.2.2 0 0 0-.056-.034l-.01-.003-.037-.015q-.023-.011-.016-.007l-.194.35c.031.017.092.04.1.043l-.008-.004q-.004 0-.017-.01l-.021-.015c-.004-.004-.032-.027-.051-.067a.2.2 0 0 1 .059-.244c.05-.038.103-.04.107-.04a.2.2 0 0 1 .066.006l-.003-.001-.012-.004-.041-.014zm.14-.381-.012-.01-.033-.024-.019-.013-.009-.006s-.014-.009-.035-.016a.2.2 0 0 0-.118-.005.2.2 0 0 0-.14.25c.01.035.028.058.03.06l.012.016q.012.014.015.015l.005.005.055.046.256-.307-.035-.029-.009-.008-.003-.002.001.001.004.003.01.01.012.016c.001.002.02.025.03.06a.2.2 0 0 1-.26.245l-.024-.01-.018-.01q-.009-.007 0-.001l.036.028c.011.008.034.024.055.036zm.007.01-.017-.017-.043-.046-.037-.035c-.003-.002-.016-.014-.036-.023a.2.2 0 0 0-.254.064.2.2 0 0 0-.023.185.445.445 0 0 0 .034.061l.03.042.32-.24-.023-.032-.002-.002.004.006q.003.005.012.027a.2.2 0 0 1-.024.183.2.2 0 0 1-.251.064c-.02-.01-.032-.02-.034-.021l-.009-.007.004.004.04.043c.011.012.034.037.053.052zm-.026-.01a1 1 0 0 1-.058-.095l-.35.194c.021.039.05.092.089.142zm-.058-.095-.039-.062a.3.3 0 0 0-.033-.035.2.2 0 0 0-.106-.046.201.201 0 0 0-.207.282.5.5 0 0 0 .063.114.2.2 0 0 0 .109.063.2.2 0 0 0 .237-.152.2.2 0 0 0 0-.096.4.4 0 0 0-.017-.058l-.38.125.005.017.001.002-.002-.01a.2.2 0 0 1 .003-.068.2.2 0 0 1 .356-.073l.005.008.001.002-.003-.007-.003-.005v-.003.002l.006.023a.2.2 0 0 1-.011.106.2.2 0 0 1-.295.094l-.029-.022-.018-.02-.004-.007.011.02zm.007.01-.004-.019-.01-.047-.003-.013a.202.202 0 0 0-.021-.053c-.003-.005-.02-.036-.055-.063a.2.2 0 0 0-.254.013c-.047.043-.058.095-.06.1-.006.024-.006.045-.006.046v.015q.002.028.01.086l.397-.049-.007-.055v.01s0 .02-.006.044a.2.2 0 0 1-.312.112.197.197 0 0 1-.066-.085c-.007-.017-.01-.032-.007-.02l.009.042c.002.013.008.04.015.06zm-.006.016-.004-.075h-.4c0 .031.002.084.007.124zm-.004-.075v-2.12h-.4v2.12zm0-2.12q0-.154.017-.313l-.399-.038q-.016.173-.018.35zm.017-.313.005-.081a.2.2 0 0 0-.022-.088l-.014-.023-.023-.028a.2.2 0 0 0-.104-.054.4.4 0 0 0-.07-.001.4.4 0 0 0-.055.018l-.037.023-.022.02a.2.2 0 0 0-.053.117 1 1 0 0 0-.008.093.2.2 0 0 0 .03.098.2.2 0 0 0 .118.089c.013.003.04.006.053.007l.05-.007a.2.2 0 0 0 .146-.156l.002-.01.01-.052-.395-.065-.007.039.001-.005.003-.009a.2.2 0 0 1 .039-.068.2.2 0 0 1 .099-.06.2.2 0 0 1 .25.197v.002l.004-.033q0-.003 0 0l-.007.027a.2.2 0 0 1-.042.068.2.2 0 0 1-.183.06.2.2 0 0 1-.163-.196v-.001l-.004.041zm.005-.035q.012-.07.03-.149l-.39-.085q-.02.08-.034.169zm.03-.149q.032-.141.082-.288l-.38-.125a3 3 0 0 0-.093.328zm.082-.288q.021-.066.05-.14l-.373-.143c-.018.048-.04.103-.058.158zm-.323-.283-.026.075c0 .003-.004.017-.004.036 0 .006-.002.034.008.069a.2.2 0 0 0 .188.14c.08.002.13-.046.135-.049a.2.2 0 0 0 .055-.077l.011-.026.028-.064.011-.026.004-.01-.36-.174-.05.114-.008.02q-.001.003 0 0l.006-.01q.002-.005.014-.02l.026-.029c.004-.003.054-.05.135-.049a.2.2 0 0 1 .187.14c.01.034.01.063.01.069q-.004.03-.006.035l-.003.014q-.001.003 0 0l.013-.034zm.41.068q.063-.127.144-.256l-.342-.209a3 3 0 0 0-.162.291zm.143-.256c.025-.04.051-.078.081-.122l-.33-.226q-.045.065-.091.139zm.081-.122.004-.006.013-.017.03-.04.012-.017.004-.006.019-.035c0-.001.013-.029.015-.067a.2.2 0 0 0-.316-.173c-.016.011-.026.023-.026.023l-.007.007-.044.055.315.247.027-.035-.006.006s-.01.011-.026.022l-.025.016a.2.2 0 0 1-.25-.057.2.2 0 0 1-.041-.132.197.197 0 0 1 .033-.1l.001-.001-.002.002-.005.007-.055.075zm.019-.03c.128-.163.279-.311.443-.448l-.256-.307c-.18.15-.353.318-.502.509zm.443-.448.045-.038.007-.007.007-.007.012-.014a.2.2 0 0 0 .035-.067l.006-.028.002-.042a.4.4 0 0 0-.012-.057.4.4 0 0 0-.037-.062.4.4 0 0 0-.055-.044.4.4 0 0 0-.05-.02l-.039-.005-.027.001a.2.2 0 0 0-.084.029l-.012.008a1 1 0 0 0-.095.084.2.2 0 0 0-.035.077.2.2 0 0 0 .269.228l.02-.01.01-.005.011-.006.008-.006.042-.03-.236-.323-.03.022.003-.002.007-.004.02-.009a.2.2 0 0 1 .085-.013.2.2 0 0 1 .125.344l-.001.001.024-.02q.003 0 0 0l-.008.006a.2.2 0 0 1-.05.021.2.2 0 0 1-.198-.33l.004-.004.001-.001-.03.026zm.028-.02q.055-.041.12-.082l-.218-.335q-.066.043-.138.093zm.12-.082c.361-.237.53-.715.289-1.127l-.345.202c.117.201.048.452-.162.59zm.289-1.127c-.216-.367-.745-.55-1.14-.29l.219.334c.177-.116.459-.041.576.158zm-1.14-.291a4.07 4.07 0 0 0-1.751 2.457l.389.092a3.67 3.67 0 0 1 1.58-2.214zM.909 13.345c-.134.565-.107 1.147-.107 1.679h.4c0-.56-.024-1.08.096-1.587zm-.107 1.679v1.354h.4v-1.354zm0 1.354c0 1.012.839 1.83 1.842 1.83v-.4a1.443 1.443 0 0 1-1.442-1.43zm1.842 1.83h5.56v-.4h-5.56zm5.56 0a.833.833 0 0 0 .826-.828h-.4a.433.433 0 0 1-.427.427zm.826-.828a.833.833 0 0 0-.827-.827v.4c.232 0 .427.196.427.427z" mask="url(#c)"/></svg>