<svg width="26" height="27" viewBox="0 0 26 27" fill="none" xmlns="http://www.w3.org/2000/svg">
<path d="M21.6667 17.8333C20.9942 17.8368 20.3394 18.0488 19.7925 18.44L17.1383 16.8692C17.2636 16.4804 17.3293 16.075 17.3333 15.6667C17.3302 14.7084 17.0096 13.7782 16.4215 13.0216C15.8335 12.2649 15.0112 11.7246 14.0833 11.485V8.97166C14.8062 8.71611 15.4154 8.21325 15.8033 7.55197C16.1912 6.8907 16.3329 6.11357 16.2032 5.35795C16.0736 4.60233 15.681 3.91687 15.0948 3.42271C14.5087 2.92856 13.7667 2.65753 13 2.65753C12.2334 2.65753 11.4914 2.92856 10.9052 3.42271C10.3191 3.91687 9.92646 4.60233 9.79682 5.35795C9.66717 6.11357 9.80883 6.8907 10.1967 7.55197C10.5847 8.21325 11.1939 8.71611 11.9167 8.97166V11.485C10.9888 11.7246 10.1666 12.2649 9.57851 13.0216C8.99046 13.7782 8.66979 14.7084 8.66668 15.6667C8.6707 16.075 8.73645 16.4804 8.86168 16.8692L6.20751 18.44C5.6606 18.0488 5.00579 17.8368 4.33335 17.8333C3.69056 17.8333 3.0622 18.0239 2.52774 18.3811C1.99328 18.7382 1.57672 19.2457 1.33074 19.8396C1.08475 20.4335 1.02039 21.0869 1.14579 21.7174C1.27119 22.3478 1.58073 22.9269 2.03525 23.3814C2.48977 23.8359 3.06886 24.1455 3.6993 24.2709C4.32974 24.3963 4.98321 24.3319 5.57707 24.0859C6.17093 23.84 6.67851 23.4234 7.03562 22.8889C7.39274 22.3545 7.58335 21.7261 7.58335 21.0833C7.57934 20.7899 7.53561 20.4984 7.45335 20.2167L9.94501 18.7325C10.7569 19.5396 11.8552 19.9926 13 19.9926C14.1448 19.9926 15.2431 19.5396 16.055 18.7325L18.5467 20.2167C18.3652 20.8727 18.3942 21.5692 18.6298 22.2079C18.8653 22.8466 19.2955 23.3952 19.8595 23.7763C20.4236 24.1573 21.093 24.3517 21.7735 24.3319C22.4539 24.3121 23.1109 24.0792 23.6519 23.666C24.1928 23.2528 24.5904 22.6801 24.7884 22.0288C24.9865 21.3776 24.975 20.6805 24.7557 20.0361C24.5363 19.3917 24.1202 18.8324 23.566 18.4372C23.0117 18.042 22.3474 17.8307 21.6667 17.8333ZM4.33335 22.1667C4.11908 22.1667 3.90963 22.1031 3.73148 21.9841C3.55332 21.865 3.41447 21.6959 3.33248 21.4979C3.25048 21.2999 3.22903 21.0821 3.27083 20.872C3.31263 20.6618 3.41581 20.4688 3.56731 20.3173C3.71882 20.1658 3.91185 20.0626 4.122 20.0208C4.33214 19.979 4.54997 20.0005 4.74792 20.0825C4.94587 20.1645 5.11507 20.3033 5.2341 20.4815C5.35314 20.6596 5.41668 20.8691 5.41668 21.0833C5.41668 21.3706 5.30254 21.6462 5.09938 21.8494C4.89621 22.0525 4.62066 22.1667 4.33335 22.1667ZM13 4.83333C13.2143 4.83333 13.4237 4.89686 13.6019 5.0159C13.78 5.13494 13.9189 5.30413 14.0009 5.50209C14.0829 5.70004 14.1043 5.91786 14.0625 6.12801C14.0207 6.33816 13.9176 6.53119 13.766 6.68269C13.6145 6.8342 13.4215 6.93738 13.2114 6.97918C13.0012 7.02098 12.7834 6.99953 12.5854 6.91753C12.3875 6.83554 12.2183 6.69668 12.0993 6.51853C11.9802 6.34038 11.9167 6.13092 11.9167 5.91666C11.9167 5.62934 12.0308 5.35379 12.234 5.15063C12.4371 4.94746 12.7127 4.83333 13 4.83333ZM13 17.8333C12.5715 17.8333 12.1526 17.7063 11.7963 17.4682C11.44 17.2301 11.1623 16.8917 10.9983 16.4958C10.8343 16.0999 10.7914 15.6643 10.875 15.244C10.9586 14.8237 11.1649 14.4376 11.4679 14.1346C11.771 13.8316 12.157 13.6252 12.5773 13.5416C12.9976 13.458 13.4333 13.5009 13.8292 13.6649C14.2251 13.8289 14.5635 14.1066 14.8015 14.4629C15.0396 14.8192 15.1667 15.2381 15.1667 15.6667C15.1667 16.2413 14.9384 16.7924 14.5321 17.1987C14.1257 17.6051 13.5746 17.8333 13 17.8333ZM21.6667 22.1667C21.4524 22.1667 21.243 22.1031 21.0648 21.9841C20.8867 21.865 20.7478 21.6959 20.6658 21.4979C20.5838 21.2999 20.5624 21.0821 20.6042 20.872C20.646 20.6618 20.7491 20.4688 20.9006 20.3173C21.0522 20.1658 21.2452 20.0626 21.4553 20.0208C21.6655 19.979 21.8833 20.0005 22.0813 20.0825C22.2792 20.1645 22.4484 20.3033 22.5674 20.4815C22.6865 20.6596 22.75 20.8691 22.75 21.0833C22.75 21.3706 22.6359 21.6462 22.4327 21.8494C22.2295 22.0525 21.954 22.1667 21.6667 22.1667Z" fill="black"/>
</svg>
