<svg width="38" height="38" viewBox="0 0 38 38" fill="none" xmlns="http://www.w3.org/2000/svg">
<path d="M36.8125 13.6562V8.3125C36.8111 7.84052 36.623 7.38827 36.2892 7.05452C35.9555 6.72078 35.5032 6.53266 35.0312 6.53125H27.9062V3.5625C27.9062 3.40503 27.8437 3.25401 27.7323 3.14266C27.621 3.03131 27.47 2.96875 27.3125 2.96875H25.5312V1.78125C25.5312 1.62378 25.4687 1.47276 25.3573 1.36141C25.246 1.25006 25.095 1.1875 24.9375 1.1875H13.0625C12.905 1.1875 12.754 1.25006 12.6427 1.36141C12.5313 1.47276 12.4688 1.62378 12.4688 1.78125V2.96875H10.6875C10.53 2.96875 10.379 3.03131 10.2677 3.14266C10.1563 3.25401 10.0938 3.40503 10.0938 3.5625V6.53125H2.96875C2.49677 6.53266 2.04452 6.72078 1.71077 7.05452C1.37703 7.38827 1.18891 7.84052 1.1875 8.3125V13.6562C1.1875 13.8137 1.25006 13.9647 1.36141 14.0761C1.47276 14.1874 1.62378 14.25 1.78125 14.25V20.1875C1.62378 20.1875 1.47276 20.2501 1.36141 20.3614C1.25006 20.4728 1.1875 20.6238 1.1875 20.7812V32.6562C1.1875 32.8137 1.25006 32.9647 1.36141 33.0761C1.47276 33.1874 1.62378 33.25 1.78125 33.25V34.4375C1.78219 34.7522 1.9076 35.0537 2.1301 35.2761C2.35259 35.4986 2.65409 35.6241 2.96875 35.625H17.8125V36.2188C17.8125 36.3762 17.8751 36.5272 17.9864 36.6386C18.0978 36.7499 18.2488 36.8125 18.4062 36.8125H36.2188C36.3762 36.8125 36.5272 36.7499 36.6386 36.6386C36.7499 36.5272 36.8125 36.3762 36.8125 36.2188V19C36.8113 18.8426 36.7497 18.6917 36.6403 18.5784L36.2188 18.1628V14.25C36.3762 14.25 36.5272 14.1874 36.6386 14.0761C36.7499 13.9647 36.8125 13.8137 36.8125 13.6562ZM13.6562 2.375H24.3438V4.75H13.6562V2.375ZM11.2812 4.15625H12.4688V5.34375C12.4688 5.50122 12.5313 5.65225 12.6427 5.76359C12.754 5.87494 12.905 5.9375 13.0625 5.9375H24.9375C25.095 5.9375 25.246 5.87494 25.3573 5.76359C25.4687 5.65225 25.5312 5.50122 25.5312 5.34375V4.15625H26.7188V6.53125H11.2812V4.15625ZM17.8125 34.4375H2.96875V33.25H17.8125V34.4375ZM2.375 32.0625V21.375H9.01313C9.13637 21.721 9.36322 22.0206 9.66282 22.2331C9.96242 22.4456 10.3202 22.5606 10.6875 22.5625H11.875C12.2423 22.5606 12.6001 22.4456 12.8997 22.2331C13.1993 22.0206 13.4261 21.721 13.5494 21.375H20.1875V32.0625H2.375ZM7.71875 16.625H11.2812C11.4387 16.625 11.5897 16.5624 11.7011 16.4511C11.8124 16.3397 11.875 16.1887 11.875 16.0312V14.25H26.125V14.8438H18.4062C18.2488 14.8438 18.0978 14.9063 17.9864 15.0177C17.8751 15.129 17.8125 15.28 17.8125 15.4375V20.1875H13.6562V18.4062C13.6562 18.2488 13.5937 18.0978 13.4823 17.9864C13.371 17.8751 13.22 17.8125 13.0625 17.8125H9.5C9.34253 17.8125 9.19151 17.8751 9.08016 17.9864C8.96881 18.0978 8.90625 18.2488 8.90625 18.4062V20.1875H2.96875V14.25H7.125V16.0312C7.125 16.1887 7.18756 16.3397 7.29891 16.4511C7.41025 16.5624 7.56128 16.625 7.71875 16.625ZM8.3125 15.4375V13.0625H10.6875V15.4375H8.3125ZM12.4688 19V20.7812C12.4688 20.9387 12.4062 21.0897 12.2948 21.2011C12.1835 21.3124 12.0325 21.375 11.875 21.375H10.6875C10.53 21.375 10.379 21.3124 10.2677 21.2011C10.1563 21.0897 10.0938 20.9387 10.0938 20.7812V19H12.4688ZM35.625 35.625H19V33.25H20.7812C20.9387 33.25 21.0897 33.1874 21.2011 33.0761C21.3124 32.9647 21.375 32.8137 21.375 32.6562V31.4688H33.8438V30.2812H21.375V28.5H33.8438V27.3125H21.375V25.5312H33.8438V24.3438H21.375V22.5625H33.8438V21.375H21.375V20.7812C21.375 20.6238 21.3124 20.4728 21.2011 20.3614C21.0897 20.2501 20.9387 20.1875 20.7812 20.1875H19V16.0312H32.0625V19C32.0625 19.1575 32.1251 19.3085 32.2364 19.4198C32.3478 19.5312 32.4988 19.5938 32.6562 19.5938H35.625V35.625ZM27.3125 14.8438V13.0625H29.6875V14.8438H27.3125ZM33.0778 15.0159C32.9646 14.9066 32.8137 14.8449 32.6562 14.8438H30.875V14.25H35.0312V16.9753L33.0778 15.0159ZM34.7878 18.4062H33.25V16.8684L34.7878 18.4062ZM35.625 13.0625H30.875V12.4688C30.875 12.3113 30.8124 12.1603 30.7011 12.0489C30.5897 11.9376 30.4387 11.875 30.2812 11.875H26.7188C26.5613 11.875 26.4103 11.9376 26.2989 12.0489C26.1876 12.1603 26.125 12.3113 26.125 12.4688V13.0625H11.875V12.4688C11.875 12.3113 11.8124 12.1603 11.7011 12.0489C11.5897 11.9376 11.4387 11.875 11.2812 11.875H7.71875C7.56128 11.875 7.41025 11.9376 7.29891 12.0489C7.18756 12.1603 7.125 12.3113 7.125 12.4688V13.0625H2.375V8.3125C2.375 8.15503 2.43756 8.004 2.54891 7.89266C2.66026 7.78131 2.81128 7.71875 2.96875 7.71875H35.0312C35.1887 7.71875 35.3397 7.78131 35.4511 7.89266C35.5624 8.004 35.625 8.15503 35.625 8.3125V13.0625Z" fill="white"/>
<path d="M26.7188 18.4062H20.7812V19.5938H26.7188V18.4062Z" fill="white"/>
<path d="M33.8438 33.25H20.7812V34.4375H33.8438V33.25Z" fill="white"/>
<path d="M10.6875 23.1562H3.5625C3.40503 23.1562 3.25401 23.2188 3.14266 23.3302C3.03131 23.4415 2.96875 23.5925 2.96875 23.75V30.875C2.96875 31.0325 3.03131 31.1835 3.14266 31.2948C3.25401 31.4062 3.40503 31.4688 3.5625 31.4688H10.6875C10.845 31.4688 10.996 31.4062 11.1073 31.2948C11.2187 31.1835 11.2812 31.0325 11.2812 30.875V23.75C11.2812 23.5925 11.2187 23.4415 11.1073 23.3302C10.996 23.2188 10.845 23.1562 10.6875 23.1562ZM8.3125 30.2812H5.9375V29.6875C5.9375 29.3726 6.06261 29.0705 6.28531 28.8478C6.50801 28.6251 6.81006 28.5 7.125 28.5C7.43994 28.5 7.74199 28.6251 7.96469 28.8478C8.18739 29.0705 8.3125 29.3726 8.3125 29.6875V30.2812ZM6.53125 26.7188C6.53125 26.6013 6.56607 26.4865 6.63131 26.3889C6.69656 26.2912 6.78929 26.2151 6.89778 26.1702C7.00628 26.1253 7.12566 26.1135 7.24083 26.1364C7.35601 26.1593 7.46181 26.2159 7.54484 26.2989C7.62788 26.3819 7.68443 26.4877 7.70734 26.6029C7.73025 26.7181 7.71849 26.8375 7.67355 26.946C7.62861 27.0545 7.55251 27.1472 7.45487 27.2124C7.35723 27.2777 7.24243 27.3125 7.125 27.3125C6.96753 27.3125 6.81651 27.2499 6.70516 27.1386C6.59381 27.0272 6.53125 26.8762 6.53125 26.7188ZM10.0938 30.2812H9.5V29.6875C9.49927 29.3177 9.41188 28.9532 9.24484 28.6232C9.0778 28.2932 8.83576 28.007 8.53813 27.7875C8.77486 27.4813 8.90423 27.1058 8.90625 26.7188C8.90625 26.2463 8.71858 25.7933 8.38453 25.4592C8.05049 25.1252 7.59742 24.9375 7.125 24.9375C6.65258 24.9375 6.19952 25.1252 5.86547 25.4592C5.53142 25.7933 5.34375 26.2463 5.34375 26.7188C5.34577 27.1058 5.47514 27.4813 5.71187 27.7875C5.41424 28.007 5.1722 28.2932 5.00516 28.6232C4.83812 28.9532 4.75073 29.3177 4.75 29.6875V30.2812H4.15625V24.3438H10.0938V30.2812Z" fill="white"/>
<path d="M19 24.9375H12.4688V26.125H19V24.9375Z" fill="white"/>
<path d="M15.4375 27.3125H12.4688V28.5H15.4375V27.3125Z" fill="white"/>
<path d="M19 27.3125H16.625V28.5H19V27.3125Z" fill="white"/>
<path d="M11.875 19.5938H10.6875V20.7812H11.875V19.5938Z" fill="white"/>
</svg>
