<svg xmlns="http://www.w3.org/2000/svg" width="33" height="33" fill="none"><g fill="#000" clip-path="url(#a)"><path d="M1.822-.009h.545l1.135-.003.897-.002 2.78-.004 4.903-.005q1.773-.001 3.546-.005 1.82-.005 3.64-.005 1.022 0 2.044-.003.87-.003 1.74-.002l.889-.001q.407-.003.813 0 .147 0 .294-.002c.573-.005 1.016.045 1.507.363l.177.109c.349.358.603.8.606 1.304l.003.645.002.752.001.258.003 1.217q0 .702.005 1.404.003.542.003 1.085 0 .324.002.648.003.362.001.723l.003.217c-.003.484-.003.484-.156.737-.212.186-.365.204-.648.201-.204-.029-.313-.131-.453-.276-.077-.153-.073-.247-.074-.418l-.002-.184V8.54l-.001-.213-.007-1.187-.012-2.069-.01-1.746q0-.338-.004-.675v-.2c0-.5 0-.5-.148-.969a2.4 2.4 0 0 0-.872-.145h-.811q-.4 0-.798 0h-.86a1006 1006 0 0 0-3.052 0H2.14c-.244.02-.433.046-.658.145-.14.311-.147.624-.145.96v3.069a1538 1538 0 0 0 0 4.039v9.06a6515 6515 0 0 0 0 9.098 490 490 0 0 1 0 2.024v.963c.002.295.023.552.145.823.289.127.56.145.872.145h2.469a945 945 0 0 0 3.249 0h17.117c.235-.019.435-.063.657-.145.14-.31.147-.623.145-.96v-.146l.001-.314.002-.498q.005-.706.005-1.414 0-.432.004-.866v-.33l.003-.46-.002-.137c.005-.306.077-.46.293-.676.206-.103.42-.097.644-.065.181.116.291.195.387.387q.012.257.013.513l.001.161.004.528v.183q.004.479.005.958.001.492.007.986.003.38.003.76l.003.363c.015 1.206.015 1.206-.358 1.736l-.109.177c-.396.385-.842.604-1.391.605h-.545l-.302.002-.832.001-.898.002q-1.083.002-2.168.003l-.612.001-4.682.005h-.221q-1.773.001-3.546.005-1.82.005-3.64.005-1.022 0-2.044.003-.87.002-1.74.002l-.889.001q-.406.003-.813 0-.147 0-.294.002c-.573.005-1.016-.045-1.507-.363l-.177-.109c-.418-.43-.606-.89-.605-1.48v-.671l-.003-1.4-.002-1.105-.004-3.428-.005-5.77v-.136q0-2.185-.005-4.372-.005-2.31-.005-4.621 0-1.26-.003-2.52-.003-1.072-.002-2.145l-.001-1.095q-.003-.501 0-1.002 0-.181-.002-.363c-.008-1.15-.008-1.15.363-1.688l.11-.177c.395-.385.841-.604 1.39-.605"/><path d="M31.999 8.557c.49.398.9.988 1.001 1.627.068 1.26-.356 2.088-.995 3.166l-.24.408q-.06.104-.124.21-.303.52-.603 1.041l-.121.211-.244.424-.606 1.05-.241.418-3.384 5.866-.121.21-.24.415a181 181 0 0 0-1.002 1.751c-.358.625-.682 1.084-1.276 1.499l-.329.236-.169.12q-.392.282-.779.57l-.303.224-1.11.82q-.21.157-.424.31l-.153.11-.153.107-.137.095a.92.92 0 0 1-.717.075c-.177-.141-.286-.25-.386-.452a9 9 0 0 1 .021-.463l.01-.14c.033-.466.082-.931.134-1.396l.029-.265.137-1.245.06-.544.043-.38c.13-1.146.13-1.146.414-1.631l.125-.215.134-.226.428-.731q.256-.44.51-.88l.358-.622.602-1.042.362-.628.486-.843q.581-1.011 1.17-2.018.49-.839.97-1.684.536-.94 1.082-1.871.36-.619.718-1.24l.585-1.014.085-.145c.512-.881 1.034-1.519 2.042-1.788.825-.186 1.668.011 2.35.5M29.17 9.895c-.246.386-.464.788-.682 1.19.234.198.474.354.74.505l.118.067.37.21.25.143c.449.257.449.257.907.494q.261-.417.516-.838l.091-.143c.213-.364.22-.733.166-1.146-.11-.38-.315-.617-.644-.838-.64-.318-1.376-.24-1.832.356m-1.39 2.415a537 537 0 0 0-1.748 3.012l-.605 1.05-.242.418-1.45 2.514-.121.21-.855 1.481q-.712 1.235-1.425 2.466c.163.184.348.293.56.415l.22.126.116.066.342.196c.377.217.755.426 1.147.615.25-.354.468-.72.676-1.1q.384-.697.786-1.381a275 275 0 0 0 1.072-1.847l.244-.423.605-1.05.242-.419.484-.838.361-.627.617-1.069.126-.219.245-.426a47 47 0 0 1 .813-1.366q.094-.157.174-.321c-.088-.263-.208-.294-.447-.429l-.118-.067-.373-.209-.247-.14c-.395-.223-.791-.44-1.2-.638M20.946 24.88c-.117.837-.222 1.668-.258 2.514.398-.248.772-.527 1.145-.81l.143-.108.137-.106q.06-.046.123-.094c.16-.134.305-.28.45-.43l-.712-.412-.242-.141-.348-.202-.212-.122c-.14-.094-.14-.094-.226-.09M17.259 4.6c1.27 1.01 2.096 2.352 2.335 3.972.108 1.714-.165 3.277-1.302 4.614q-.215.242-.439.478l-.105.12c-.898.982-2.346 1.518-3.65 1.58-1.724.047-3.227-.39-4.513-1.568-1.015-.964-1.772-2.309-1.862-3.728-.04-1.884.327-3.444 1.653-4.84 2.08-2.109 5.493-2.378 7.883-.628M9.97 6.623c-.794 1.042-1 2.279-.882 3.56.11.679.426 1.285.773 1.87.212-.09.327-.193.472-.37.404-.475.867-.789 1.397-1.113l-.052-.125-.076-.197q-.026-.061-.05-.125c-.15-.397-.179-.762-.176-1.184V8.74c.012-.505.08-.894.354-1.329l.073-.118c.365-.501.947-.748 1.539-.849.686-.076 1.304.1 1.854.515.396.359.682.86.743 1.394q.013.28.01.56l-.002.2c-.007.41-.047.76-.228 1.135-.074.144-.074.144-.057.386.137.102.267.185.415.27.46.278.856.593 1.171 1.036l.09.112h.129c.711-1.198 1.008-2.493.677-3.867-.4-1.258-1.227-2.288-2.397-2.917-2.116-.981-4.292-.359-5.777 1.354m2.828 1.567c-.191.399-.215.853-.097 1.277.125.322.331.497.64.652.318.035.573.035.863-.105.36-.325.467-.595.493-1.071-.004-.346-.053-.596-.276-.874-.24-.191-.442-.316-.749-.363-.379.053-.635.183-.874.484m-.358 3.54-.174.077c-.536.263-.977.65-1.309 1.148v.193c1.173.739 2.384 1.081 3.777.783.596-.156 1.12-.457 1.637-.783-.058-.337-.285-.533-.515-.773l-.101-.106c-.675-.641-1.5-.758-2.384-.745a2.4 2.4 0 0 0-.931.207M8.078 24.58l.25-.003.273.002.288-.001q.39-.002.781 0h.818q.687-.001 1.374.001.795.002 1.588 0 .683-.003 1.364-.001h.814q.382-.002.766 0h.28q.193 0 .384.002h.217c.254.054.352.165.514.363.043.162.043.162.04.323l.003.16c-.062.235-.181.33-.365.484-.192.04-.192.04-.409.041l-.25.003-.272-.002q-.144 0-.288.002h-1.6q-.687 0-1.373-.002-.796-.002-1.588 0-.683.002-1.364.002h-.815q-.383.001-.765-.002h-.281q-.192.002-.384 0l-.216-.001c-.254-.054-.352-.165-.514-.363-.043-.161-.043-.161-.04-.322l-.003-.161c.106-.4.389-.524.773-.525M8.078 20.97l.25-.002.273.002.288-.002h1.599q.687 0 1.374.002.795.001 1.588 0 .683-.002 1.364-.002h.814q.382-.001.766.001h.28q.193 0 .384.002h.217c.254.054.352.165.514.363.043.161.043.161.04.322l.003.161c-.062.234-.181.33-.365.484-.192.04-.192.04-.409.04l-.25.003q-.135 0-.272-.002l-.288.002q-.39.002-.782 0h-.818q-.687.001-1.373-.001-.796-.002-1.588 0-.683.003-1.364.001h-.815q-.383.002-.765 0h-.281q-.192 0-.384-.002h-.216c-.254-.054-.352-.165-.514-.363-.043-.162-.043-.162-.04-.323l-.003-.16c.106-.4.389-.524.773-.525M8.078 17.361l.25-.002.273.002.288-.002q.39-.002.781 0h.818q.687-.001 1.374.001.795.003 1.588 0 .683-.003 1.364-.001h.814q.382-.002.766.001h.28q.193-.001.384.001h.217c.254.055.352.166.514.364.043.16.043.16.04.322l.003.161c-.062.234-.181.33-.365.483-.192.041-.192.041-.409.041l-.25.003-.272-.002-.288.002h-1.6q-.687 0-1.373-.002-.796-.001-1.588.001-.683.002-1.364 0l-.815.001q-.383.001-.765-.001h-.281q-.192.001-.384-.002h-.216c-.254-.054-.352-.165-.514-.363-.043-.161-.043-.161-.04-.322l-.003-.161c.106-.399.389-.524.773-.525M13.752 28.189l.247-.003q.132 0 .265.002l.274-.001q.287 0 .573.002.366.001.732-.002h.836q.189-.001.378.002h.217c.255.055.352.165.515.364a.8.8 0 0 1 .04.322l.003.161c-.062.234-.181.33-.365.483-.193.042-.193.042-.41.042l-.247.003q-.133 0-.266-.002l-.273.001-.573-.001q-.367-.002-.733 0-.283.003-.565 0-.135 0-.27.002l-.378-.003h-.217c-.255-.055-.353-.165-.515-.364-.043-.16-.043-.16-.04-.322q-.002-.079-.003-.161c.106-.4.39-.524.775-.525M5.543 24.621c.237.163.307.269.387.544 0 .264-.05.396-.194.616-.259.173-.469.174-.773.13-.185-.117-.29-.193-.387-.388-.037-.456-.037-.456.121-.704.251-.244.509-.249.846-.198M5.543 21.012c.237.162.307.268.387.544 0 .263-.05.396-.194.616-.259.173-.469.174-.773.129-.185-.116-.29-.192-.387-.387-.037-.457-.037-.457.121-.705.251-.244.509-.248.846-.197M5.543 17.402c.237.163.307.27.387.544 0 .264-.05.397-.194.616-.259.173-.469.174-.773.13-.185-.116-.29-.193-.387-.387-.037-.457-.037-.457.121-.705.251-.244.509-.248.846-.198"/></g><defs><clipPath id="a"><path fill="#fff" d="M0 0h33v33H0z"/></clipPath></defs></svg>