<svg width="24" height="23" viewBox="0 0 24 23" fill="none" xmlns="http://www.w3.org/2000/svg">
<path d="M19.2 0.699997H4.8C2.16 0.699997 0 2.86 0 5.5V17.5C0 20.14 2.16 22.3 4.8 22.3H19.2C21.84 22.3 24 20.14 24 17.5V5.5C24 2.86 21.84 0.699997 19.2 0.699997ZM21.6 17.5C21.6 18.82 20.52 19.9 19.2 19.9H4.8C3.48 19.9 2.4 18.82 2.4 17.5V9.1H21.6V17.5ZM21.6 6.7H2.4V5.5C2.4 4.18 3.48 3.1 4.8 3.1H19.2C20.52 3.1 21.6 4.18 21.6 5.5V6.7Z" fill="black"/>
<path d="M10.68 5.97997C11.2102 5.97997 11.64 5.55016 11.64 5.01997C11.64 4.48977 11.2102 4.05997 10.68 4.05997C10.1498 4.05997 9.72 4.48977 9.72 5.01997C9.72 5.55016 10.1498 5.97997 10.68 5.97997Z" fill="black"/>
<path d="M7.56001 5.97997C8.0902 5.97997 8.52001 5.55016 8.52001 5.01997C8.52001 4.48977 8.0902 4.05997 7.56001 4.05997C7.02981 4.05997 6.60001 4.48977 6.60001 5.01997C6.60001 5.55016 7.02981 5.97997 7.56001 5.97997Z" fill="black"/>
<path d="M4.56001 5.97997C5.0902 5.97997 5.52001 5.55016 5.52001 5.01997C5.52001 4.48977 5.0902 4.05997 4.56001 4.05997C4.02981 4.05997 3.60001 4.48977 3.60001 5.01997C3.60001 5.55016 4.02981 5.97997 4.56001 5.97997Z" fill="black"/>
</svg>
