<svg width="24" height="25" viewBox="0 0 24 25" fill="none" xmlns="http://www.w3.org/2000/svg">
<path fill-rule="evenodd" clip-rule="evenodd" d="M14.4597 1.06195C14.4609 1.06257 14.462 1.06318 14.4632 1.0638L20.9755 4.53307C21.0023 4.54738 21.0286 4.56253 21.0543 4.57851L21.0945 4.6035C21.6528 4.95072 22.1331 5.24938 22.5065 5.52201C22.8985 5.80813 23.2655 6.12981 23.5314 6.55369C23.8039 6.988 23.9096 7.43189 23.9569 7.87424C24.0001 8.27929 24 8.76098 24 9.29448V15.7055C24 16.239 24.0001 16.7207 23.9569 17.1258C23.9096 17.5681 23.8039 18.012 23.5314 18.4463C23.2655 18.8702 22.8985 19.1919 22.5065 19.478C22.1331 19.7506 21.6528 20.0493 21.0945 20.3965L21.0543 20.4215C21.0286 20.4375 21.0023 20.4526 20.9755 20.4669L14.4632 23.9362C14.4619 23.9369 14.4607 23.9375 14.4595 23.9382C13.7175 24.3373 12.8236 24.5 12.0044 24.5C11.1832 24.5 10.2881 24.3365 9.54306 23.9395C9.54302 23.9395 9.5431 23.9396 9.54306 23.9395L3.02454 20.4669C2.99768 20.4526 2.97138 20.4375 2.9457 20.4215L2.90543 20.3965C2.3472 20.0493 1.86677 19.7505 1.4931 19.4776C1.10071 19.1909 0.733613 18.8686 0.467778 18.4437C0.195671 18.0087 0.0901936 17.5639 0.0430964 17.1207C-7.44015e-05 16.7143 -3.8003e-05 16.2308 2.52814e-06 15.6946V9.29444C-3.86388e-05 8.76096 -7.5673e-05 8.27928 0.0431498 7.87424C0.0903561 7.43189 0.19612 6.988 0.468586 6.55369C0.73451 6.12981 1.10148 5.80813 1.49345 5.52201C1.86695 5.24938 2.34721 4.95071 2.90554 4.60348L2.9457 4.57851C2.97138 4.56253 2.99768 4.54738 3.02454 4.53307L9.54294 1.06053C9.5429 1.06055 9.54298 1.06051 9.54294 1.06053C10.288 0.663543 11.1832 0.5 12.0044 0.5C12.8237 0.5 13.7177 0.662736 14.4597 1.06195ZM12.0044 2.9C11.5369 2.9 11.1401 2.99858 10.9015 3.12572L4.42319 6.5769C3.83531 6.94258 3.45143 7.18293 3.17322 7.38601C2.89853 7.58652 2.82105 7.68526 2.79068 7.73368C2.76685 7.77166 2.72447 7.85193 2.6976 8.10369C2.66809 8.38023 2.66667 8.74527 2.66667 9.34408V15.645C2.66667 16.2465 2.66808 16.6138 2.69765 16.8922C2.72463 17.1461 2.7673 17.2276 2.79149 17.2663C2.82195 17.3149 2.8993 17.4137 3.17357 17.6141C3.45159 17.8172 3.83526 18.0574 4.4232 18.4231L10.9014 21.8742C11.14 22.0014 11.5369 22.1 12.0044 22.1C12.4728 22.1 12.8632 22.0012 13.0924 21.8776L13.0986 21.8742L19.5768 18.4231C20.1647 18.0574 20.5486 17.8171 20.8268 17.614C21.1015 17.4135 21.1789 17.3147 21.2093 17.2663C21.2331 17.2283 21.2755 17.1481 21.3024 16.8963C21.3319 16.6198 21.3333 16.2547 21.3333 15.6559V9.34408C21.3333 8.74527 21.3319 8.38023 21.3024 8.10369C21.2755 7.85193 21.2331 7.77166 21.2093 7.73368C21.1789 7.68526 21.1015 7.58652 20.8268 7.38601C20.5486 7.18293 20.1647 6.94257 19.5768 6.57689L13.0924 3.12246C12.8632 2.99886 12.4728 2.9 12.0044 2.9ZM12 10.1C10.5272 10.1 9.33333 11.1745 9.33333 12.5C9.33333 13.8255 10.5272 14.9 12 14.9C13.4728 14.9 14.6667 13.8255 14.6667 12.5C14.6667 11.1745 13.4728 10.1 12 10.1ZM6.66667 12.5C6.66667 9.84903 9.05448 7.7 12 7.7C14.9455 7.7 17.3333 9.84903 17.3333 12.5C17.3333 15.151 14.9455 17.3 12 17.3C9.05448 17.3 6.66667 15.151 6.66667 12.5Z" fill="black"/>
</svg>
