<svg width="24" height="25" viewBox="0 0 24 25" fill="none" xmlns="http://www.w3.org/2000/svg">
<path d="M3 5.75C2.5875 5.75 2.25 6.0875 2.25 6.5V7.53594L10.3359 14.1734C11.3062 14.9703 12.6984 14.9703 13.6688 14.1734L21.75 7.53594V6.5C21.75 6.0875 21.4125 5.75 21 5.75H3ZM2.25 10.4469V18.5C2.25 18.9125 2.5875 19.25 3 19.25H21C21.4125 19.25 21.75 18.9125 21.75 18.5V10.4469L15.0938 15.9125C13.2937 17.3891 10.7016 17.3891 8.90625 15.9125L2.25 10.4469ZM0 6.5C0 4.84531 1.34531 3.5 3 3.5H21C22.6547 3.5 24 4.84531 24 6.5V18.5C24 20.1547 22.6547 21.5 21 21.5H3C1.34531 21.5 0 20.1547 0 18.5V6.5Z" fill="black"/>
</svg>
