<svg xmlns="http://www.w3.org/2000/svg" width="33" height="33" fill="none"><g clip-path="url(#a)"><path fill="#000" d="M29.906 16.5a13.407 13.407 0 1 1-26.813 0 13.407 13.407 0 0 1 26.813 0M0 16.5a16.5 16.5 0 1 0 33 0 16.5 16.5 0 0 0-33 0m14.953-8.766V16.5c0 .516.258.999.69 1.29l6.187 4.124c.71.477 1.67.284 2.147-.432a1.54 1.54 0 0 0-.432-2.146l-5.498-3.661v-7.94c0-.858-.69-1.548-1.547-1.548s-1.547.69-1.547 1.547"/></g><defs><clipPath id="a"><path fill="#fff" d="M0 0h33v33H0z"/></clipPath></defs></svg>