<svg width="23" height="18" viewBox="0 0 23 18" fill="none" xmlns="http://www.w3.org/2000/svg">
<path d="M17.1032 9.36829V16.2317C17.1032 16.5942 16.9836 16.9296 16.7819 17.1996C16.4862 17.5952 16.015 17.851 15.4838 17.851H1.62C1.0881 17.851 0.616276 17.5952 0.321301 17.1996C0.299701 17.1706 0.278776 17.1409 0.259201 17.1099C0.0896267 16.8484 -0.000415445 16.5433 1.44107e-06 16.2317V2.36779C1.44107e-06 1.47274 0.724951 0.748535 1.62 0.748535H15.4838C16.0819 0.748535 16.6044 1.07253 16.8844 1.55516L14.6556 3.78462L9.7227 8.71819L6.12968 5.12524C5.49518 4.49074 4.22685 4.49074 3.5937 5.12524L2.1141 6.60416C1.88933 6.82894 1.7442 7.13336 1.6794 7.46067C1.55925 8.05669 1.70438 8.73102 2.1141 9.14081L8.45438 15.4811C9.0882 16.1149 10.3559 16.1149 10.9904 15.4811L12.47 14.0015L17.1032 9.36829Z" fill="#F5D6D6"/>
<path d="M21.9801 4.49071L17.1032 9.36832L12.47 14.0015L10.9904 15.4811C10.3559 16.1149 9.08829 16.1149 8.45447 15.4811L2.11419 9.14085C1.70447 8.73112 1.55934 8.05673 1.67949 7.46071C1.74429 7.13333 1.88942 6.82897 2.11419 6.6042L3.59379 5.12527C4.22694 4.49077 5.49527 4.49077 6.12977 5.12527L9.72279 8.71823L14.6557 3.78466L16.8845 1.5552L17.9645 0.475875C18.599 -0.158625 19.8674 -0.158625 20.5005 0.475875L21.9801 1.9548C22.1529 2.12821 22.2791 2.34832 22.3574 2.58991C22.5674 3.23386 22.4411 4.02968 21.9801 4.49071Z" fill="#E66868"/>
</svg>
