<svg width="34" height="38" viewBox="0 0 34 38" fill="none" xmlns="http://www.w3.org/2000/svg">
<path d="M20.6429 22.5625H13.3571C5.98036 22.5625 0 28.4109 0 35.625C0 36.9364 1.08754 38 2.42857 38H31.5714C32.9125 38 34 36.9364 34 35.625C34 28.4109 28.0196 22.5625 20.6429 22.5625ZM3.71799 34.4375C4.31754 29.7543 8.40893 26.125 13.3571 26.125H20.6429C25.588 26.125 29.6817 29.758 30.2812 34.4375H3.71799ZM17 19C22.3649 19 26.7143 14.7465 26.7143 9.5C26.7143 4.25348 22.3649 0 17 0C11.6351 0 7.28571 4.25348 7.28571 9.5C7.28571 14.7473 11.6344 19 17 19ZM17 3.5625C20.3476 3.5625 23.0714 6.22621 23.0714 9.5C23.0714 12.7738 20.3476 15.4375 17 15.4375C13.6524 15.4375 10.9286 12.773 10.9286 9.5C10.9286 6.22621 13.6531 3.5625 17 3.5625Z" fill="white"/>
</svg>
