<svg width="550" height="825" viewBox="0 0 550 825" fill="none" xmlns="http://www.w3.org/2000/svg">
<path d="M539.406 558.242C538.394 558.242 537.404 557.942 536.562 557.379C535.721 556.816 535.065 556.016 534.678 555.08C534.291 554.144 534.19 553.114 534.389 552.121C534.587 551.128 535.075 550.216 535.792 549.501C536.509 548.785 537.422 548.299 538.415 548.102C539.408 547.906 540.437 548.009 541.372 548.398C542.307 548.787 543.105 549.445 543.666 550.288C544.227 551.131 544.525 552.122 544.523 553.135C544.523 553.807 544.391 554.472 544.133 555.092C543.876 555.712 543.499 556.276 543.024 556.75C542.548 557.225 541.984 557.601 541.364 557.857C540.743 558.113 540.078 558.244 539.406 558.242Z" stroke="#F9FDF2" stroke-width="0.5" stroke-miterlimit="10"/>
<g style="mix-blend-mode:overlay" opacity="0.06">
<path d="M196.739 436.576L122.197 362.008C115.649 355.458 105.033 355.458 98.4854 362.008L23.9432 436.576C17.3955 443.126 17.3955 453.746 23.9432 460.296L98.4854 534.865C105.033 541.415 115.649 541.415 122.197 534.865L196.739 460.296C203.287 453.746 203.287 443.126 196.739 436.576Z" fill="#F9FDF2"/>
</g>
<g style="mix-blend-mode:overlay" opacity="0.08">
<path d="M348.208 128.255L299.466 79.4953C294.294 74.3223 285.91 74.3223 280.739 79.4953L231.996 128.255C226.825 133.428 226.825 141.815 231.996 146.988L280.739 195.748C285.91 200.921 294.294 200.921 299.466 195.748L348.208 146.988C353.379 141.815 353.379 133.428 348.208 128.255Z" fill="#F9FDF2"/>
</g>
<path d="M337.781 788.123C337.779 787.375 337.999 786.644 338.412 786.021C338.826 785.398 339.415 784.912 340.105 784.624C340.795 784.337 341.555 784.26 342.288 784.405C343.022 784.549 343.696 784.908 344.225 785.436C344.755 785.964 345.115 786.638 345.262 787.371C345.409 788.104 345.335 788.864 345.049 789.555C344.763 790.246 344.279 790.837 343.658 791.253C343.037 791.669 342.306 791.89 341.558 791.89C340.559 791.89 339.599 791.494 338.891 790.788C338.183 790.081 337.784 789.123 337.781 788.123Z" stroke="#F9FDF2" stroke-width="0.5" stroke-miterlimit="10"/>
<path d="M337.781 805.379C337.779 804.631 337.999 803.899 338.412 803.276C338.826 802.654 339.415 802.168 340.105 801.88C340.795 801.592 341.555 801.516 342.288 801.66C343.022 801.805 343.696 802.164 344.225 802.692C344.755 803.22 345.115 803.893 345.262 804.626C345.409 805.36 345.335 806.12 345.049 806.811C344.763 807.502 344.279 808.093 343.658 808.509C343.037 808.924 342.306 809.146 341.558 809.146C341.063 809.148 340.572 809.051 340.114 808.862C339.656 808.674 339.239 808.396 338.888 808.046C338.537 807.696 338.259 807.281 338.069 806.823C337.879 806.365 337.781 805.874 337.781 805.379Z" stroke="#F9FDF2" stroke-width="0.5" stroke-miterlimit="10"/>
<path d="M320.532 788.123C320.532 787.378 320.753 786.649 321.166 786.03C321.58 785.41 322.168 784.928 322.857 784.642C323.545 784.357 324.302 784.283 325.033 784.428C325.763 784.573 326.434 784.932 326.961 785.459C327.488 785.986 327.846 786.657 327.992 787.388C328.137 788.119 328.062 788.876 327.777 789.565C327.492 790.253 327.01 790.842 326.39 791.256C325.771 791.67 325.043 791.89 324.298 791.89C323.299 791.89 322.341 791.494 321.635 790.787C320.928 790.08 320.532 789.122 320.532 788.123Z" stroke="#F9FDF2" stroke-width="0.5" stroke-miterlimit="10"/>
<path d="M320.532 805.379C320.532 804.634 320.753 803.905 321.166 803.286C321.58 802.666 322.168 802.183 322.857 801.898C323.545 801.613 324.302 801.538 325.033 801.684C325.763 801.829 326.434 802.188 326.961 802.715C327.488 803.242 327.846 803.913 327.992 804.644C328.137 805.374 328.062 806.132 327.777 806.82C327.492 807.509 327.01 808.097 326.39 808.511C325.771 808.925 325.043 809.146 324.298 809.146C323.803 809.148 323.312 809.051 322.855 808.862C322.397 808.673 321.982 808.396 321.632 808.046C321.282 807.696 321.004 807.28 320.815 806.822C320.627 806.364 320.53 805.874 320.532 805.379Z" stroke="#F9FDF2" stroke-width="0.5" stroke-miterlimit="10"/>
<path d="M303.282 788.123C303.28 787.375 303.5 786.643 303.914 786.02C304.328 785.397 304.918 784.911 305.609 784.623C306.299 784.336 307.06 784.26 307.793 784.406C308.527 784.551 309.201 784.911 309.73 785.44C310.259 785.969 310.619 786.644 310.764 787.378C310.91 788.112 310.834 788.872 310.547 789.563C310.26 790.254 309.774 790.844 309.151 791.258C308.528 791.673 307.796 791.893 307.048 791.89C306.05 791.888 305.094 791.49 304.388 790.784C303.683 790.078 303.285 789.121 303.282 788.123Z" stroke="#F9FDF2" stroke-width="0.5" stroke-miterlimit="10"/>
<path d="M303.282 805.379C303.28 804.63 303.5 803.898 303.914 803.275C304.328 802.652 304.918 802.166 305.609 801.879C306.299 801.592 307.06 801.516 307.793 801.661C308.527 801.807 309.201 802.167 309.73 802.696C310.259 803.225 310.619 803.899 310.764 804.633C310.91 805.367 310.834 806.128 310.547 806.819C310.26 807.509 309.774 808.099 309.151 808.514C308.528 808.928 307.796 809.148 307.048 809.146C306.05 809.146 305.092 808.749 304.385 808.043C303.679 807.336 303.282 806.378 303.282 805.379Z" stroke="#F9FDF2" stroke-width="0.5" stroke-miterlimit="10"/>
<path d="M516.195 431.785C515.45 431.783 514.723 431.56 514.105 431.145C513.488 430.73 513.007 430.141 512.723 429.452C512.44 428.764 512.367 428.006 512.513 427.276C512.66 426.546 513.019 425.876 513.547 425.35C514.074 424.824 514.745 424.467 515.475 424.322C516.205 424.178 516.962 424.253 517.65 424.538C518.337 424.824 518.925 425.307 519.338 425.926C519.751 426.545 519.972 427.273 519.972 428.018C519.972 428.514 519.874 429.004 519.684 429.462C519.494 429.92 519.216 430.336 518.865 430.686C518.514 431.036 518.098 431.313 517.639 431.502C517.181 431.691 516.69 431.787 516.195 431.785Z" stroke="#F9FDF2" stroke-width="0.5" stroke-miterlimit="10"/>
<path d="M529.678 428.018C529.678 430.099 531.364 431.785 533.444 431.785C535.524 431.785 537.21 430.099 537.21 428.018C537.21 425.937 535.524 424.251 533.444 424.251C531.364 424.251 529.678 425.937 529.678 428.018Z" stroke="#F9FDF2" stroke-width="0.5" stroke-miterlimit="10"/>
<path d="M516.195 449.041C515.447 449.041 514.716 448.819 514.094 448.403C513.472 447.987 512.988 447.395 512.703 446.703C512.418 446.012 512.344 445.251 512.492 444.517C512.639 443.784 513.001 443.111 513.532 442.583C514.062 442.056 514.737 441.697 515.471 441.554C516.206 441.411 516.966 441.489 517.655 441.778C518.345 442.067 518.934 442.555 519.346 443.179C519.758 443.804 519.976 444.536 519.972 445.285C519.966 446.283 519.566 447.238 518.858 447.942C518.15 448.646 517.193 449.041 516.195 449.041Z" stroke="#F9FDF2" stroke-width="0.5" stroke-miterlimit="10"/>
<path d="M533.444 449.041C532.696 449.043 531.964 448.823 531.341 448.408C530.718 447.993 530.232 447.403 529.945 446.711C529.658 446.02 529.583 445.258 529.729 444.524C529.875 443.79 530.236 443.116 530.766 442.587C531.296 442.058 531.971 441.699 532.706 441.555C533.44 441.411 534.201 441.488 534.891 441.777C535.582 442.066 536.171 442.554 536.584 443.178C536.997 443.803 537.215 444.536 537.21 445.285C537.205 446.281 536.806 447.235 536.1 447.938C535.395 448.642 534.44 449.038 533.444 449.041Z" stroke="#F9FDF2" stroke-width="0.5" stroke-miterlimit="10"/>
<path d="M516.195 466.297C515.448 466.297 514.717 466.075 514.096 465.66C513.475 465.245 512.991 464.655 512.705 463.964C512.419 463.274 512.344 462.514 512.49 461.781C512.636 461.048 512.996 460.375 513.524 459.846C514.052 459.318 514.725 458.958 515.458 458.812C516.19 458.667 516.95 458.741 517.64 459.027C518.33 459.313 518.92 459.798 519.335 460.419C519.75 461.04 519.972 461.771 519.972 462.518C519.972 463.52 519.574 464.481 518.865 465.19C518.157 465.899 517.196 466.297 516.195 466.297Z" stroke="#F9FDF2" stroke-width="0.5" stroke-miterlimit="10"/>
<path d="M533.444 466.297C532.697 466.299 531.965 466.079 531.343 465.665C530.72 465.251 530.234 464.662 529.947 463.972C529.659 463.282 529.583 462.522 529.727 461.788C529.872 461.054 530.231 460.38 530.759 459.85C531.286 459.321 531.959 458.96 532.692 458.813C533.425 458.667 534.185 458.741 534.876 459.026C535.567 459.312 536.158 459.796 536.573 460.418C536.989 461.039 537.21 461.77 537.21 462.518C537.21 463.518 536.814 464.478 536.108 465.186C535.402 465.894 534.444 466.294 533.444 466.297Z" stroke="#F9FDF2" stroke-width="0.5" stroke-miterlimit="10"/>
<path d="M159.137 21.3086C159.137 20.5635 159.358 19.8351 159.772 19.2155C160.186 18.596 160.774 18.1131 161.462 17.8279C162.15 17.5428 162.908 17.4682 163.638 17.6135C164.369 17.7589 165.04 18.1177 165.566 18.6446C166.093 19.1715 166.452 19.8428 166.597 20.5736C166.742 21.3044 166.668 22.0619 166.383 22.7503C166.098 23.4388 165.615 24.0272 164.996 24.4411C164.376 24.8551 163.648 25.0761 162.903 25.0761C161.905 25.0732 160.949 24.6753 160.243 23.9694C159.538 23.2635 159.14 22.3069 159.137 21.3086Z" stroke="#F9FDF2" stroke-width="0.5" stroke-miterlimit="10"/>
<path d="M159.137 38.6081C159.137 37.863 159.358 37.1346 159.772 36.5151C160.186 35.8955 160.774 35.4126 161.462 35.1275C162.15 34.8423 162.908 34.7677 163.638 34.9131C164.369 35.0584 165.04 35.4173 165.566 35.9442C166.093 36.471 166.452 37.1423 166.597 37.8732C166.742 38.604 166.668 39.3615 166.383 40.0499C166.098 40.7383 165.615 41.3267 164.996 41.7407C164.376 42.1546 163.648 42.3756 162.903 42.3756C161.904 42.3756 160.947 41.9787 160.24 41.2721C159.534 40.5656 159.137 39.6073 159.137 38.6081Z" stroke="#F9FDF2" stroke-width="0.5" stroke-miterlimit="10"/>
<path d="M141.888 21.3086C141.894 20.5614 142.122 19.8328 142.543 19.2151C142.963 18.5974 143.557 18.1183 144.25 17.8384C144.943 17.5585 145.703 17.4903 146.434 17.6425C147.165 17.7946 147.835 18.1603 148.359 18.6934C148.882 19.2264 149.236 19.9027 149.376 20.6369C149.515 21.3711 149.434 22.1301 149.142 22.818C148.85 23.5059 148.361 24.0917 147.736 24.5015C147.111 24.9113 146.379 25.1265 145.632 25.12C145.136 25.1157 144.646 25.0137 144.189 24.8198C143.732 24.6259 143.318 24.344 142.971 23.9901C142.623 23.6361 142.349 23.2172 142.163 22.7571C141.977 22.297 141.883 21.8048 141.888 21.3086Z" stroke="#F9FDF2" stroke-width="0.5" stroke-miterlimit="10"/>
<path d="M141.888 38.6081C141.886 37.859 142.106 37.1261 142.521 36.5026C142.936 35.8791 143.528 35.3931 144.219 35.1064C144.911 34.8198 145.673 34.7453 146.407 34.8926C147.141 35.0398 147.815 35.4021 148.343 35.9334C148.871 36.4647 149.23 37.141 149.373 37.8764C149.515 38.6118 149.437 39.3731 149.146 40.0635C148.855 40.754 148.366 41.3425 147.74 41.7541C147.115 42.1658 146.381 42.3821 145.632 42.3756C144.637 42.3698 143.685 41.9703 142.983 41.2644C142.281 40.5585 141.888 39.6035 141.888 38.6081Z" stroke="#F9FDF2" stroke-width="0.5" stroke-miterlimit="10"/>
<path d="M124.649 21.3525C124.649 23.4332 126.335 25.12 128.415 25.12C130.495 25.12 132.181 23.4332 132.181 21.3525C132.181 19.2718 130.495 17.5851 128.415 17.5851C126.335 17.5851 124.649 19.2718 124.649 21.3525Z" stroke="#F9FDF2" stroke-width="0.5" stroke-miterlimit="10"/>
<path d="M124.649 38.6081C124.649 37.863 124.87 37.1346 125.284 36.5151C125.698 35.8955 126.286 35.4126 126.974 35.1275C127.662 34.8423 128.419 34.7677 129.15 34.9131C129.881 35.0584 130.552 35.4173 131.078 35.9441C131.605 36.471 131.964 37.1423 132.109 37.8731C132.254 38.604 132.18 39.3615 131.895 40.0499C131.61 40.7383 131.127 41.3267 130.508 41.7407C129.888 42.1546 129.16 42.3756 128.415 42.3756C127.92 42.377 127.43 42.2806 126.972 42.0918C126.515 41.9029 126.099 41.6255 125.749 41.2754C125.399 40.9252 125.122 40.5093 124.933 40.0516C124.744 39.5939 124.648 39.1033 124.649 38.6081Z" stroke="#F9FDF2" stroke-width="0.5" stroke-miterlimit="10"/>
<path d="M261.998 357.853L433.142 529.069" stroke="#F9FDF2" stroke-linecap="round" stroke-linejoin="round" stroke-dasharray="0.06 3.99"/>
<path d="M372.006 85.3663C371.222 85.3663 370.455 85.1338 369.804 84.6981C369.152 84.2624 368.644 83.6431 368.344 82.9186C368.044 82.194 367.965 81.3968 368.118 80.6276C368.271 79.8584 368.649 79.1519 369.203 78.5974C369.757 78.0428 370.464 77.6652 371.232 77.5122C372.001 77.3592 372.798 77.4377 373.523 77.7378C374.247 78.0379 374.866 78.5462 375.301 79.1982C375.737 79.8503 375.969 80.6169 375.969 81.4012C375.969 82.4528 375.552 83.4613 374.809 84.205C374.065 84.9486 373.057 85.3663 372.006 85.3663Z" stroke="#F9FDF2" stroke-width="0.5" stroke-miterlimit="10"/>
<path d="M14.5201 165.988C13.5081 165.988 12.5188 165.687 11.6774 165.125C10.836 164.563 10.1802 163.763 9.79288 162.828C9.40562 161.893 9.30427 160.864 9.5017 159.871C9.69913 158.878 10.1865 157.966 10.902 157.25C11.6176 156.534 12.5293 156.047 13.5218 155.849C14.5144 155.652 15.5432 155.753 16.4781 156.14C17.4131 156.528 18.2122 157.184 18.7744 158.026C19.3366 158.867 19.6367 159.857 19.6367 160.869C19.6367 161.541 19.5044 162.207 19.2472 162.828C18.9901 163.449 18.6132 164.013 18.1381 164.489C17.663 164.964 17.0989 165.341 16.4781 165.598C15.8573 165.855 15.192 165.988 14.5201 165.988Z" stroke="#F9FDF2" stroke-width="0.5" stroke-miterlimit="10"/>
<path d="M140.603 507.75C140.603 512.499 144.452 516.35 149.2 516.35C153.948 516.35 157.798 512.499 157.798 507.75C157.798 503 153.948 499.149 149.2 499.149C144.452 499.149 140.603 503 140.603 507.75Z" stroke="#F9FDF2" stroke-width="0.5" stroke-miterlimit="10"/>
<path d="M491.303 15.8387C491.303 20.5885 495.152 24.439 499.901 24.439C504.649 24.439 508.498 20.5885 508.498 15.8387C508.498 11.0888 504.649 7.23832 499.901 7.23832C495.152 7.23832 491.303 11.0888 491.303 15.8387Z" stroke="#F9FDF2" stroke-width="0.5" stroke-miterlimit="10"/>
<path d="M319.28 722.484C318.268 722.484 317.278 722.183 316.436 721.62C315.595 721.057 314.939 720.257 314.552 719.321C314.165 718.385 314.064 717.356 314.263 716.363C314.461 715.369 314.949 714.457 315.666 713.742C316.383 713.027 317.295 712.54 318.289 712.344C319.282 712.147 320.311 712.25 321.246 712.639C322.18 713.029 322.979 713.686 323.54 714.529C324.101 715.373 324.399 716.363 324.397 717.376C324.397 718.048 324.264 718.713 324.007 719.333C323.75 719.954 323.373 720.517 322.897 720.992C322.422 721.466 321.858 721.842 321.237 722.098C320.617 722.354 319.951 722.485 319.28 722.484Z" stroke="#F9FDF2" stroke-width="0.5" stroke-miterlimit="10"/>
<g style="mix-blend-mode:overlay" opacity="0.06">
<path d="M501.118 667.01L447.811 613.683C442.159 608.03 432.996 608.03 427.345 613.683L374.037 667.01C368.385 672.663 368.385 681.83 374.037 687.483L427.345 740.81C432.996 746.463 442.159 746.463 447.811 740.81L501.118 687.483C506.77 681.83 506.77 672.663 501.118 667.01Z" fill="#F9FDF2"/>
</g>
</svg>
